<svg width="138" height="138" viewBox="0 0 138 138" fill="none" xmlns="http://www.w3.org/2000/svg">
<g clip-path="url(#clip0_2695_11211)">
<path d="M77.9784 91.3206C77.754 92.4429 79.437 92.7795 79.6614 91.6573C82.242 78.9762 94.6119 72.5515 95.3973 58.0749C95.3973 57.9907 95.3973 57.9065 95.3973 57.8224C95.1449 49.5741 92.6204 42.0832 87.7678 36.8088C83.3359 31.9552 76.9686 28.9813 68.722 28.9813C51.5275 28.9813 42.4674 41.8869 42.0466 58.0188C41.8783 64.724 46.5627 71.794 50.2933 77.0123C53.4629 81.4732 56.6325 85.934 57.8106 91.6573C58.035 92.7795 59.7461 92.4148 59.4936 91.3206C58.2594 85.2326 54.9776 80.6315 51.6958 76.0304C47.9371 70.756 44.1784 65.4815 43.7857 58.0188C44.0101 50.1071 46.3944 42.981 50.9665 37.9871C55.0898 33.4983 61.0083 30.7488 68.75 30.7488C76.4918 30.7488 82.4103 33.4983 86.5336 37.9871C91.4984 43.4018 93.4899 50.8366 93.7143 58.0188C93.2936 65.4254 89.563 70.7279 85.8043 76.0023C82.4944 80.6034 79.2407 85.2326 77.9784 91.3206Z" fill="black"/>
<path d="M58.652 90.6193H78.8479C80.7553 90.6193 82.298 92.1623 82.298 94.0701V97.1562C82.298 99.064 80.7553 100.607 78.8479 100.607H58.652C56.7446 100.607 55.2019 99.064 55.2019 97.1562V94.0701C55.2019 92.1623 56.7446 90.6193 58.652 90.6193ZM78.8198 92.3587H58.624C57.6983 92.3587 56.9129 93.1162 56.9129 94.0701V97.1562C56.9129 98.082 57.6703 98.8676 58.624 98.8676H78.8198C79.7455 98.8676 80.5309 98.1101 80.5309 97.1562V94.0701C80.5309 93.1443 79.7735 92.3587 78.8198 92.3587Z" fill="black"/>
<path d="M59.9422 99.7373C59.9422 98.587 58.2031 98.587 58.2031 99.7373V104.619C58.2031 106.779 59.9703 108.519 62.102 108.519H75.3415C77.5014 108.519 79.2405 106.751 79.2405 104.619V99.7373C79.2405 98.587 77.5014 98.587 77.5014 99.7373V104.619C77.5014 105.825 76.5196 106.779 75.3415 106.779H62.102C60.8959 106.779 59.9422 105.797 59.9422 104.619V99.7373Z" fill="black"/>
<path d="M74.1915 39.8107C75.0049 40.0913 75.7903 40.3999 76.5476 40.7927L77.8099 39.5302C78.7636 38.5763 80.2783 38.5763 81.232 39.5302L85.5236 43.8227C86.4773 44.7766 86.4773 46.2916 85.5236 47.2454L84.2613 48.5079C84.654 49.2654 84.9626 50.051 85.2431 50.8646H87.0102C88.3566 50.8646 89.4225 51.9588 89.4225 53.2774V59.3654C89.4225 60.7121 88.3286 61.7782 87.0102 61.7782H85.2431C84.9626 62.5918 84.654 63.3774 84.2613 64.1349L85.5236 65.3974C86.4773 66.3512 86.4773 67.8662 85.5236 68.8201L81.232 73.1126C80.2783 74.0665 78.7636 74.0665 77.8099 73.1126L76.5476 71.8501C75.7903 72.2429 75.0049 72.5515 74.1915 72.8321V74.5996C74.1915 75.9462 73.0975 77.0123 71.7792 77.0123H65.6924C64.346 77.0123 63.2801 75.9182 63.2801 74.5996V72.8321C62.4667 72.5515 61.6813 72.2429 60.9239 71.8501L59.6617 73.1126C58.708 74.0665 57.1933 74.0665 56.2396 73.1126L51.948 68.8201C50.9943 67.8662 50.9943 66.3512 51.948 65.3974L53.2102 64.1349C52.8175 63.3774 52.509 62.5918 52.2285 61.7782H50.4614C49.115 61.7782 48.0491 60.684 48.0491 59.3654V53.2774C48.0491 51.9307 49.143 50.8646 50.4614 50.8646H52.2285C52.509 50.051 52.8175 49.2654 53.2102 48.5079L51.948 47.2454C50.9943 46.2916 50.9943 44.7766 51.948 43.8227L56.2396 39.5302C57.1933 38.5763 58.708 38.5763 59.6617 39.5302L60.9239 40.7927C61.6813 40.3999 62.4667 40.0913 63.2801 39.8107V38.0432C63.2801 36.6966 64.374 35.6305 65.6924 35.6305H71.7792C73.1256 35.6305 74.1915 36.7246 74.1915 38.0432V39.8107ZM74.7244 41.8588C72.1158 40.7646 72.4524 41.8307 72.4524 38.0432C72.4524 37.6785 72.1438 37.3699 71.7792 37.3699H65.6924C65.3277 37.3699 65.0192 37.6785 65.0192 38.0432V40.428C65.0192 40.8207 64.7667 41.1574 64.4021 41.2696C63.3362 41.5782 62.2142 41.9991 61.2325 42.5882C60.8959 42.8127 60.4471 42.7566 60.1666 42.476L58.4275 40.7646C58.175 40.5121 57.7262 40.5121 57.4738 40.7646L53.1822 45.0571C52.9297 45.3096 52.9297 45.7585 53.1822 46.011L54.8652 47.6943C55.1457 47.9468 55.2298 48.3957 55.0335 48.7324C54.5286 49.6582 53.9676 50.8365 53.7151 51.8746C53.631 52.2674 53.2944 52.576 52.8736 52.576H50.4614C50.0967 52.576 49.7882 52.8846 49.7882 53.2493V59.3374C49.7882 59.7021 50.0967 60.0107 50.4614 60.0107H52.8456C53.2383 60.0107 53.5749 60.2632 53.6871 60.6279C53.9956 61.694 54.4164 62.8162 55.0054 63.7982C55.2298 64.1348 55.1737 64.5837 54.8932 64.8643L53.1822 66.5757C52.9297 66.8282 52.9297 67.2771 53.1822 67.5296L57.4738 71.8221C57.7262 72.0746 58.175 72.0746 58.4275 71.8221L60.1105 70.1387C60.3629 69.8582 60.8117 69.774 61.1483 69.9704C62.074 70.4754 63.252 71.0365 64.2899 71.289C64.6826 71.3732 64.9911 71.7098 64.9911 72.1307V74.5434C64.9911 74.9082 65.2997 75.2168 65.6643 75.2168H71.7511C72.1158 75.2168 72.4243 74.9082 72.4243 74.5434V72.1587C72.4243 71.766 72.6768 71.4293 73.0414 71.3171C74.1073 71.0084 75.2293 70.5876 76.2111 69.9985C76.5476 69.774 76.9964 69.8301 77.2769 70.1107L78.988 71.8221C79.2404 72.0746 79.6892 72.0746 79.9417 71.8221L84.2333 67.5296C84.4857 67.2771 84.4857 66.8282 84.2333 66.5757L82.5503 64.8924C82.2698 64.6399 82.1857 64.191 82.382 63.8543C82.8869 62.9285 83.4479 61.7501 83.7003 60.7121C83.7845 60.3193 84.1211 60.0107 84.5418 60.0107H86.9541C87.3188 60.0107 87.6273 59.7021 87.6273 59.3374V53.2493C87.6273 52.8846 87.3188 52.576 86.9541 52.576H84.5699C84.1772 52.576 83.8406 52.3235 83.7284 51.9588C83.4198 50.8927 82.9991 49.7704 82.41 48.7885C82.1856 48.4518 82.2418 48.0029 82.5223 47.7224L84.2333 46.011C84.4857 45.7585 84.4857 45.3096 84.2333 45.0571L79.9978 40.7646C79.7453 40.5121 79.2965 40.5121 79.0441 40.7646L77.3611 42.448C77.1086 42.7285 76.6598 42.8127 76.3232 42.6163C75.7903 42.3357 75.2574 42.0832 74.7244 41.8588Z" fill="black"/>
<path d="M75.7905 52.5199C76.2674 52.5199 76.6601 52.1271 76.6601 51.6502C76.6601 51.1732 76.2674 50.7805 75.7905 50.7805H71.2184C70.7416 50.7805 70.3489 51.1732 70.3489 51.6502C70.3489 52.1271 70.7416 52.5199 71.2184 52.5199H75.7905Z" fill="black"/>
<path d="M60.7557 45.1132H76.7441C77.6417 45.1132 78.4551 45.4779 79.0442 46.0671C79.6332 46.6563 79.9979 47.4699 79.9979 48.3677V64.3593C79.9979 65.2571 79.6332 66.0707 79.0442 66.6598C78.4551 67.249 77.6417 67.6137 76.7441 67.6137H60.7557C59.8581 67.6137 59.0447 67.249 58.4556 66.6598C57.8666 66.0707 57.502 65.2571 57.502 64.3593V48.3677C57.502 47.4699 57.8666 46.6563 58.4556 46.0671C59.0447 45.4779 59.8581 45.1132 60.7557 45.1132ZM76.716 46.8527H60.7277C60.3069 46.8527 59.9423 47.021 59.6618 47.3015C59.3813 47.5821 59.213 47.9468 59.213 48.3677V64.3593C59.213 64.7801 59.3813 65.1448 59.6618 65.4254C59.9423 65.706 60.3069 65.8743 60.7277 65.8743H76.716C77.1368 65.8743 77.5014 65.706 77.7819 65.4254C78.0624 65.1448 78.2307 64.7801 78.2307 64.3593V48.3677C78.2307 47.9468 78.0624 47.5821 77.7819 47.3015C77.5014 47.021 77.1368 46.8527 76.716 46.8527Z" fill="black"/>
<path d="M60.8679 60.7121C60.6996 61.161 60.924 61.666 61.3728 61.8343C61.8216 62.0026 62.3265 61.7782 62.4948 61.3293L65.2998 54.0629L68.1047 61.3293C68.273 61.7782 68.7779 62.0026 69.2267 61.8343C69.6755 61.666 69.8999 61.161 69.7316 60.7121L66.1412 51.4257C66.0571 51.1732 65.8888 50.9768 65.6364 50.8646C65.1876 50.6963 64.6827 50.9207 64.5144 51.3696L60.8679 60.7121Z" fill="black"/>
<path d="M67.7682 58.8885C68.2451 58.8885 68.6378 58.4957 68.6378 58.0188C68.6378 57.5418 68.2451 57.149 67.7682 57.149H62.8315C62.3546 57.149 61.9619 57.5418 61.9619 58.0188C61.9619 58.4957 62.3546 58.8885 62.8315 58.8885H67.7682Z" fill="black"/>
<path d="M75.7905 61.8904C76.2674 61.8904 76.6601 61.4976 76.6601 61.0207C76.6601 60.5437 76.2674 60.151 75.7905 60.151H71.2184C70.7416 60.151 70.3489 60.5437 70.3489 61.0207C70.3489 61.4976 70.7416 61.8904 71.2184 61.8904H75.7905Z" fill="black"/>
<path d="M74.388 51.6502C74.388 51.1732 73.9953 50.7805 73.5185 50.7805C73.0416 50.7805 72.6489 51.1732 72.6489 51.6502V60.9927C72.6489 61.4696 73.0416 61.8624 73.5185 61.8624C73.9953 61.8624 74.388 61.4696 74.388 60.9927V51.6502Z" fill="black"/>
<path d="M105.074 39.1655C105.074 40.1193 104.682 40.9891 104.065 41.6063C103.447 42.2235 102.578 42.6163 101.624 42.6163C100.67 42.6163 99.801 42.2235 99.1839 41.6063C98.5668 40.9891 98.1741 40.1193 98.1741 39.1655C98.1741 38.2116 98.5668 37.3418 99.1839 36.7246C99.801 36.1074 100.67 35.7146 101.624 35.7146C102.578 35.7146 103.447 36.1074 104.065 36.7246C104.682 37.3418 105.074 38.2116 105.074 39.1655ZM102.83 40.3718C103.139 40.0632 103.335 39.6424 103.335 39.1655C103.335 38.6885 103.139 38.2677 102.83 37.9591C102.522 37.6505 102.101 37.4541 101.624 37.4541C101.147 37.4541 100.727 37.6505 100.418 37.9591C100.11 38.2677 99.9132 38.6885 99.9132 39.1655C99.9132 39.6424 100.11 40.0632 100.418 40.3718C100.727 40.6805 101.147 40.8768 101.624 40.8768C102.101 40.8768 102.522 40.6805 102.83 40.3718Z" fill="black"/>
<path d="M34.1365 39.1655C34.1365 39.6424 34.3329 40.0632 34.6414 40.3718C34.95 40.6805 35.3707 40.8768 35.8476 40.8768C36.3244 40.8768 36.7452 40.6805 37.0537 40.3718C37.3623 40.0632 37.5586 39.6424 37.5586 39.1655C37.5586 38.6885 37.3623 38.2677 37.0537 37.9591C36.7452 37.6505 36.3244 37.4541 35.8476 37.4541C35.3707 37.4541 34.95 37.6505 34.6414 37.9591C34.3329 38.2677 34.1365 38.6885 34.1365 39.1655ZM33.4073 41.6063C32.7902 40.9891 32.3975 40.1193 32.3975 39.1655C32.3975 38.2116 32.7902 37.3418 33.4073 36.7246C34.0243 36.1074 34.8939 35.7146 35.8476 35.7146C36.8013 35.7146 37.6708 36.1074 38.2879 36.7246C38.905 37.3418 39.2977 38.2116 39.2977 39.1655C39.2977 40.1193 38.905 40.9891 38.2879 41.6063C37.6708 42.2235 36.8013 42.6163 35.8476 42.6163C34.8939 42.6163 34.0243 42.2235 33.4073 41.6063Z" fill="black"/>
<path d="M36.7171 41.7466C36.7171 41.2696 36.3244 40.8769 35.8476 40.8769C35.3707 40.8769 34.978 41.2696 34.978 41.7466V47.2455C34.978 47.7224 35.3707 48.1152 35.8476 48.1152H44.7113C45.1881 48.1152 45.5808 47.7224 45.5808 47.2455C45.5808 46.7685 45.1881 46.3757 44.7113 46.3757H36.7171V41.7466ZM92.7606 46.3757C92.2837 46.3757 91.891 46.7685 91.891 47.2455C91.891 47.7224 92.2837 48.1152 92.7606 48.1152H101.624C102.101 48.1152 102.494 47.7224 102.494 47.2455V41.7466C102.494 41.2696 102.101 40.8769 101.624 40.8769C101.147 40.8769 100.755 41.2696 100.755 41.7466V46.3757H92.7606Z" fill="black"/>
<path d="M108.496 56.3354C108.496 57.2893 108.104 58.159 107.487 58.7763C106.87 59.3935 106 59.7863 105.046 59.7863C104.093 59.7863 103.223 59.3935 102.606 58.7763C101.989 58.159 101.596 57.2893 101.596 56.3354C101.596 55.3816 101.989 54.5118 102.606 53.8946C103.223 53.2774 104.093 52.8846 105.046 52.8846C106 52.8846 106.87 53.2774 107.487 53.8946C108.104 54.5118 108.496 55.3816 108.496 56.3354ZM106.252 57.5418C106.561 57.2332 106.757 56.8124 106.757 56.3354C106.757 55.8585 106.561 55.4377 106.252 55.1291C105.944 54.8204 105.523 54.6241 105.046 54.6241C104.569 54.6241 104.149 54.8204 103.84 55.1291C103.532 55.4377 103.335 55.8585 103.335 56.3354C103.335 56.8124 103.532 57.2332 103.84 57.5418C104.149 57.8504 104.569 58.0468 105.046 58.0468C105.523 58.0468 105.944 57.8504 106.252 57.5418Z" fill="black"/>
<path d="M35.8756 56.3354C35.8756 57.2893 35.4829 58.159 34.8658 58.7763C34.2487 59.3935 33.3792 59.7863 32.4255 59.7863C31.4718 59.7863 30.6022 59.3935 29.9851 58.7763C29.368 58.159 28.9753 57.2893 28.9753 56.3354C28.9753 55.3816 29.368 54.5118 29.9851 53.8946C30.6022 53.2774 31.4718 52.8846 32.4255 52.8846C33.3792 52.8846 34.2487 53.2774 34.8658 53.8946C35.4829 54.5118 35.8756 55.3816 35.8756 56.3354ZM33.6316 57.5418C33.9402 57.2332 34.1365 56.8124 34.1365 56.3354C34.1365 55.8585 33.9402 55.4377 33.6316 55.1291C33.3231 54.8204 32.9023 54.6241 32.4255 54.6241C31.9486 54.6241 31.5279 54.8204 31.2193 55.1291C30.9108 55.4377 30.7144 55.8585 30.7144 56.3354C30.7144 56.8124 30.9108 57.2332 31.2193 57.5418C31.5279 57.8504 31.9486 58.0468 32.4255 58.0468C32.9023 58.0468 33.3231 57.8504 33.6316 57.5418Z" fill="black"/>
<path d="M35.006 55.4657C34.5292 55.4657 34.1365 55.8585 34.1365 56.3354C34.1365 56.8124 34.5292 57.2051 35.006 57.2051H43.0002C43.4771 57.2051 43.8697 56.8124 43.8697 56.3354C43.8697 55.8585 43.4771 55.4657 43.0002 55.4657H35.006ZM94.4715 55.4657C93.9947 55.4657 93.602 55.8585 93.602 56.3354C93.602 56.8124 93.9947 57.2051 94.4715 57.2051H102.466C102.943 57.2051 103.335 56.8124 103.335 56.3354C103.335 55.8585 102.943 55.4657 102.466 55.4657H94.4715Z" fill="black"/>
<path d="M103.335 73.5054C103.335 73.0284 103.139 72.6076 102.83 72.299C102.522 71.9904 102.101 71.794 101.624 71.794C101.147 71.794 100.727 71.9904 100.418 72.299C100.11 72.6076 99.9132 73.0284 99.9132 73.5054C99.9132 73.9823 100.11 74.4032 100.418 74.7118C100.727 75.0204 101.147 75.2168 101.624 75.2168C102.101 75.2168 102.522 75.0204 102.83 74.7118C103.139 74.4032 103.335 73.9823 103.335 73.5054ZM104.065 71.0646C104.682 71.6818 105.074 72.5515 105.074 73.5054C105.074 74.4593 104.682 75.329 104.065 75.9462C103.447 76.5634 102.578 76.9562 101.624 76.9562C100.67 76.9562 99.801 76.5634 99.1839 75.9462C98.5668 75.329 98.1741 74.4593 98.1741 73.5054C98.1741 72.5515 98.5668 71.6818 99.1839 71.0646C99.801 70.4473 100.67 70.0546 101.624 70.0546C102.578 70.0546 103.447 70.4473 104.065 71.0646Z" fill="black"/>
<path d="M32.3975 73.5054C32.3975 72.5515 32.7902 71.6818 33.4073 71.0646C34.0243 70.4473 34.8939 70.0546 35.8476 70.0546C36.8013 70.0546 37.6708 70.4473 38.2879 71.0646C38.905 71.6818 39.2977 72.5515 39.2977 73.5054C39.2977 74.4593 38.905 75.329 38.2879 75.9462C37.6708 76.5634 36.8013 76.9562 35.8476 76.9562C34.8939 76.9562 34.0243 76.5634 33.4073 75.9462C32.7902 75.329 32.3975 74.4593 32.3975 73.5054ZM34.6414 72.299C34.3329 72.6076 34.1365 73.0284 34.1365 73.5054C34.1365 73.9823 34.3329 74.4032 34.6414 74.7118C34.95 75.0204 35.3707 75.2168 35.8476 75.2168C36.3244 75.2168 36.7452 75.0204 37.0537 74.7118C37.3623 74.4032 37.5586 73.9823 37.5586 73.5054C37.5586 73.0284 37.3623 72.6076 37.0537 72.299C36.7452 71.9904 36.3244 71.794 35.8476 71.794C35.3707 71.794 34.95 71.9904 34.6414 72.299Z" fill="black"/>
<path d="M34.978 70.9243C34.978 71.4012 35.3707 71.794 35.8476 71.794C36.3244 71.794 36.7171 71.4012 36.7171 70.9243V66.2951H44.4869C44.9637 66.2951 45.3564 65.9024 45.3564 65.4254C45.3564 64.9485 44.9637 64.5557 44.4869 64.5557H35.8476C35.3707 64.5557 34.978 64.9485 34.978 65.4254V70.9243ZM92.985 64.5557C92.5081 64.5557 92.1154 64.9485 92.1154 65.4254C92.1154 65.9024 92.5081 66.2951 92.985 66.2951H100.755V70.9243C100.755 71.4012 101.147 71.794 101.624 71.794C102.101 71.794 102.494 71.4012 102.494 70.9243V65.4254C102.494 64.9485 102.101 64.5557 101.624 64.5557H92.985Z" fill="black"/>
<path d="M68.75 137.5C59.4655 137.5 50.4615 135.704 41.9905 132.085C33.8 128.606 26.4509 123.669 20.1397 117.356C13.8285 111.044 8.86373 103.721 5.41361 95.5009C1.85129 87.0282 0 78.0504 0 68.764C0 59.4777 1.79519 50.4718 5.41361 41.9991C8.89178 33.8069 13.8285 26.4563 20.1397 20.1438C26.4509 13.8314 33.8 8.86554 41.9905 5.41471C50.4615 1.82361 59.4655 0 68.75 0C78.0345 0 87.0385 1.79555 95.5095 5.41471C103.672 8.86554 111.049 13.8314 117.36 20.1438C123.671 26.4563 128.636 33.8069 132.086 41.9991C135.677 50.4718 137.5 59.4777 137.5 68.764C137.5 78.0504 135.705 87.0562 132.086 95.529C128.636 103.693 123.671 111.072 117.36 117.384C111.049 123.697 103.7 128.663 95.5095 132.113C87.0104 135.676 78.0064 137.5 68.75 137.5ZM68.75 1.82361C31.8645 1.82361 1.85129 31.871 1.85129 68.764C1.85129 105.657 31.8645 135.704 68.7781 135.704C105.692 135.704 135.705 105.685 135.705 68.764C135.705 31.843 105.635 1.82361 68.75 1.82361Z" fill="black"/>
</g>
<defs>
<clipPath id="clip0_2695_11211">
<rect width="137.5" height="137.5" fill="white"/>
</clipPath>
</defs>
</svg>
