<svg width="1024" height="302" viewBox="0 0 1024 302" fill="none" xmlns="http://www.w3.org/2000/svg">
<g clip-path="url(#clip0_2114_14439)">
<path d="M1024 0H0V302H1024V0Z" fill="#EFF1F3"/>
<path d="M405.99 222.384H396.491C395.914 222.384 395.449 221.915 395.449 221.342V216.736C394.252 216.385 393.085 215.912 391.972 215.326L389.344 218.497C389.168 218.711 388.917 218.844 388.641 218.87C388.365 218.899 388.093 218.811 387.879 218.635L380.565 212.582C380.121 212.213 380.058 211.557 380.427 211.113L383.774 207.072C382.946 205.47 382.352 203.763 382 201.989H378.899C378.322 201.989 377.857 201.52 377.857 200.947V191.45C377.857 190.873 378.326 190.409 378.899 190.409H383.293C383.573 189.781 383.887 189.166 384.23 188.572L381.603 185.397C381.427 185.183 381.343 184.911 381.368 184.635C381.393 184.359 381.527 184.108 381.741 183.928L389.059 177.875C389.273 177.699 389.549 177.611 389.821 177.64C390.097 177.666 390.348 177.799 390.528 178.013L392.792 180.749C393.65 180.347 394.545 180.013 395.453 179.745V176.151C395.453 175.578 395.922 175.109 396.495 175.109H405.994C406.571 175.109 407.036 175.578 407.036 176.151V179.95C407.94 180.251 408.827 180.623 409.681 181.058L412.2 178.017C412.564 177.574 413.225 177.511 413.668 177.879L420.983 183.933C421.196 184.108 421.33 184.359 421.355 184.64C421.38 184.916 421.301 185.188 421.121 185.401L417.966 189.212C418.175 189.61 418.372 190.011 418.552 190.413H424.611C425.188 190.413 425.653 190.881 425.653 191.455V200.951C425.653 201.524 425.184 201.993 424.611 201.993H419.845C419.522 203.629 418.987 205.214 418.255 206.708L421.903 211.117C422.272 211.561 422.209 212.218 421.765 212.586L414.447 218.639C414.003 219.008 413.342 218.945 412.978 218.501L410.204 215.146C409.191 215.703 408.128 216.171 407.032 216.535V221.342C407.032 221.915 406.563 222.384 405.99 222.384ZM391.888 214.54C391.942 214.54 392.001 214.552 392.055 214.581C393.273 215.242 394.562 215.765 395.893 216.138C396.043 216.18 396.148 216.318 396.148 216.472V221.338C396.148 221.53 396.303 221.685 396.495 221.685H405.994C406.186 221.685 406.341 221.53 406.341 221.338V216.28C406.341 216.129 406.438 215.995 406.584 215.949C407.81 215.56 409.003 215.037 410.12 214.397C410.266 214.314 410.45 214.347 410.559 214.477L413.518 218.054C413.639 218.2 413.861 218.221 414.007 218.1L421.322 212.046C421.468 211.925 421.489 211.703 421.368 211.557L417.572 206.971C417.485 206.867 417.468 206.716 417.531 206.595C418.33 205.014 418.895 203.323 419.213 201.579C419.242 201.416 419.389 201.294 419.556 201.294H424.611C424.803 201.294 424.958 201.14 424.958 200.947V191.45C424.958 191.258 424.803 191.103 424.611 191.103H418.326C418.188 191.103 418.062 191.019 418.008 190.894C417.782 190.371 417.526 189.848 417.246 189.334C417.179 189.208 417.192 189.053 417.284 188.944L420.585 184.953C420.644 184.882 420.673 184.79 420.665 184.698C420.656 184.606 420.61 184.522 420.539 184.464L413.225 178.41C413.074 178.289 412.857 178.31 412.735 178.456L410.04 181.715C409.936 181.841 409.756 181.878 409.609 181.799C408.639 181.289 407.626 180.862 406.588 180.531C406.446 180.485 406.345 180.351 406.345 180.201V176.151C406.345 175.959 406.191 175.804 405.998 175.804H396.499C396.307 175.804 396.152 175.959 396.152 176.151V180.008C396.152 180.163 396.047 180.301 395.897 180.343C394.851 180.636 393.825 181.021 392.85 181.494C392.708 181.565 392.532 181.527 392.432 181.401L389.992 178.456C389.934 178.385 389.85 178.339 389.758 178.331C389.658 178.322 389.574 178.352 389.503 178.41L382.188 184.464C382.117 184.522 382.075 184.606 382.067 184.698C382.059 184.79 382.088 184.882 382.142 184.953L384.929 188.317C385.025 188.43 385.034 188.589 384.959 188.719C384.54 189.417 384.168 190.149 383.845 190.894C383.791 191.024 383.666 191.103 383.527 191.103H378.904C378.711 191.103 378.556 191.258 378.556 191.45V200.947C378.556 201.14 378.711 201.294 378.904 201.294H382.293C382.46 201.294 382.607 201.416 382.636 201.579C382.975 203.457 383.603 205.265 384.502 206.951C384.569 207.076 384.553 207.227 384.465 207.335L380.971 211.557C380.849 211.703 380.87 211.925 381.017 212.046L388.331 218.1C388.402 218.158 388.49 218.183 388.586 218.179C388.679 218.171 388.762 218.125 388.821 218.054L391.629 214.665C391.687 214.586 391.788 214.54 391.888 214.54ZM400.918 210.268C394.286 210.268 388.888 204.871 388.888 198.24C388.888 191.609 394.286 186.213 400.918 186.213C407.551 186.213 412.949 191.609 412.949 198.24C412.949 204.875 407.555 210.268 400.918 210.268ZM400.918 186.911C394.667 186.911 389.582 191.994 389.582 198.245C389.582 204.495 394.667 209.578 400.918 209.578C407.17 209.578 412.254 204.495 412.254 198.245C412.254 191.994 407.17 186.911 400.918 186.911Z" fill="#121924"/>
<path d="M622.321 185.095H617.676C617.295 185.095 616.99 184.786 616.99 184.409V182.288C616.484 182.129 615.99 181.933 615.513 181.69L614.32 183.133C614.078 183.426 613.642 183.468 613.354 183.225L609.776 180.263C609.634 180.146 609.546 179.983 609.529 179.799C609.512 179.615 609.567 179.439 609.684 179.297L611.245 177.41C610.881 176.686 610.613 175.917 610.445 175.126H609.073C608.692 175.126 608.387 174.816 608.387 174.44V169.796C608.387 169.415 608.696 169.11 609.073 169.11H611.107C611.215 168.871 611.337 168.637 611.467 168.407L610.257 166.947C610.014 166.654 610.056 166.219 610.349 165.981L613.927 163.019C614.22 162.78 614.655 162.818 614.894 163.111L615.915 164.345C616.266 164.19 616.622 164.052 616.99 163.939V162.312C616.99 161.931 617.3 161.625 617.676 161.625H622.321C622.702 161.625 623.007 161.935 623.007 162.312V164.044C623.371 164.169 623.727 164.32 624.074 164.491L625.217 163.111C625.459 162.818 625.895 162.776 626.183 163.019L629.761 165.981C630.054 166.223 630.092 166.658 629.853 166.947L628.384 168.721C628.451 168.851 628.514 168.98 628.573 169.11H631.422C631.803 169.11 632.109 169.419 632.109 169.796V174.44C632.109 174.82 631.799 175.126 631.422 175.126H629.238C629.083 175.854 628.845 176.557 628.527 177.23L630.238 179.301C630.355 179.443 630.41 179.619 630.393 179.803C630.376 179.987 630.288 180.15 630.146 180.267L626.568 183.229C626.275 183.472 625.84 183.43 625.602 183.137L624.338 181.61C623.911 181.836 623.463 182.033 623.007 182.192V184.418C623.007 184.79 622.698 185.095 622.321 185.095ZM615.421 180.903C615.475 180.903 615.534 180.916 615.588 180.945C616.174 181.263 616.793 181.514 617.429 181.694C617.58 181.736 617.685 181.874 617.685 182.029V184.409L622.325 184.401L622.317 181.933C622.317 181.782 622.413 181.648 622.56 181.602C623.145 181.414 623.719 181.167 624.254 180.857C624.401 180.774 624.585 180.807 624.694 180.937L626.142 182.686L629.711 179.724L627.853 177.49C627.765 177.385 627.748 177.234 627.811 177.113C628.196 176.356 628.464 175.544 628.619 174.708C628.648 174.544 628.794 174.423 628.962 174.423H631.435L631.427 169.783L628.359 169.792C628.221 169.792 628.096 169.708 628.041 169.583C627.932 169.327 627.811 169.076 627.677 168.834C627.61 168.708 627.623 168.553 627.715 168.445L629.33 166.491L625.752 163.542L624.443 165.136C624.338 165.265 624.154 165.294 624.012 165.219C623.547 164.972 623.062 164.767 622.564 164.613C622.417 164.567 622.321 164.433 622.321 164.282V162.303L617.68 162.312L617.689 164.19C617.689 164.345 617.584 164.483 617.434 164.525C616.931 164.667 616.442 164.851 615.973 165.077C615.831 165.148 615.655 165.11 615.555 164.985L614.362 163.542L610.793 166.504L612.157 168.139C612.253 168.252 612.262 168.411 612.186 168.541C611.985 168.871 611.805 169.223 611.651 169.583C611.596 169.708 611.471 169.792 611.333 169.792H609.077V174.431L610.73 174.423C610.897 174.423 611.044 174.544 611.073 174.708C611.236 175.611 611.538 176.477 611.969 177.285C612.036 177.41 612.019 177.561 611.931 177.669L610.224 179.736L613.801 182.686L615.166 181.029C615.22 180.949 615.32 180.903 615.421 180.903ZM619.84 179.171C616.496 179.171 613.776 176.452 613.776 173.109C613.776 169.767 616.496 167.047 619.84 167.047C623.183 167.047 625.903 169.767 625.903 173.109C625.903 176.452 623.183 179.171 619.84 179.171ZM619.84 167.742C616.881 167.742 614.471 170.147 614.471 173.109C614.471 176.067 616.877 178.477 619.84 178.477C622.798 178.477 625.208 176.071 625.208 173.109C625.208 170.152 622.798 167.742 619.84 167.742Z" fill="#121924"/>
<path d="M553.843 63.2409H545.985C545.474 63.2409 545.06 62.8268 545.06 62.3164V58.5512C544.093 58.2625 543.156 57.8818 542.261 57.4174L540.118 60.0029C539.963 60.1911 539.742 60.3083 539.495 60.3334C539.256 60.3585 539.009 60.2831 538.821 60.1242L532.766 55.1164C532.578 54.9575 532.461 54.7399 532.435 54.4931C532.41 54.2463 532.486 54.0078 532.645 53.8195L535.39 50.5061C534.716 49.2009 534.235 47.8077 533.942 46.3686H531.423C530.912 46.3686 530.498 45.9544 530.498 45.444V37.5873C530.498 37.0769 530.912 36.6627 531.423 36.6627H535.021C535.243 36.169 535.49 35.6837 535.762 35.211L533.611 32.613C533.285 32.2197 533.343 31.6382 533.733 31.3119L539.788 26.3042C540.181 25.982 540.763 26.0364 541.089 26.4255L542.934 28.6553C543.621 28.3374 544.336 28.0696 545.06 27.8521V24.9236C545.06 24.4132 545.474 23.999 545.985 23.999H553.843C554.354 23.999 554.768 24.4132 554.768 24.9236V28.0236C555.488 28.2663 556.199 28.5633 556.877 28.9063L558.932 26.4255C559.258 26.0322 559.84 25.9778 560.233 26.3042L566.288 31.3119C566.476 31.4667 566.594 31.6884 566.619 31.9353C566.644 32.1821 566.568 32.4206 566.414 32.6088L563.828 35.7298C563.987 36.0352 564.137 36.3447 564.279 36.6585H569.255C569.765 36.6585 570.18 37.0727 570.18 37.5831V45.4398C570.18 45.9502 569.765 46.3644 569.255 46.3644H565.359C565.091 47.6948 564.66 48.9791 564.066 50.1966L567.062 53.8154C567.221 54.0036 567.292 54.2463 567.271 54.4889C567.246 54.7357 567.133 54.9575 566.941 55.1123L560.886 60.1242C560.698 60.2831 560.455 60.3585 560.212 60.3292C559.965 60.3041 559.743 60.1911 559.589 59.9987L557.325 57.2626C556.509 57.7061 555.655 58.0826 554.776 58.3796V62.3122C554.768 62.8268 554.354 63.2409 553.843 63.2409ZM542.177 56.6309C542.231 56.6309 542.29 56.6434 542.344 56.6727C543.349 57.2166 544.411 57.6517 545.508 57.9571C545.658 57.9989 545.763 58.137 545.763 58.2918V62.3164C545.763 62.4419 545.868 62.5465 545.989 62.5465H553.848C553.973 62.5465 554.078 62.4461 554.078 62.3164V58.1328C554.078 57.9822 554.174 57.8483 554.32 57.8023C555.333 57.4802 556.312 57.0493 557.233 56.5221C557.379 56.4385 557.563 56.4719 557.672 56.6016L560.124 59.5594C560.162 59.6054 560.216 59.6347 560.279 59.6389C560.338 59.6431 560.4 59.6263 560.446 59.5887L566.501 54.5768C566.547 54.5391 566.577 54.4847 566.581 54.422C566.585 54.3592 566.568 54.3006 566.531 54.2546L563.392 50.4601C563.304 50.3555 563.288 50.2049 563.351 50.0836C564.007 48.7825 564.476 47.3894 564.736 45.9502C564.765 45.7871 564.911 45.6657 565.079 45.6657H569.259C569.385 45.6657 569.489 45.5653 569.489 45.4398V37.5831C569.489 37.4576 569.385 37.353 569.259 37.353H564.058C563.92 37.353 563.794 37.2693 563.74 37.1438C563.551 36.7087 563.338 36.2736 563.112 35.8553C563.045 35.7298 563.058 35.575 563.15 35.4662L565.882 32.1654C565.92 32.1193 565.937 32.0608 565.932 31.998C565.928 31.9353 565.899 31.8809 565.853 31.8432L559.798 26.8355C559.702 26.756 559.555 26.7685 559.476 26.8648L557.245 29.559C557.141 29.6845 556.961 29.7221 556.814 29.6427C556.019 29.2201 555.178 28.8687 554.325 28.5968C554.178 28.5507 554.082 28.4169 554.082 28.2663V24.9152C554.082 24.7897 553.977 24.6851 553.852 24.6851H545.993C545.868 24.6851 545.767 24.7897 545.767 24.9152V28.1073C545.767 28.2621 545.663 28.4001 545.512 28.442C544.654 28.6804 543.809 29.0026 543.001 29.3916C542.859 29.4628 542.683 29.4251 542.583 29.2996L540.566 26.8606C540.486 26.7644 540.34 26.7518 540.244 26.8313L534.18 31.8516C534.084 31.9311 534.072 32.0775 534.151 32.1737L536.457 34.9558C536.553 35.0688 536.561 35.2277 536.486 35.3532C536.139 35.9306 535.833 36.533 535.57 37.148C535.515 37.2777 535.39 37.3572 535.252 37.3572H531.427C531.301 37.3572 531.201 37.4576 531.201 37.5873V45.444C531.201 45.5695 531.301 45.6699 531.427 45.6699H534.231C534.398 45.6699 534.544 45.7913 534.574 45.9544C534.854 47.5023 535.373 48.9917 536.109 50.3806C536.176 50.5061 536.16 50.6567 536.072 50.7655L533.18 54.2588C533.143 54.3048 533.126 54.3634 533.13 54.4261C533.134 54.4889 533.164 54.5433 533.21 54.5809L539.265 59.5887C539.311 59.6263 539.373 59.6473 539.432 59.6389C539.495 59.6347 539.549 59.6054 539.587 59.5594L541.909 56.7522C541.976 56.6769 542.077 56.6309 542.177 56.6309ZM549.65 53.2171C544.127 53.2171 539.637 48.7239 539.637 43.2058C539.637 37.6835 544.131 33.1945 549.65 33.1945C555.174 33.1945 559.664 37.6877 559.664 43.2058C559.664 48.7239 555.17 53.2171 549.65 53.2171ZM549.65 33.889C544.512 33.889 540.332 38.0684 540.332 43.2058C540.332 48.3432 544.512 52.5226 549.65 52.5226C554.789 52.5226 558.969 48.3432 558.969 43.2058C558.969 38.0684 554.789 33.889 549.65 33.889Z" fill="#121924"/>
<path d="M452.922 195.421L450.365 109.335H575.683V194.994L453.106 195.262" fill="#0B0A10"/>
<g opacity="0.8">
<path d="M569.961 191.157H458.198L455.695 114.234H571.212L569.961 191.157Z" fill="#7EB951"/>
</g>
<path d="M436.885 220.192H592.255L575.684 194.994H452.711L436.885 220.192Z" fill="#B7B8FB"/>
<g opacity="0.68">
<path d="M436.885 220.192H592.255L575.684 194.994H452.711L436.885 220.192Z" fill="#0B0A10"/>
</g>
<path d="M574.618 201.181H452.493C452.447 201.181 452.41 201.156 452.389 201.114C452.368 201.072 452.376 201.026 452.405 200.993L454.749 198.223C454.77 198.198 454.803 198.181 454.837 198.181H572.166C572.199 198.181 572.228 198.194 572.253 198.219L574.706 200.988C574.735 201.022 574.743 201.072 574.722 201.11C574.701 201.156 574.66 201.181 574.618 201.181ZM452.74 200.951H574.362L572.115 198.411H454.891L452.74 200.951Z" fill="white"/>
<path d="M578.988 207.573H448.712C448.666 207.573 448.624 207.548 448.603 207.51C448.582 207.472 448.582 207.422 448.607 207.385L450.532 204.414C450.553 204.381 450.595 204.36 450.637 204.36H576.36C576.393 204.36 576.427 204.377 576.452 204.402L579.08 207.372C579.113 207.41 579.118 207.46 579.101 207.502C579.08 207.548 579.034 207.573 578.988 207.573ZM448.938 207.33H578.716L576.306 204.607H450.704L448.938 207.33Z" fill="white"/>
<path d="M548.458 215.174H474.928C474.899 215.174 474.87 215.158 474.849 215.133C474.832 215.107 474.824 215.074 474.836 215.045L475.924 211.689C475.937 211.648 475.974 211.623 476.016 211.623H546.977C547.015 211.623 547.052 211.648 547.065 211.681L548.546 215.036C548.559 215.066 548.554 215.103 548.538 215.128C548.521 215.158 548.492 215.174 548.458 215.174ZM475.062 214.978H548.308L546.91 211.819H476.087L475.062 214.978Z" fill="white"/>
<path d="M583.483 104.663C591.886 107.01 599.209 107.093 599.836 104.851C600.464 102.608 594.162 98.8809 585.755 96.5339C577.353 94.187 570.03 94.1033 569.402 96.3457C568.775 98.5881 575.081 102.311 583.483 104.663Z" fill="#050004"/>
<path d="M594.836 106.816C594.748 106.816 594.66 106.816 594.573 106.816C591.455 106.783 587.484 106.13 583.392 104.988C579.299 103.846 575.567 102.34 572.884 100.754C570.901 99.5826 568.633 97.8506 569.081 96.2525C569.876 93.3993 578.316 94.1021 585.848 96.2064C593.38 98.3108 600.958 102.089 600.159 104.942C599.732 106.477 597.087 106.816 594.836 106.816ZM583.576 104.335C587.614 105.465 591.522 106.105 594.581 106.138C597.426 106.18 599.263 105.653 599.514 104.753C600.008 102.984 594.443 99.3023 585.668 96.8507C576.893 94.3991 570.223 94.6585 569.729 96.4324C569.478 97.3318 570.788 98.7291 573.227 100.172C575.864 101.729 579.538 103.21 583.576 104.335Z" fill="white"/>
<path d="M586.97 84.1788C586.644 84.1035 586.363 83.8776 586.204 83.5847L586.07 83.3379C586.736 82.2794 587.363 81.1959 587.865 80.0538C588.64 78.2841 589.242 76.389 590.531 74.9038C591.355 73.9541 593.464 72.9626 594.36 74.4896C594.364 74.498 594.364 74.5022 594.368 74.5105C592.661 78.8573 590.761 82.3966 589.435 84.5218C588.648 84.4884 587.828 84.3838 586.97 84.1788Z" fill="white"/>
<path d="M589.437 84.857C589.433 84.857 589.429 84.857 589.425 84.857C588.563 84.8194 587.734 84.7064 586.893 84.5098C586.474 84.4136 586.115 84.1333 585.905 83.7442L585.771 83.4974C585.713 83.3886 585.717 83.2589 585.784 83.1585C586.583 81.8909 587.127 80.891 587.554 79.9204C587.713 79.5564 587.864 79.1883 588.014 78.8201C588.604 77.3851 589.215 75.9042 590.274 74.6868C590.889 73.9797 592.124 73.2769 593.182 73.3773C593.814 73.4359 594.32 73.7622 594.651 74.3228C594.697 74.4106 594.718 74.5445 594.684 74.6365C592.655 79.8033 590.538 83.3969 589.722 84.7022C589.659 84.7984 589.55 84.857 589.437 84.857ZM586.458 83.3509L586.5 83.4262C586.617 83.6396 586.822 83.8027 587.048 83.853C587.78 84.0245 588.508 84.1333 589.257 84.1751C590.119 82.7778 592.086 79.3723 593.994 74.5487C593.776 74.2433 593.492 74.0801 593.119 74.0467C592.308 73.9755 591.295 74.5361 590.785 75.1302C589.797 76.2681 589.207 77.6947 588.638 79.0795C588.483 79.4518 588.332 79.8242 588.169 80.1923C587.751 81.1504 587.219 82.1335 586.458 83.3509Z" fill="#050004"/>
<path d="M589.438 84.5207C590.764 82.3996 592.664 78.8603 594.371 74.5094C594.392 74.4592 594.409 74.4131 594.43 74.3629C594.898 73.1581 595.668 72.815 596.426 72.8401C597.535 72.8736 598.38 73.6559 598.698 74.6474C597.539 78.3959 595.576 81.4625 593.965 83.8136C592.597 84.3198 591.086 84.5876 589.438 84.5207Z" fill="white"/>
<path d="M589.947 84.8691C589.771 84.8691 589.6 84.8649 589.424 84.8565C589.303 84.8523 589.198 84.7812 589.139 84.6766C589.085 84.572 589.089 84.4423 589.152 84.3419C589.955 83.0534 592.048 79.5015 594.056 74.3892L594.115 74.2386C594.692 72.7618 595.713 72.4731 596.433 72.5024C597.617 72.5401 598.63 73.3391 599.015 74.544C599.036 74.6109 599.036 74.6821 599.015 74.7448C597.885 78.3971 596.052 81.3507 594.24 83.9989C594.203 84.0575 594.144 84.0993 594.081 84.1244C592.759 84.6181 591.374 84.8691 589.947 84.8691ZM596.349 73.176C595.613 73.176 595.086 73.6069 594.742 74.4854L594.684 74.636C592.872 79.2422 590.997 82.5974 590.035 84.1955C591.315 84.1871 592.562 83.9654 593.751 83.5345C595.496 80.9784 597.253 78.1335 598.345 74.6528C598.027 73.7784 597.282 73.2053 596.416 73.176C596.391 73.176 596.37 73.176 596.349 73.176Z" fill="#050004"/>
<path d="M593.965 83.811C595.572 81.4599 597.534 78.3975 598.698 74.6448C598.76 74.444 598.823 74.2432 598.882 74.0382C599.099 73.2559 599.539 72.5363 600.221 72.097C602.062 70.9172 603.723 72.5363 603.723 72.5363C603.824 72.6827 603.899 72.8542 603.962 73.0383C602.556 76.1342 599.329 81.8071 593.965 83.811Z" fill="white"/>
<path d="M593.967 84.1499C593.866 84.1499 593.766 84.1039 593.703 84.0202C593.611 83.9031 593.607 83.7441 593.691 83.6228C595.473 81.0164 597.277 78.1172 598.377 74.5486L598.411 74.4357C598.461 74.2725 598.511 74.1135 598.557 73.9462C598.817 73.0174 599.344 72.2602 600.039 71.8125C601.675 70.7625 603.315 71.6703 603.959 72.2937C604.11 72.5028 604.198 72.6869 604.282 72.9254C604.311 73.009 604.307 73.0969 604.269 73.1764C602.804 76.3894 599.536 82.0874 594.084 84.1248C594.046 84.1415 594.009 84.1499 593.967 84.1499ZM601.645 72.0008C601.26 72.0008 600.838 72.1012 600.407 72.3773C599.85 72.7329 599.423 73.3563 599.21 74.1261C599.164 74.2976 599.11 74.4649 599.059 74.6323L599.026 74.7452C598.03 77.9666 596.486 80.6441 594.892 83.0496C599.436 80.8323 602.256 75.9459 603.604 73.0216C603.558 72.9003 603.507 72.8041 603.449 72.7246C603.436 72.7204 602.671 72.0008 601.645 72.0008Z" fill="#050004"/>
<path d="M577.943 87.6977C578.219 86.9112 578.273 86.0661 578.102 85.2503L576.486 77.6153C576.252 76.4983 576.666 75.3478 577.558 74.6366C578.943 73.5363 580.985 73.9463 581.843 75.4942L586.073 83.3384L586.207 83.5853C586.366 83.8823 586.646 84.104 586.973 84.1793C587.831 84.3801 588.651 84.4847 589.442 84.5182C591.095 84.5893 592.601 84.3216 593.969 83.807C599.334 81.8031 602.556 76.1301 603.966 73.0343C604.104 72.7289 604.225 72.4486 604.33 72.2018C604.828 71.0053 605.824 70.043 607.088 69.7544C608.36 69.4615 609.891 69.7837 610.942 72.252C613.038 77.1886 598.589 92.2411 598.589 92.2411L594.735 110.544C591.295 116.037 572.666 102.713 572.666 102.713L577.943 87.6977Z" fill="white"/>
<path d="M591.808 112.214C585.431 112.214 573.016 103.391 572.459 102.993C572.338 102.906 572.287 102.751 572.338 102.609L577.623 87.5896C577.878 86.8616 577.928 86.0793 577.769 85.3263L576.154 77.6913C575.89 76.4404 576.346 75.1727 577.347 74.382C578.083 73.7963 579.037 73.5662 579.962 73.7503C580.887 73.9344 581.677 74.5159 582.134 75.3401L586.498 83.4311C586.615 83.6445 586.82 83.8076 587.046 83.8578C587.845 84.0461 588.632 84.1549 589.452 84.1883C590.967 84.2511 592.453 84.021 593.846 83.4981C599.072 81.5443 602.232 76.0178 603.654 72.9011C603.788 72.5998 603.91 72.3237 604.014 72.0811C604.579 70.7256 605.701 69.7341 607.006 69.4329C608.287 69.1358 610.069 69.3618 611.245 72.1271C613.354 77.0888 600.089 91.154 598.892 92.4132L595.059 110.624C595.051 110.662 595.039 110.7 595.013 110.733C594.557 111.465 593.838 111.93 592.879 112.122C592.545 112.185 592.189 112.214 591.808 112.214ZM573.057 102.592C574.827 103.83 587.473 112.503 592.745 111.457C593.503 111.306 594.047 110.967 594.407 110.419L598.248 92.1748C598.261 92.112 598.29 92.0576 598.336 92.0116C598.478 91.861 612.609 77.0637 610.622 72.3865C609.827 70.5122 608.659 69.7383 607.157 70.0855C606.061 70.3407 605.115 71.1816 604.634 72.3363C604.529 72.5873 604.408 72.8718 604.265 73.1772C602.801 76.3902 599.533 82.0882 594.08 84.1298C592.599 84.682 591.034 84.9288 589.423 84.8619C588.561 84.8242 587.732 84.7113 586.891 84.5147C586.473 84.4184 586.113 84.1381 585.908 83.7491L581.544 75.6622C581.184 75.0138 580.56 74.5578 579.828 74.4113C579.1 74.2649 578.347 74.449 577.761 74.9092C576.962 75.5409 576.597 76.5575 576.807 77.5532L578.422 85.1882C578.606 86.0626 578.547 86.9704 578.25 87.8155L573.057 102.592Z" fill="#050004"/>
<path d="M598.454 104.615C584.553 107.184 573.59 99.4486 570.46 96.9301C570.025 96.5787 569.376 96.7878 569.221 97.3233L560.89 125.885C556.333 120.772 549.449 117.664 542.089 117.593L535.528 117.53L490.753 117.907L490.745 117.881L489.561 117.911H489.168L489.163 117.919L485.556 118.007C477.12 118.212 469.53 124.542 467.22 133.913C467.128 134.289 467.04 134.674 466.965 135.059L459.713 192.094L482.104 192.169L496.788 192.244L555.634 192.056L555.563 183.183C566.271 184.187 576.954 179.539 583.043 170.49C585.235 167.231 586.813 163.503 587.608 159.449L599.642 105.849C599.806 105.13 599.178 104.481 598.454 104.615Z" fill="#333333"/>
<path d="M496.794 192.621L482.111 192.545L459.297 192.466L466.599 135.017C466.678 134.599 466.766 134.21 466.862 133.829C469.16 124.508 476.842 117.852 485.55 117.638L491.028 117.504L491.036 117.534L535.522 117.157L542.091 117.22C549.276 117.291 556.026 120.169 560.716 125.148L568.864 97.2225C568.973 96.8502 569.261 96.5573 569.629 96.4402C569.998 96.3272 570.395 96.4025 570.697 96.641C573.714 99.0675 584.623 106.795 598.39 104.251C598.854 104.167 599.327 104.318 599.653 104.657C599.98 104.996 600.114 105.473 600.009 105.933L587.974 159.533C587.188 163.549 585.635 167.31 583.355 170.699C577.392 179.564 566.918 184.475 555.942 183.592L556.013 192.432L496.794 192.621ZM460.138 191.725L482.111 191.801L496.794 191.876L555.264 191.688L555.193 182.772L555.603 182.81C566.458 183.827 576.852 179.028 582.735 170.28C584.957 166.975 586.476 163.306 587.242 159.374L599.277 105.765C599.327 105.548 599.264 105.33 599.109 105.171C598.954 105.012 598.741 104.941 598.515 104.983C584.434 107.585 573.299 99.6992 570.219 97.2225C570.111 97.1347 569.977 97.1096 569.847 97.1514C569.713 97.1932 569.613 97.2936 569.575 97.4317L561.055 126.637L560.608 126.135C556.042 121.015 549.289 118.04 542.079 117.969L535.517 117.906L490.463 118.287L490.459 118.266L485.563 118.387C477.19 118.592 469.796 125.018 467.578 134.013C467.486 134.385 467.402 134.762 467.327 135.142L460.138 191.725Z" fill="#020202"/>
<path d="M555.442 147.538C555.413 147.538 555.388 147.534 555.359 147.526C555.179 147.48 555.07 147.296 555.116 147.116L560.702 125.399C560.748 125.219 560.932 125.11 561.112 125.156C561.292 125.202 561.401 125.386 561.355 125.566L555.769 147.283C555.731 147.438 555.593 147.538 555.442 147.538Z" fill="#020202"/>
<path d="M594.117 115.975C590.59 115.975 584.506 115.305 577.668 111.645C577.505 111.557 577.442 111.352 577.53 111.189C577.618 111.025 577.823 110.963 577.986 111.051C588.489 116.677 597.109 115.109 597.197 115.092C597.377 115.058 597.557 115.176 597.59 115.36C597.624 115.544 597.507 115.719 597.323 115.753C597.293 115.761 596.113 115.975 594.117 115.975Z" fill="white"/>
<path d="M593.551 112.192C593.542 112.192 593.538 112.192 593.53 112.192C593.07 112.188 592.639 112.004 592.312 111.673C591.99 111.343 591.814 110.908 591.818 110.447C591.823 109.987 592.007 109.556 592.337 109.23C593.019 108.565 594.116 108.577 594.781 109.255C595.103 109.586 595.279 110.021 595.275 110.481C595.271 110.941 595.087 111.376 594.756 111.698C594.434 112.016 594.003 112.192 593.551 112.192ZM593.551 109.41C593.283 109.41 593.019 109.51 592.814 109.711C592.4 110.117 592.392 110.786 592.798 111.2C593.204 111.615 593.873 111.623 594.287 111.217C594.702 110.811 594.71 110.142 594.304 109.728C594.099 109.514 593.823 109.41 593.551 109.41Z" fill="white"/>
<path d="M496.469 77.9028C495.13 80.0071 495.109 82.693 496.176 84.9479L498.967 90.8551L498.833 90.8844C498.833 90.8844 501.745 106.146 508.984 102.138C510.273 101.427 511.252 100.511 512.001 99.49C513.918 100.272 516.006 100.716 518.203 100.712C527.103 100.703 534.326 93.5995 534.556 84.7597C535.464 84.6049 536.159 84.2576 536.489 83.6301C537.636 82.6051 538.477 81.2245 538.82 79.6055C539.682 75.5391 537.083 71.5479 533.02 70.6861C532.677 70.615 532.334 70.5732 531.995 70.5481C528.735 66.9962 526.605 63.3147 520.153 63.3858C517.345 63.4192 514.613 64.6869 513.014 67.0631C512.997 67.0882 512.993 67.1259 512.968 67.1426C512.688 67.3643 509.533 67.3518 509.097 67.4187C505.972 67.904 501.95 68.6947 500.088 71.5186C499.264 72.7654 498.879 74.238 498.649 75.7231C497.766 76.2795 497.025 77.0284 496.469 77.9028Z" fill="#050004"/>
<path d="M506.636 103.146C506.021 103.146 505.418 103.008 504.833 102.736C500.397 100.657 498.577 91.3443 498.501 90.951L498.439 90.6247L498.476 90.6164L495.869 85.094C494.719 82.6592 494.84 79.8353 496.183 77.7226C496.744 76.8398 497.493 76.0826 498.347 75.5262C498.535 74.3632 498.895 72.7274 499.815 71.3384C501.636 68.5815 505.331 67.6694 509.055 67.0921C509.214 67.067 509.59 67.0545 510.243 67.0335C511.001 67.0126 512.365 66.9708 512.741 66.8788C514.327 64.5192 517.102 63.0884 520.156 63.0508C525.868 62.9755 528.324 65.8245 530.935 68.8325C531.333 69.2927 531.739 69.7571 532.162 70.2214C532.513 70.2507 532.814 70.2926 533.099 70.3553C535.153 70.7904 536.915 71.9994 538.058 73.7607C539.204 75.522 539.593 77.6222 539.158 79.6763C538.815 81.2953 537.986 82.7345 536.764 83.8431C536.43 84.433 535.802 84.8347 534.89 85.0396C534.513 94.0301 527.236 101.042 518.21 101.05C518.206 101.05 518.202 101.05 518.194 101.05C516.11 101.05 514.068 100.665 512.118 99.8997C511.31 100.937 510.314 101.791 509.151 102.435C508.289 102.908 507.452 103.146 506.636 103.146ZM499.234 91.1477C499.598 92.8169 501.439 100.402 505.121 102.125C506.285 102.669 507.494 102.577 508.825 101.845C509.98 101.205 510.959 100.347 511.733 99.2931L511.888 99.0797L512.13 99.1801C514.072 99.975 516.11 100.377 518.19 100.377C518.194 100.377 518.198 100.377 518.202 100.377C526.952 100.368 533.99 93.5072 534.22 84.7552L534.229 84.479L534.501 84.433C535.371 84.2824 535.94 83.9603 536.191 83.4792L536.267 83.3829C537.405 82.3622 538.175 81.0318 538.493 79.5382C538.89 77.6598 538.535 75.7396 537.488 74.1289C536.442 72.5182 534.831 71.4137 532.952 71.0163C532.664 70.9536 532.35 70.9117 531.973 70.8866L531.839 70.8783L531.747 70.7778C531.287 70.2758 530.852 69.7738 530.421 69.2759C527.805 66.2638 525.563 63.6658 520.16 63.7243C517.323 63.7578 514.758 65.0756 513.298 67.2511C513.302 67.2553 513.269 67.3389 513.185 67.4059C512.963 67.5816 512.39 67.6402 510.264 67.7029C509.783 67.7155 509.285 67.7322 509.159 67.7531C505.59 68.3054 502.054 69.1672 500.38 71.7066C499.707 72.7274 499.263 74.0243 498.991 75.7772L498.966 75.932L498.832 76.0157C498.008 76.5261 497.288 77.2415 496.752 78.0865C495.53 80.0026 495.426 82.5797 496.48 84.8095L499.451 91.1058L499.234 91.1477Z" fill="#050004"/>
<path d="M533.798 81.3659C530.99 77.0819 530.563 76.8769 533.505 81.5165C530.526 83.1105 526.898 83.4619 523.496 82.1566C520.65 81.0689 518.47 79.0064 517.152 76.5088C517.587 78.2115 517.524 80.0565 516.851 81.8219C515.591 85.1144 512.566 87.202 509.268 87.4405L509.285 89.2812C509.289 89.892 509.222 90.4652 509.097 91.0049C507.687 89.7665 505.979 89.1013 504.197 89.2687C503.946 89.2938 503.703 89.3356 503.46 89.39C503.368 89.4109 503.28 89.436 503.188 89.4611C503.054 89.4988 502.921 89.5406 502.791 89.5908C502.665 89.6368 502.54 89.687 502.414 89.7372C501.958 89.9381 501.519 90.1849 501.109 90.4903L501.1 90.4652C498.991 91.9169 497.69 94.4145 497.941 97.1422C498.343 101.501 502.494 104.614 506.917 103.589C507.042 103.681 507.097 103.723 507.218 103.815L508.151 129.686L527.818 128.009C527.4 123.101 526.513 113.245 526.513 113.232C526.521 113.19 527.718 112.847 529.199 112.442C529.233 112.433 529.27 112.421 529.304 112.412C534.606 110.948 538.037 105.815 537.392 100.351C536.907 96.2343 536.443 92.0675 536.409 91.0091C536.317 87.6622 535.652 84.194 533.798 81.3659Z" fill="white"/>
<path d="M508.16 130.021C508.077 130.021 507.997 129.992 507.939 129.938C507.868 129.875 507.83 129.791 507.826 129.699L506.901 103.987L506.851 103.949C504.717 104.397 502.507 103.937 500.758 102.673C498.963 101.376 497.821 99.3725 497.615 97.1719C497.364 94.4358 498.628 91.7584 500.917 90.1853C500.951 90.1644 500.984 90.1477 501.022 90.1351C501.407 89.859 501.829 89.6205 502.281 89.4239C502.415 89.3695 502.545 89.3151 502.679 89.2691C502.817 89.2189 502.959 89.1729 503.101 89.1353C503.189 89.1101 503.285 89.0851 503.382 89.0599C503.687 88.9888 503.934 88.9512 504.168 88.9261C505.792 88.7755 507.441 89.29 508.872 90.3778C508.926 90.0096 508.951 89.6415 508.947 89.2775L508.93 87.4367C508.93 87.2568 509.064 87.1104 509.244 87.0979C512.508 86.8636 515.37 84.7425 516.538 81.6969C517.165 80.0611 517.266 78.2956 516.827 76.5887C516.785 76.4214 516.873 76.254 517.032 76.1913C517.191 76.1285 517.37 76.1996 517.45 76.3503C518.785 78.8813 520.973 80.8309 523.614 81.8433C526.677 83.0147 530.083 82.8432 533.025 81.3831C530.92 78.0613 530.978 78.0237 531.309 77.8103C531.635 77.6011 531.702 77.5509 534.079 81.1781C535.732 83.6966 536.632 86.9974 536.753 90.9886C536.778 91.8588 537.121 95.0801 537.736 100.301C538.406 105.983 534.899 111.208 529.405 112.726L529.3 112.756C527.802 113.17 527.158 113.358 526.882 113.446C527.024 115.015 527.786 123.524 528.162 127.971C528.179 128.155 528.041 128.319 527.857 128.335L508.19 130.013C508.181 130.017 508.173 130.021 508.16 130.021ZM506.926 103.251C506.997 103.251 507.068 103.272 507.127 103.318L507.428 103.543C507.512 103.602 507.558 103.698 507.562 103.803L508.483 129.323L527.463 127.704C527.058 122.985 526.283 114.337 526.196 113.354L526.187 113.262C526.183 113.228 526.187 113.195 526.191 113.166C526.246 112.91 526.246 112.91 529.121 112.12L529.313 112.417L529.225 112.095C534.401 110.664 537.699 105.744 537.067 100.397C536.439 95.0801 536.109 91.9257 536.079 91.0262C535.962 87.2945 535.155 84.1986 533.677 81.8182C533.673 81.8224 533.669 81.8224 533.665 81.8265C530.481 83.5293 526.731 83.7719 523.375 82.4876C521.107 81.6216 519.157 80.0987 517.747 78.1325C517.831 79.4294 517.634 80.7263 517.165 81.9604C515.944 85.1525 512.998 87.3991 509.608 87.763L509.621 89.2942C509.625 89.8925 509.562 90.4991 509.424 91.0932C509.399 91.2103 509.311 91.3023 509.198 91.34C509.085 91.3777 508.96 91.3526 508.872 91.2731C507.466 90.0389 505.863 89.4658 504.227 89.6205C504.022 89.6373 503.804 89.6749 503.537 89.7377C503.457 89.7586 503.373 89.7795 503.285 89.8046C503.152 89.8423 503.03 89.8841 502.905 89.926C502.783 89.9678 502.662 90.018 502.545 90.064C502.101 90.2564 501.683 90.4991 501.315 90.7752C501.277 90.8045 501.235 90.8212 501.189 90.8338C499.168 92.2771 498.055 94.6785 498.281 97.1301C498.465 99.1382 499.511 100.966 501.147 102.146C502.804 103.343 504.83 103.748 506.846 103.276C506.876 103.251 506.901 103.251 506.926 103.251Z" fill="#050004"/>
<path d="M521.03 113.969C518.452 113.986 516.025 113.346 513.883 112.208C517.473 119.036 527.152 119.588 527.152 119.588L526.579 112.861C524.855 113.555 522.992 113.957 521.03 113.969Z" fill="#050004"/>
<path d="M526.232 90.6931C526.157 91.2955 525.604 91.7223 525.002 91.6428C524.399 91.5675 523.972 91.0153 524.048 90.4128C524.123 89.8104 524.675 89.3837 525.278 89.4631C525.88 89.5384 526.307 90.0907 526.232 90.6931Z" fill="#050004"/>
<path d="M535.619 90.6965C535.552 91.232 535.062 91.6085 534.527 91.5416C533.991 91.4747 533.615 90.9852 533.682 90.4539C533.748 89.9184 534.238 89.5418 534.769 89.6088C535.309 89.6715 535.686 90.161 535.619 90.6965Z" fill="#050004"/>
<path d="M526.101 85.4763C525.783 85.6938 525.323 85.7398 524.883 85.8068C524.44 85.8653 523.992 85.9365 523.607 86.0159C523.222 86.0912 522.778 86.1916 522.347 86.3046C521.912 86.4092 521.469 86.5389 521.096 86.4552C520.736 86.3799 520.523 86.0076 520.82 85.4344C521.092 84.8822 521.954 84.171 523.23 83.9158C524.507 83.669 525.557 84.0036 526.005 84.4136C526.478 84.8404 526.411 85.2671 526.101 85.4763Z" fill="#050004"/>
<path d="M532.682 84.8485C532.966 85.041 533.372 85.0828 533.761 85.1414C534.155 85.1958 534.552 85.2585 534.896 85.3255C535.239 85.3924 535.628 85.4844 536.017 85.5807C536.402 85.6727 536.795 85.7899 537.126 85.7145C537.444 85.6476 537.632 85.3171 537.373 84.8109C537.13 84.3214 536.364 83.6897 535.23 83.468C534.096 83.2504 533.167 83.5475 532.77 83.9114C532.351 84.2879 532.41 84.6687 532.682 84.8485Z" fill="#050004"/>
<path d="M528.31 97.2948C528.134 97.2948 527.984 97.1568 527.975 96.9769C527.963 96.7928 528.105 96.6296 528.289 96.6213L530.105 96.5125C530.737 96.4748 531.302 96.1527 531.654 95.6256C532.009 95.1026 532.097 94.4583 531.896 93.8559L529.687 87.2501C529.628 87.0743 529.725 86.8819 529.9 86.8233C530.08 86.7648 530.269 86.861 530.327 87.0367L532.536 93.6426C532.804 94.4416 532.687 95.3034 532.214 96.0021C531.741 96.7007 530.988 97.1317 530.147 97.1819L528.331 97.2906C528.327 97.2948 528.319 97.2948 528.31 97.2948Z" fill="#050004"/>
<path d="M527.11 100.257C527.101 100.257 527.097 100.257 527.089 100.257C522.716 100.001 522.67 97.0896 522.67 97.0603C522.67 96.8762 522.821 96.7256 523.005 96.7256C523.189 96.7256 523.339 96.8762 523.339 97.0603C523.339 97.1607 523.415 99.3696 527.122 99.5871C527.306 99.5997 527.449 99.7587 527.44 99.9428C527.436 100.118 527.29 100.257 527.11 100.257Z" fill="#050004"/>
<path opacity="0.5" d="M536.263 95.466C534.183 95.466 532.346 93.9515 532.007 91.8346C531.823 90.6967 532.095 89.5587 532.773 88.6258C533.447 87.6929 534.447 87.0779 535.585 86.898C537.933 86.5215 540.15 88.128 540.527 90.475C540.904 92.8219 539.297 95.0392 536.949 95.4158C536.715 95.4492 536.489 95.466 536.263 95.466ZM536.267 87.5172C536.075 87.5172 535.882 87.5339 535.69 87.5632C533.71 87.8811 532.355 89.7512 532.673 91.73C532.991 93.7089 534.861 95.0643 536.84 94.7464C538.82 94.4284 540.175 92.5584 539.857 90.5795C539.569 88.7932 538.02 87.5172 536.267 87.5172Z" fill="#7EB951"/>
<g opacity="0.5">
<path d="M524.102 96.4618C523.077 96.4618 522.077 96.1397 521.232 95.5289C520.169 94.7591 519.47 93.6212 519.261 92.3243C518.834 89.6468 520.663 87.1241 523.337 86.6932C526.015 86.2623 528.538 88.0947 528.969 90.768C529.178 92.0649 528.869 93.3618 528.099 94.4286C527.329 95.4912 526.191 96.1941 524.893 96.3991C524.626 96.4409 524.362 96.4618 524.102 96.4618ZM524.115 87.304C523.893 87.304 523.667 87.3207 523.441 87.3584C521.132 87.7265 519.554 89.9062 519.922 92.2155C520.102 93.3325 520.705 94.3157 521.625 94.9808C522.542 95.646 523.663 95.9138 524.785 95.7339C525.902 95.554 526.885 94.9516 527.551 94.0312C528.216 93.115 528.484 91.9938 528.304 90.8726C527.965 88.7933 526.161 87.304 524.115 87.304Z" fill="#7EB951"/>
</g>
<path opacity="0.5" d="M528.789 91.438C528.68 91.438 528.575 91.3878 528.508 91.2916C528.404 91.1368 528.441 90.9276 528.596 90.8231C530.918 89.2375 532.488 90.6725 532.504 90.685C532.638 90.8105 532.647 91.0239 532.517 91.1619C532.387 91.2958 532.178 91.3042 532.04 91.1787C531.986 91.1285 530.831 90.116 528.973 91.3795C528.918 91.4213 528.856 91.438 528.789 91.438Z" fill="#7EB951"/>
<path d="M503.937 98.6069C503.845 98.6069 503.757 98.5692 503.69 98.4981C503.565 98.36 503.573 98.1467 503.711 98.0212L505.159 96.695L503 94.9713C502.853 94.8542 502.832 94.645 502.945 94.4986C503.062 94.3522 503.272 94.3312 503.418 94.4442L505.887 96.4147C505.962 96.4774 506.008 96.5694 506.012 96.6657C506.017 96.7661 505.975 96.8581 505.904 96.925L504.167 98.519C504.1 98.5776 504.021 98.6069 503.937 98.6069Z" fill="#050004"/>
<path d="M529.695 192.138H505.002V115.616L517.509 122.816L529.695 115.616V192.138Z" fill="#7EB951"/>
<path d="M529.693 192.478H505.005C504.821 192.478 504.666 192.328 504.666 192.144V115.618C504.666 115.496 504.729 115.388 504.833 115.325C504.938 115.266 505.068 115.266 505.172 115.325L517.508 122.424L529.522 115.325C529.627 115.266 529.756 115.262 529.861 115.321C529.965 115.379 530.032 115.492 530.032 115.614V192.139C530.028 192.328 529.878 192.478 529.693 192.478ZM505.34 191.805H529.355V116.208L517.68 123.106C517.575 123.169 517.445 123.169 517.341 123.106L505.34 116.199V191.805Z" fill="#050004"/>
<g opacity="0.63">
<path d="M529.462 192.478H504.999C504.811 192.478 504.66 192.327 504.66 192.143V115.509C504.66 115.387 504.723 115.279 504.828 115.216C504.932 115.157 505.062 115.157 505.166 115.216L517.385 122.328L529.286 115.22C529.391 115.157 529.52 115.157 529.625 115.216C529.729 115.274 529.796 115.387 529.796 115.509V192.143C529.801 192.327 529.65 192.478 529.462 192.478ZM505.338 191.804H529.127V116.103L517.565 123.01C517.461 123.073 517.327 123.073 517.222 123.01L505.338 116.094V191.804Z" fill="#000201"/>
</g>
<path d="M506.621 130.147C506.504 130.147 506.391 130.088 506.328 129.979C506.236 129.816 506.29 129.611 506.449 129.519L517.388 123.181C517.492 123.123 517.622 123.123 517.727 123.181L528.665 129.473C528.828 129.565 528.882 129.77 528.79 129.933C528.698 130.097 528.493 130.151 528.33 130.059L517.559 123.863L506.788 130.105C506.738 130.13 506.68 130.147 506.621 130.147Z" fill="#050004"/>
<path d="M514.51 132.104L510.167 162.628C510.12 162.962 510.162 163.306 510.292 163.615L516.167 177.626C516.703 178.906 518.318 178.919 518.87 177.647L524.963 163.619C525.097 163.31 525.143 162.963 525.097 162.619L520.879 131.975C520.762 131.13 520.105 130.515 519.343 130.548L515.933 130.686C515.221 130.711 514.623 131.31 514.51 132.104Z" fill="white"/>
<path d="M517.523 178.932C517.519 178.932 517.515 178.932 517.511 178.932C516.791 178.928 516.155 178.476 515.854 177.756L509.979 163.746C509.824 163.382 509.774 162.98 509.832 162.583L514.176 132.059C514.314 131.105 515.046 130.386 515.925 130.352L519.335 130.214C520.264 130.193 521.08 130.917 521.218 131.934L525.436 162.578C525.491 162.984 525.436 163.39 525.277 163.758L519.185 177.786C518.871 178.493 518.239 178.932 517.523 178.932ZM514.845 132.151L510.502 162.675C510.464 162.951 510.498 163.231 510.602 163.482L516.477 177.493C516.674 177.966 517.063 178.25 517.515 178.254C517.519 178.254 517.519 178.254 517.523 178.254C517.971 178.254 518.36 177.978 518.561 177.51L524.654 163.482C524.763 163.227 524.804 162.947 524.763 162.662L520.545 132.017C520.453 131.344 519.942 130.863 519.356 130.879L515.946 131.018C515.398 131.043 514.933 131.52 514.845 132.151Z" fill="#050004"/>
<path d="M511.486 126.988L514.449 130.749C516.043 132.769 519.102 132.794 520.726 130.799L523.776 127.05L517.558 123.469L511.486 126.988Z" fill="white"/>
<path d="M517.608 132.619C517.595 132.619 517.583 132.619 517.575 132.619C516.244 132.606 515.009 132.004 514.185 130.958L511.222 127.197C511.164 127.121 511.139 127.021 511.155 126.925C511.172 126.829 511.235 126.745 511.319 126.695L517.39 123.176C517.495 123.118 517.625 123.118 517.729 123.176L523.947 126.753C524.031 126.803 524.094 126.887 524.111 126.983C524.127 127.08 524.102 127.18 524.04 127.255L520.989 131.004C520.152 132.033 518.926 132.619 517.608 132.619ZM511.992 127.084L514.716 130.539C515.411 131.422 516.457 131.932 517.583 131.945C518.704 131.949 519.759 131.46 520.47 130.585L523.27 127.142L517.566 123.858L511.992 127.084Z" fill="#050004"/>
<path d="M458.29 143.676C451.507 145.291 445.59 144.852 445.075 142.689C444.56 140.53 449.64 137.468 456.423 135.853C463.206 134.238 469.123 134.678 469.638 136.84C470.153 138.999 465.073 142.062 458.29 143.676Z" fill="#000201"/>
<path d="M459.289 143.815C458.988 143.894 458.687 143.97 458.381 144.041C452.251 145.501 445.38 145.555 444.715 142.777C444.054 139.999 450.217 136.954 456.344 135.489C462.474 134.029 469.345 133.975 470.01 136.753C470.638 139.393 465.102 142.279 459.289 143.815ZM455.59 136.452C449.109 138.163 445.066 141.003 445.447 142.606C445.849 144.283 451.188 144.986 458.21 143.313C465.227 141.639 469.68 138.606 469.282 136.929C468.88 135.251 463.541 134.548 456.519 136.222C456.201 136.293 455.892 136.372 455.59 136.452Z" fill="#000201"/>
<path d="M450.178 136.255C447.822 132.92 446.659 128.695 447.964 124.716L450.295 125.273C450.295 125.273 451.718 118.859 451.538 114.32C452.22 112.689 458.497 115.111 458.497 115.111C458.497 115.111 457.685 113.504 457.279 112.697C456.848 111.844 456.718 111.019 456.806 110.066C456.894 109.116 457.747 108.17 458.685 108.359C459.605 108.547 461.714 112.028 462.346 112.831C466.142 117.671 466.895 124.49 467.02 130.444C467.087 133.619 472.272 165.778 471.895 167.276C469.631 176.321 457.455 177.919 452.935 169.757C452.291 168.121 451.835 166.431 451.567 164.707C451.207 162.381 452.647 141.02 452.626 140.304C452.592 139.3 452.019 138.48 451.379 137.711C450.964 137.221 450.521 136.744 450.178 136.255Z" fill="white"/>
<path d="M464.702 174.982C464.246 175.104 463.778 175.196 463.296 175.258C458.898 175.836 454.831 173.782 452.68 169.899C452.015 168.218 451.55 166.498 451.278 164.754C451.006 163.013 451.722 150.944 452.103 144.459C452.233 142.242 452.337 140.493 452.333 140.317C452.308 139.451 451.839 138.723 451.153 137.899C451.027 137.749 450.902 137.602 450.772 137.456C450.483 137.121 450.182 136.774 449.931 136.418C447.274 132.657 446.454 128.356 447.68 124.621C447.726 124.478 447.876 124.395 448.023 124.428L450.065 124.913C450.337 123.616 451.396 118.232 451.241 114.321C451.241 114.279 451.245 114.237 451.262 114.199C451.91 112.643 456.296 113.986 458.212 114.659L457.325 112.902C456.919 112.095 456.413 111.095 456.509 110.032C456.568 109.396 456.919 108.769 457.43 108.388C457.831 108.091 458.296 107.978 458.735 108.066C459.484 108.217 460.606 109.79 461.886 111.672C462.171 112.091 462.418 112.455 462.568 112.643C466.543 117.709 467.188 124.809 467.305 130.432C467.334 131.841 468.397 139.129 469.527 146.839C471.259 158.692 472.377 166.519 472.172 167.339C471.218 171.184 468.414 174.008 464.702 174.982ZM450.408 136.088C450.642 136.418 450.919 136.74 451.211 137.079C451.341 137.23 451.471 137.376 451.596 137.531C452.258 138.322 452.877 139.209 452.91 140.301C452.915 140.493 452.839 141.798 452.68 144.497C452.299 150.96 451.588 162.988 451.848 164.67C452.111 166.373 452.567 168.05 453.199 169.657C455.212 173.288 459.057 175.229 463.213 174.685C467.372 174.141 470.586 171.276 471.603 167.209C471.795 166.427 470.213 155.621 468.945 146.936C467.816 139.204 466.749 131.9 466.719 130.457C466.602 124.926 465.974 117.948 462.108 113.015C461.949 112.81 461.706 112.459 461.405 112.011C460.689 110.957 459.196 108.765 458.618 108.648C458.258 108.577 457.961 108.727 457.773 108.865C457.396 109.145 456.735 109.911 456.693 110.38C456.609 111.275 457.467 113.266 457.84 114.007L458.237 114.944C458.292 115.053 458.965 116.27 458.882 116.362C458.802 116.45 458.702 115.969 458.589 115.923C456.007 114.944 452.329 113.521 451.818 114.379C451.977 118.902 450.58 125.269 450.563 125.336C450.546 125.411 450.5 125.478 450.433 125.52C450.366 125.562 450.287 125.574 450.211 125.558L448.144 125.064C447.106 128.561 447.918 132.565 450.408 136.088Z" fill="#050004"/>
<path d="M447.373 180.061C447.745 182.475 448.39 184.852 449.294 187.144C455.629 198.59 472.718 196.352 475.894 183.659C476.342 181.873 471.158 149.023 469.53 136.464L467.747 137.778C461.249 142.577 453.085 144.534 445.113 143.212C445.963 144.25 446.871 176.798 447.373 180.061Z" fill="#333333"/>
<g opacity="0.24">
<path d="M465.792 194.444C465.156 194.611 464.499 194.741 463.826 194.829C457.666 195.636 451.975 192.758 448.966 187.328C448.037 184.977 447.385 182.567 447.004 180.119C446.799 178.789 446.531 172.823 446.226 165.916C445.82 156.809 445.267 144.333 444.807 143.425C444.707 143.304 444.702 143.149 444.782 143.015C444.861 142.881 445.025 142.819 445.175 142.848C452.996 144.149 461.143 142.191 467.525 137.48L469.307 136.167C469.412 136.087 469.554 136.071 469.675 136.125C469.797 136.175 469.885 136.288 469.901 136.422C470.475 140.848 471.479 147.73 472.542 155.018C474.969 171.635 476.542 182.617 476.254 183.759C474.914 189.118 470.985 193.076 465.792 194.444ZM445.627 143.676C446.033 145.797 446.389 152.591 446.979 165.887C447.272 172.484 447.548 178.718 447.749 180.006C448.117 182.399 448.757 184.755 449.644 187.01C452.477 192.122 457.884 194.85 463.729 194.088C469.579 193.323 474.099 189.294 475.53 183.575C475.802 182.491 473.584 167.318 471.805 155.123C470.789 148.169 469.826 141.589 469.244 137.146L467.977 138.083C461.583 142.798 453.469 144.818 445.627 143.676Z" fill="#050004"/>
</g>
<path d="M465.792 194.444C465.156 194.611 464.499 194.741 463.826 194.829C457.666 195.636 451.975 192.758 448.966 187.328C448.037 184.977 447.385 182.567 447.004 180.119C446.799 178.789 446.531 172.823 446.226 165.916C445.82 156.809 445.267 144.333 444.807 143.425C444.707 143.304 444.702 143.149 444.782 143.015C444.861 142.881 445.025 142.819 445.175 142.848C452.996 144.149 461.143 142.191 467.525 137.48L469.307 136.167C469.412 136.087 469.554 136.071 469.675 136.125C469.797 136.175 469.885 136.288 469.901 136.422C470.475 140.848 471.479 147.73 472.542 155.018C474.969 171.635 476.542 182.617 476.254 183.759C474.914 189.118 470.985 193.076 465.792 194.444ZM445.627 143.676C446.033 145.797 446.389 152.591 446.979 165.887C447.272 172.484 447.548 178.718 447.749 180.006C448.117 182.399 448.757 184.755 449.644 187.01C452.477 192.122 457.884 194.85 463.729 194.088C469.579 193.323 474.099 189.294 475.53 183.575C475.802 182.491 473.584 167.318 471.805 155.123C470.789 148.169 469.826 141.589 469.244 137.146L467.977 138.083C461.583 142.798 453.469 144.818 445.627 143.676Z" fill="#050004"/>
<path d="M459.042 117.731L452.527 126.261L445.693 115.735L446.283 110.522L456.791 113.233L459.042 117.731Z" fill="#111111"/>
<path d="M452.502 126.914L445.305 115.827L445.957 110.054L457.046 112.915L459.478 117.772L452.502 126.914ZM446.083 115.643L452.552 125.608L458.599 117.685L456.532 113.551L446.606 110.991L446.083 115.643Z" fill="#000201"/>
<path d="M451.019 127.235C452.655 127.327 454.053 126.072 454.141 124.44L455.024 108.455C455.116 106.819 453.86 105.422 452.228 105.334C450.592 105.242 449.195 106.497 449.103 108.128L448.22 124.114C448.128 125.75 449.383 127.147 451.019 127.235Z" fill="#7EB951"/>
<path d="M452.005 127.428C451.687 127.512 451.348 127.549 450.997 127.528C450.126 127.482 449.331 127.097 448.75 126.449C448.168 125.801 447.875 124.964 447.925 124.098L448.808 108.112C448.854 107.242 449.239 106.447 449.888 105.866C450.537 105.284 451.369 104.991 452.24 105.042C454.031 105.142 455.412 106.677 455.311 108.472L454.428 124.458C454.353 125.901 453.336 127.077 452.005 127.428ZM451.373 105.707C450.972 105.811 450.595 106.016 450.277 106.301C449.746 106.778 449.432 107.43 449.39 108.146L448.507 124.131C448.469 124.843 448.708 125.529 449.185 126.06C449.662 126.591 450.315 126.905 451.03 126.947C452.499 127.031 453.767 125.897 453.847 124.424L454.729 108.439C454.809 106.966 453.679 105.703 452.206 105.623C451.922 105.611 451.641 105.64 451.373 105.707Z" fill="#050004"/>
<path d="M449.264 108.175L454.804 108.48C455.963 108.543 456.955 107.656 457.022 106.497L457.089 105.263C457.152 104.104 456.265 103.113 455.105 103.046L449.565 102.74C448.406 102.678 447.414 103.565 447.347 104.723L447.28 105.958C447.218 107.116 448.105 108.108 449.264 108.175Z" fill="#FCF8F2"/>
<path d="M455.535 108.694C455.296 108.757 455.045 108.782 454.79 108.769L449.249 108.464C447.931 108.393 446.919 107.259 446.99 105.941L447.057 104.707C447.128 103.389 448.258 102.377 449.58 102.448L455.12 102.753C455.761 102.787 456.346 103.071 456.773 103.548C457.2 104.025 457.418 104.64 457.38 105.276L457.313 106.51C457.28 107.15 456.995 107.736 456.518 108.163C456.233 108.422 455.899 108.602 455.535 108.694ZM448.99 103.088C448.249 103.285 447.684 103.937 447.643 104.74L447.576 105.975C447.521 106.97 448.287 107.828 449.287 107.882L454.827 108.188C455.313 108.213 455.777 108.05 456.137 107.728C456.497 107.405 456.71 106.962 456.736 106.477L456.802 105.242C456.828 104.757 456.664 104.293 456.342 103.933C456.02 103.573 455.576 103.36 455.091 103.335L449.551 103.029C449.358 103.021 449.17 103.042 448.99 103.088Z" fill="#000201"/>
<path d="M458.584 101.602L462.618 101.823C464.589 101.932 466.275 100.422 466.384 98.4513L466.426 97.7067C466.535 95.7362 465.024 94.0502 463.053 93.9415L459.019 93.7197L458.584 101.602Z" fill="#000201"/>
<path d="M463.807 101.995C463.422 102.095 463.016 102.137 462.601 102.116L458.568 101.894C458.492 101.89 458.417 101.857 458.367 101.798C458.317 101.74 458.287 101.664 458.291 101.589L458.727 93.7072C458.735 93.544 458.873 93.4227 459.032 93.4311L463.066 93.6528C465.196 93.7699 466.832 95.5982 466.715 97.7276L466.673 98.4723C466.614 99.5014 466.162 100.451 465.393 101.137C464.932 101.547 464.388 101.84 463.807 101.995ZM458.89 101.325L462.635 101.53C463.509 101.576 464.351 101.284 465.008 100.698C465.66 100.112 466.045 99.309 466.095 98.4346L466.137 97.6899C466.238 95.8826 464.849 94.3305 463.041 94.2301L459.296 94.0251L458.89 101.325Z" fill="#000201"/>
<path d="M447.338 105.063L455.803 105.531C459.937 105.757 463.477 102.59 463.703 98.4569L463.791 96.8964C464.017 92.7631 460.85 89.2238 456.715 88.9979L448.25 88.5293L447.338 105.063Z" fill="#7EB951"/>
<path d="M458.195 105.577C457.429 105.778 456.617 105.866 455.785 105.82L447.32 105.351C447.161 105.343 447.035 105.205 447.043 105.046L447.956 88.5163C447.964 88.3573 448.102 88.2318 448.261 88.2401L456.726 88.7087C461.015 88.943 464.313 92.6245 464.078 96.9169L463.995 98.4773C463.802 101.929 461.375 104.74 458.195 105.577ZM447.642 104.786L455.814 105.238C459.781 105.456 463.187 102.406 463.409 98.4397L463.497 96.8792C463.714 92.9132 460.664 89.5078 456.697 89.286L448.525 88.8342L447.642 104.786Z" fill="#050004"/>
<path d="M448.239 88.5333L447.331 105.063C440.778 104.703 434.267 106.422 428.685 109.995L416.328 117.902L418.839 72.3638L430.254 81.5802C435.409 85.7428 441.686 88.1693 448.239 88.5333Z" fill="#000201"/>
<path d="M416.586 116.847C416.506 116.868 416.422 116.855 416.355 116.813C416.268 116.759 416.213 116.659 416.222 116.55L418.552 72.3503C418.557 72.2416 418.623 72.1454 418.724 72.0993C418.824 72.0575 418.941 72.07 419.025 72.137L430.44 81.3534C435.575 85.4993 441.739 87.8798 448.262 88.2396C448.421 88.2479 448.547 88.386 448.538 88.545L447.626 105.074C447.622 105.154 447.589 105.225 447.53 105.275C447.471 105.325 447.396 105.355 447.321 105.35C440.797 104.991 434.407 106.681 428.85 110.237L416.657 116.813C416.627 116.83 416.607 116.838 416.586 116.847ZM419.1 72.9486L416.828 116.056L428.545 109.735C434.11 106.175 440.508 104.451 447.053 104.752L447.932 88.8002C441.391 88.3776 435.219 85.9637 430.064 81.801L419.1 72.9486Z" fill="#000201"/>
<path d="M411.066 94.6116C410.367 107.246 413.179 117.676 417.342 117.906C421.506 118.136 425.443 108.079 426.142 95.4442C426.837 82.8098 424.029 72.3801 419.866 72.15C415.702 71.9157 411.764 81.973 411.066 94.6116Z" fill="#FCF8F2"/>
<path d="M418.232 118.102C417.93 118.181 417.629 118.215 417.328 118.198C412.938 117.955 410.059 107.588 410.775 94.5985C411.491 81.6043 415.487 71.6181 419.885 71.8608C424.274 72.1034 427.153 82.4703 426.438 95.4603C425.764 107.547 422.253 117.039 418.232 118.102ZM411.064 94.611L411.357 94.6278C410.683 106.873 413.432 117.399 417.357 117.617C417.6 117.629 417.843 117.604 418.081 117.541C421.751 116.575 425.216 106.919 425.848 95.431C426.521 83.1857 423.772 72.6598 419.847 72.4423C415.926 72.2289 412.03 82.3866 411.352 94.632L411.064 94.611Z" fill="#000201"/>
<path d="M413.317 94.6831C412.652 104.887 414.217 113.229 416.811 113.313C419.406 113.396 422.046 105.192 422.707 94.9885C423.372 84.7847 421.808 76.4427 419.213 76.359C416.623 76.2754 413.983 84.4793 413.317 94.6831Z" fill="#000201"/>
<path d="M417.249 113.555C417.098 113.593 416.952 113.614 416.801 113.605C416.328 113.588 415.881 113.354 415.475 112.906C413.479 110.706 412.47 103.205 413.027 94.6661C413.625 85.4455 416.107 75.9697 419.224 76.0701C419.697 76.0869 420.145 76.3211 420.551 76.7688C422.547 78.9693 423.555 86.4705 422.998 95.0092C422.429 103.782 420.153 112.785 417.249 113.555Z" fill="#000201"/>
<path d="M445.743 105.301C445.714 105.31 445.685 105.314 445.655 105.31C445.496 105.301 445.371 105.163 445.379 105.004L446.195 88.3747C446.204 88.2115 446.338 88.0902 446.501 88.0986C446.66 88.1069 446.785 88.245 446.777 88.4039L445.961 105.034C445.957 105.163 445.865 105.268 445.743 105.301Z" fill="#000201"/>
<mask id="mask0_2114_14439" style="mask-type:luminance" maskUnits="userSpaceOnUse" x="413" y="76" width="10" height="38">
<mask id="mask1_2114_14439" style="mask-type:luminance" maskUnits="userSpaceOnUse" x="413" y="76" width="10" height="38">
<path d="M413.323 94.6836C412.658 104.887 414.223 113.229 416.817 113.313C419.411 113.397 422.052 105.193 422.713 94.989C423.378 84.7852 421.813 76.4432 419.219 76.3595C416.629 76.2758 413.988 84.4798 413.323 94.6836Z" fill="white"/>
</mask>
<g mask="url(#mask1_2114_14439)">
<path d="M417.253 113.556C417.102 113.594 416.956 113.614 416.805 113.606C416.332 113.589 415.885 113.355 415.479 112.907C413.483 110.707 412.474 103.206 413.031 94.6671C413.629 85.4465 416.111 75.9707 419.228 76.0711C419.701 76.0878 420.149 76.3221 420.554 76.7698C422.55 78.9703 423.559 86.4715 423.002 95.0101C422.433 103.783 420.157 112.786 417.253 113.556ZM413.319 94.6838H413.324H413.319Z" fill="white"/>
</g>
</mask>
<g mask="url(#mask0_2114_14439)">
<path d="M430.509 100.139L417.182 99.4363C416.696 99.4112 416.324 98.997 416.349 98.5117L416.688 92.1067C416.713 91.6214 417.127 91.249 417.613 91.2741L430.94 91.977L430.509 100.139Z" fill="#7EB951"/>
</g>
<path d="M443.718 115.05L443.702 115.121C443.455 116.209 444.2 117.251 445.359 117.439L451.97 118.506C453.133 118.694 454.288 117.953 454.535 116.866L454.552 116.795C454.803 115.707 454.054 114.661 452.895 114.477L446.283 113.41C445.12 113.226 443.969 113.962 443.718 115.05Z" fill="white"/>
<path d="M453.003 118.739C452.66 118.831 452.291 118.852 451.927 118.793L445.316 117.727C444.663 117.622 444.086 117.262 443.734 116.735C443.399 116.237 443.286 115.639 443.42 115.053L443.437 114.982C443.722 113.744 445.019 112.911 446.333 113.121L452.944 114.187C453.597 114.292 454.174 114.652 454.53 115.179C454.865 115.677 454.978 116.275 454.844 116.861L454.827 116.932C454.618 117.823 453.886 118.505 453.003 118.739ZM445.395 113.74C444.717 113.92 444.157 114.438 444.002 115.112L443.985 115.183C443.889 115.61 443.968 116.045 444.215 116.409C444.483 116.806 444.906 117.07 445.408 117.149L452.019 118.216C453.036 118.379 454.036 117.743 454.254 116.798L454.271 116.727C454.367 116.3 454.287 115.865 454.045 115.501C453.777 115.104 453.354 114.84 452.852 114.761L446.241 113.694C445.948 113.652 445.663 113.669 445.395 113.74Z" fill="#050004"/>
<path d="M444.567 110.883L444.55 110.954C444.299 112.042 445.048 113.087 446.208 113.272L452.819 114.338C453.982 114.527 455.137 113.786 455.384 112.698L455.401 112.627C455.652 111.54 454.907 110.494 453.744 110.31L447.132 109.243C445.973 109.054 444.818 109.791 444.567 110.883Z" fill="white"/>
<path d="M453.853 114.568C453.51 114.66 453.142 114.681 452.778 114.622L446.166 113.555C445.513 113.451 444.936 113.087 444.58 112.564C444.245 112.066 444.132 111.468 444.27 110.882L444.287 110.815C444.572 109.577 445.869 108.744 447.183 108.954L453.794 110.02C454.447 110.125 455.025 110.485 455.38 111.012C455.715 111.51 455.828 112.108 455.69 112.694L455.673 112.761C455.468 113.652 454.736 114.334 453.853 114.568ZM444.852 110.945L444.835 111.016C444.739 111.443 444.819 111.878 445.061 112.242C445.329 112.639 445.752 112.903 446.254 112.982L452.865 114.049C453.882 114.212 454.887 113.576 455.1 112.635L455.117 112.568C455.217 112.141 455.133 111.706 454.891 111.342C454.623 110.945 454.2 110.681 453.698 110.602L447.087 109.535C446.074 109.364 445.07 109.999 444.852 110.945Z" fill="#050004"/>
<path d="M444.124 119.165L444.12 119.181C443.873 120.257 444.61 121.286 445.756 121.474L450.267 122.202C451.414 122.386 452.556 121.658 452.799 120.583L452.803 120.562C453.05 119.487 452.313 118.458 451.167 118.274L446.656 117.546C445.509 117.361 444.371 118.089 444.124 119.165Z" fill="white"/>
<path d="M451.283 122.432C450.944 122.52 450.584 122.545 450.22 122.487L445.709 121.759C445.065 121.654 444.491 121.299 444.144 120.78C443.813 120.286 443.7 119.696 443.834 119.115L443.839 119.094C444.119 117.868 445.408 117.044 446.705 117.253L451.216 117.981C451.86 118.086 452.434 118.441 452.781 118.96C453.111 119.454 453.224 120.044 453.09 120.625C452.885 121.525 452.157 122.202 451.283 122.432ZM445.78 117.872C445.111 118.048 444.562 118.558 444.408 119.228L444.403 119.249C444.307 119.667 444.387 120.098 444.629 120.454C444.893 120.843 445.311 121.102 445.805 121.182L450.316 121.909C451.316 122.073 452.304 121.445 452.517 120.512C452.618 120.073 452.538 119.642 452.295 119.286C452.032 118.897 451.613 118.638 451.12 118.558L446.609 117.83C446.328 117.789 446.044 117.805 445.78 117.872Z" fill="#050004"/>
<path d="M443.327 123.118L443.31 123.189C443.059 124.277 443.808 125.323 444.967 125.507L447.198 125.867C448.361 126.055 449.516 125.314 449.763 124.227L449.779 124.156C450.031 123.068 449.286 122.022 448.122 121.838L445.888 121.478C444.729 121.29 443.574 122.026 443.327 123.118Z" fill="white"/>
<path d="M448.231 126.1C447.888 126.192 447.52 126.213 447.156 126.155L444.925 125.795C444.273 125.69 443.695 125.326 443.34 124.804C443.005 124.306 442.892 123.707 443.026 123.122L443.042 123.051C443.327 121.812 444.628 120.98 445.938 121.189L448.173 121.549C448.825 121.653 449.403 122.017 449.759 122.54C450.093 123.038 450.206 123.636 450.068 124.222L450.051 124.293C449.846 125.184 449.114 125.866 448.231 126.1ZM445.005 121.808C444.327 121.988 443.766 122.507 443.612 123.18L443.595 123.251C443.499 123.678 443.578 124.113 443.821 124.477C444.089 124.875 444.511 125.138 445.013 125.218L447.244 125.577C448.26 125.741 449.265 125.105 449.478 124.159L449.495 124.088C449.591 123.661 449.512 123.226 449.269 122.862C449.001 122.465 448.579 122.201 448.076 122.122L445.842 121.762C445.557 121.72 445.273 121.737 445.005 121.808Z" fill="#050004"/>
<path d="M457.683 113.855C457.683 113.855 456.791 111.948 456.402 111.148C455.992 110.303 455.57 109.4 455.653 108.454C455.737 107.513 456.545 106.576 457.432 106.764C458.306 106.952 460.311 110.408 460.909 111.207" fill="white"/>
<path d="M457.526 114.515C457.526 114.515 456.534 112.419 456.103 111.541C455.672 110.666 455.14 109.574 455.241 108.42C455.304 107.734 455.672 107.052 456.208 106.646C456.626 106.324 457.107 106.202 457.572 106.299C458.358 106.462 459.538 108.173 460.89 110.223C461.191 110.683 461.455 111.076 461.61 111.286C461.706 111.411 461.685 111.595 461.564 111.696C461.442 111.796 461.262 111.775 461.166 111.645C460.995 111.424 460.743 111.039 460.421 110.549C459.66 109.399 458.082 106.997 457.459 106.868C457.07 106.788 456.747 106.956 456.546 107.11C456.145 107.42 455.856 107.951 455.806 108.47C455.718 109.457 456.212 110.466 456.609 111.273C457.04 112.152 458.032 114.252 458.032 114.252L457.526 114.515Z" fill="#050004"/>
<path d="M459.898 119.662C459.885 119.666 459.873 119.666 459.86 119.67C459.705 119.691 459.563 119.578 459.542 119.419C459.32 117.633 457.4 114.215 457.383 114.181C457.303 114.043 457.349 113.863 457.483 113.784C457.617 113.705 457.793 113.751 457.868 113.889C457.948 114.031 459.864 117.445 460.103 119.348C460.124 119.49 460.032 119.624 459.898 119.662Z" fill="#000201"/>
<path d="M385.133 124.78L396.259 110.882L397.289 115.593L408.227 107.686L395.728 123.152L394.376 118.822L385.133 124.78Z" fill="#7EB951" stroke="#333333" stroke-miterlimit="10"/>
<path d="M395.654 123.546C395.507 123.517 395.39 123.412 395.344 123.27L394.152 119.446L385.352 125.119C385.176 125.228 384.967 125.198 384.833 125.052C384.699 124.906 384.695 124.684 384.816 124.529L395.943 110.635C396.039 110.514 396.198 110.46 396.349 110.493C396.499 110.527 396.616 110.648 396.65 110.799L397.549 114.907L407.99 107.356C408.161 107.243 408.379 107.259 408.517 107.406C408.655 107.552 408.663 107.778 408.538 107.937L396.039 123.404C396.005 123.446 395.959 123.483 395.913 123.508C395.838 123.55 395.746 123.563 395.654 123.546ZM397.524 115.919C397.411 115.995 397.269 116.016 397.144 115.97C397.018 115.919 396.922 115.811 396.892 115.681L396.043 111.794L386.992 123.102L394.156 118.484C394.26 118.421 394.394 118.4 394.512 118.442C394.629 118.484 394.721 118.58 394.758 118.701L395.884 122.312L406.01 109.782L397.524 115.919Z" fill="#333333"/>
<path d="M389.428 56.0605L404.935 62.4363L400.948 64.6118L410.995 72.4058L393.704 65.2017L397.261 62.8338L389.428 56.0605Z" fill="#7EB951"/>
<path d="M410.839 72.7785L393.549 65.5744C393.411 65.5158 393.319 65.3903 393.302 65.2397C393.289 65.0933 393.356 64.9468 393.482 64.8674L396.595 62.7923L389.164 56.3621C389.013 56.2325 388.979 56.0149 389.084 55.8476C389.184 55.6802 389.398 55.6133 389.578 55.6844L405.086 62.0602C405.228 62.1187 405.328 62.2568 405.337 62.4116C405.345 62.5664 405.266 62.7128 405.127 62.7881L401.679 64.6707L411.241 72.0882C411.4 72.2137 411.442 72.4354 411.341 72.6111C411.304 72.6781 411.245 72.7325 411.178 72.7659C411.078 72.8203 410.952 72.8287 410.839 72.7785ZM391.561 57.3746L397.524 62.5329C397.62 62.6166 397.671 62.7379 397.662 62.8634C397.654 62.9889 397.587 63.1019 397.482 63.173L394.553 65.1226L408.358 70.875L400.7 64.9343C400.591 64.8506 400.537 64.7209 400.545 64.5829C400.558 64.449 400.633 64.3277 400.755 64.2607L403.998 62.4869L391.561 57.3746Z" fill="#050004"/>
<path d="M359.104 85.1953L387.6 80.8862L383.65 87.6176L405.351 90.224L373.494 94.8928L376.641 88.2619L359.104 85.1953Z" fill="#7EB951"/>
<path d="M405.409 90.6259L373.552 95.2948C373.406 95.3157 373.259 95.2529 373.171 95.1358C373.084 95.0187 373.067 94.8597 373.13 94.7258L376.05 88.5718L359.032 85.5973C358.835 85.5638 358.697 85.3923 358.697 85.1956C358.701 84.999 358.844 84.8317 359.04 84.8024L387.537 80.4933C387.692 80.4682 387.842 80.5393 387.93 80.6648C388.018 80.7945 388.022 80.9619 387.943 81.0957L384.302 87.2958L405.392 89.8268C405.593 89.8519 405.744 90.0193 405.748 90.2201C405.752 90.3749 405.664 90.513 405.534 90.5799C405.501 90.605 405.455 90.6175 405.409 90.6259ZM361.605 85.2249L376.707 87.8648C376.833 87.8857 376.937 87.9652 376.996 88.0781C377.055 88.1911 377.055 88.3208 377 88.4337L374.176 94.3869L402.296 90.2661L383.595 88.0195C383.461 88.0028 383.344 87.9191 383.281 87.7978C383.223 87.6765 383.227 87.5342 383.294 87.4129L386.817 81.4095L361.605 85.2249Z" fill="#050004"/>
<path d="M659.507 95.5961C659.319 95.5961 659.164 95.4413 659.164 95.2531V92.22C659.164 92.0317 659.319 91.877 659.507 91.877C659.695 91.877 659.85 92.0317 659.85 92.22V95.2531C659.85 95.4413 659.695 95.5961 659.507 95.5961Z" fill="#121924"/>
<path d="M659.507 103.382C659.319 103.382 659.164 103.227 659.164 103.039V100.006C659.164 99.8174 659.319 99.6626 659.507 99.6626C659.695 99.6626 659.85 99.8174 659.85 100.006V103.039C659.85 103.231 659.695 103.382 659.507 103.382Z" fill="#121924"/>
<path d="M664.918 97.9732H661.884C661.696 97.9732 661.541 97.8182 661.541 97.6297C661.541 97.4411 661.696 97.2861 661.884 97.2861H664.918C665.106 97.2861 665.261 97.4411 665.261 97.6297C665.261 97.8182 665.11 97.9732 664.918 97.9732Z" fill="#121924"/>
<path d="M657.133 97.9727H654.099C653.911 97.9727 653.756 97.8177 653.756 97.6292C653.756 97.4407 653.911 97.2856 654.099 97.2856H657.133C657.321 97.2856 657.476 97.4407 657.476 97.6292C657.472 97.8177 657.321 97.9727 657.133 97.9727Z" fill="#121924"/>
<path d="M655.679 101.8C655.591 101.8 655.503 101.766 655.436 101.699C655.302 101.565 655.302 101.348 655.436 101.214L657.583 99.0677C657.717 98.9338 657.935 98.9338 658.068 99.0677C658.202 99.2016 658.202 99.4191 658.068 99.553L655.922 101.699C655.855 101.766 655.767 101.8 655.679 101.8Z" fill="#121924"/>
<path d="M661.191 96.2898C661.103 96.2898 661.015 96.2563 660.948 96.1894C660.814 96.0555 660.814 95.838 660.948 95.7041L663.095 93.5579C663.229 93.4241 663.446 93.4241 663.58 93.5579C663.714 93.6918 663.714 93.9093 663.58 94.0432L661.433 96.1894C661.367 96.2563 661.279 96.2898 661.191 96.2898Z" fill="#121924"/>
<path d="M657.826 96.2898C657.738 96.2898 657.65 96.2563 657.583 96.1894L655.436 94.0432C655.302 93.9093 655.302 93.6918 655.436 93.5579C655.57 93.4241 655.788 93.4241 655.922 93.5579L658.068 95.7041C658.202 95.838 658.202 96.0555 658.068 96.1894C658.001 96.2563 657.914 96.2898 657.826 96.2898Z" fill="#121924"/>
<path d="M663.332 101.8C663.244 101.8 663.156 101.766 663.089 101.699L660.942 99.553C660.808 99.4191 660.808 99.2016 660.942 99.0677C661.076 98.9338 661.294 98.9338 661.428 99.0677L663.574 101.214C663.708 101.348 663.708 101.565 663.574 101.699C663.507 101.766 663.419 101.8 663.332 101.8Z" fill="#121924"/>
<path d="M475.947 65.7666C475.758 65.7666 475.604 65.6118 475.604 65.4235V62.3904C475.604 62.2022 475.758 62.0474 475.947 62.0474C476.135 62.0474 476.29 62.2022 476.29 62.3904V65.4235C476.29 65.6118 476.135 65.7666 475.947 65.7666Z" fill="#121924"/>
<path d="M475.947 73.5561C475.758 73.5561 475.604 73.4013 475.604 73.2131V70.18C475.604 69.9917 475.758 69.8369 475.947 69.8369C476.135 69.8369 476.29 69.9917 476.29 70.18V73.2131C476.29 73.4013 476.135 73.5561 475.947 73.5561Z" fill="#121924"/>
<path d="M481.355 68.1446H478.322C478.133 68.1446 477.979 67.9896 477.979 67.801C477.979 67.6125 478.133 67.4575 478.322 67.4575H481.355C481.544 67.4575 481.699 67.6125 481.699 67.801C481.699 67.9938 481.544 68.1446 481.355 68.1446Z" fill="#121924"/>
<path d="M473.564 68.1446H470.531C470.342 68.1446 470.188 67.9896 470.188 67.801C470.188 67.6125 470.342 67.4575 470.531 67.4575H473.564C473.753 67.4575 473.908 67.6125 473.908 67.801C473.908 67.9938 473.757 68.1446 473.564 68.1446Z" fill="#121924"/>
<path d="M472.113 71.971C472.025 71.971 471.937 71.9375 471.87 71.8705C471.736 71.7367 471.736 71.5191 471.87 71.3853L474.017 69.2391C474.151 69.1052 474.368 69.1052 474.502 69.2391C474.636 69.373 474.636 69.5905 474.502 69.7244L472.355 71.8705C472.288 71.9375 472.201 71.971 472.113 71.971Z" fill="#121924"/>
<path d="M477.628 66.4612C477.54 66.4612 477.453 66.4277 477.386 66.3608C477.252 66.2269 477.252 66.0093 477.386 65.8755L479.532 63.7293C479.666 63.5954 479.884 63.5954 480.018 63.7293C480.152 63.8632 480.152 64.0807 480.018 64.2146L477.871 66.3608C477.8 66.4277 477.712 66.4612 477.628 66.4612Z" fill="#121924"/>
<path d="M474.259 66.4612C474.171 66.4612 474.084 66.4277 474.017 66.3608L471.87 64.2146C471.736 64.0807 471.736 63.8632 471.87 63.7293C472.004 63.5954 472.221 63.5954 472.355 63.7293L474.502 65.8755C474.636 66.0093 474.636 66.2269 474.502 66.3608C474.435 66.4277 474.347 66.4612 474.259 66.4612Z" fill="#121924"/>
<path d="M479.767 71.971C479.679 71.971 479.591 71.9375 479.524 71.8705L477.378 69.7244C477.244 69.5905 477.244 69.373 477.378 69.2391C477.512 69.1052 477.729 69.1052 477.863 69.2391L480.01 71.3853C480.144 71.5191 480.144 71.7367 480.01 71.8705C479.943 71.9375 479.855 71.971 479.767 71.971Z" fill="#121924"/>
<path d="M409.132 262.182C408.944 262.182 408.789 262.027 408.789 261.839V258.805C408.789 258.617 408.944 258.462 409.132 258.462C409.32 258.462 409.475 258.617 409.475 258.805V261.839C409.475 262.027 409.325 262.182 409.132 262.182Z" fill="#121924"/>
<path d="M409.132 269.972C408.944 269.972 408.789 269.817 408.789 269.629V266.595C408.789 266.407 408.944 266.252 409.132 266.252C409.32 266.252 409.475 266.407 409.475 266.595V269.629C409.475 269.817 409.325 269.972 409.132 269.972Z" fill="#121924"/>
<path d="M414.549 264.56H411.515C411.327 264.56 411.172 264.405 411.172 264.216C411.172 264.028 411.327 263.873 411.515 263.873H414.549C414.737 263.873 414.892 264.028 414.892 264.216C414.892 264.405 414.737 264.56 414.549 264.56Z" fill="#121924"/>
<path d="M406.76 264.56H403.726C403.538 264.56 403.383 264.405 403.383 264.217C403.383 264.028 403.538 263.873 403.726 263.873H406.76C406.948 263.873 407.103 264.028 407.103 264.217C407.103 264.405 406.948 264.56 406.76 264.56Z" fill="#121924"/>
<path d="M405.312 268.386C405.224 268.386 405.136 268.353 405.069 268.286C404.935 268.152 404.935 267.934 405.069 267.8L407.216 265.654C407.35 265.52 407.567 265.52 407.701 265.654C407.835 265.788 407.835 266.006 407.701 266.139L405.555 268.286C405.488 268.353 405.4 268.386 405.312 268.386Z" fill="#121924"/>
<path d="M410.82 262.876C410.732 262.876 410.644 262.843 410.577 262.776C410.443 262.642 410.443 262.424 410.577 262.291L412.724 260.144C412.858 260.01 413.075 260.01 413.209 260.144C413.343 260.278 413.343 260.496 413.209 260.63L411.062 262.776C410.995 262.843 410.908 262.876 410.82 262.876Z" fill="#121924"/>
<path d="M407.459 262.878C407.371 262.878 407.283 262.844 407.216 262.777L405.069 260.631C404.935 260.497 404.935 260.28 405.069 260.146C405.203 260.012 405.421 260.012 405.555 260.146L407.701 262.292C407.835 262.426 407.835 262.643 407.701 262.777C407.63 262.844 407.542 262.878 407.459 262.878Z" fill="#121924"/>
<path d="M412.966 268.387C412.878 268.387 412.791 268.354 412.724 268.287L410.577 266.14C410.443 266.007 410.443 265.789 410.577 265.655C410.711 265.521 410.928 265.521 411.062 265.655L413.209 267.801C413.343 267.935 413.343 268.153 413.209 268.287C413.142 268.354 413.054 268.387 412.966 268.387Z" fill="#121924"/>
<path d="M602.679 197.734C602.491 197.734 602.336 197.579 602.336 197.391V194.358C602.336 194.169 602.491 194.015 602.679 194.015C602.867 194.015 603.022 194.169 603.022 194.358V197.391C603.022 197.583 602.867 197.734 602.679 197.734Z" fill="#121924"/>
<path d="M602.679 205.524C602.491 205.524 602.336 205.369 602.336 205.181V202.148C602.336 201.959 602.491 201.805 602.679 201.805C602.867 201.805 603.022 201.959 603.022 202.148V205.181C603.022 205.369 602.867 205.524 602.679 205.524Z" fill="#121924"/>
<path d="M608.094 200.115H605.06C604.872 200.115 604.717 199.96 604.717 199.771C604.717 199.583 604.872 199.428 605.06 199.428H608.094C608.282 199.428 608.437 199.583 608.437 199.771C608.433 199.96 608.282 200.115 608.094 200.115Z" fill="#121924"/>
<path d="M600.305 200.115H597.271C597.083 200.115 596.928 199.96 596.928 199.771C596.928 199.583 597.083 199.428 597.271 199.428H600.305C600.493 199.428 600.648 199.583 600.648 199.771C600.648 199.96 600.493 200.115 600.305 200.115Z" fill="#121924"/>
<path d="M598.857 203.939C598.769 203.939 598.681 203.905 598.614 203.838C598.48 203.704 598.48 203.487 598.614 203.353L600.761 201.207C600.895 201.073 601.112 201.073 601.246 201.207C601.38 201.341 601.38 201.558 601.246 201.692L599.1 203.838C599.028 203.905 598.94 203.939 598.857 203.939Z" fill="#121924"/>
<path d="M604.365 198.433C604.277 198.433 604.189 198.4 604.122 198.333C603.988 198.199 603.988 197.982 604.122 197.848L606.269 195.701C606.402 195.568 606.62 195.568 606.754 195.701C606.888 195.835 606.888 196.053 606.754 196.187L604.607 198.333C604.54 198.4 604.452 198.433 604.365 198.433Z" fill="#121924"/>
<path d="M600.998 198.431C600.91 198.431 600.822 198.398 600.755 198.331L598.608 196.185C598.474 196.051 598.474 195.833 598.608 195.7C598.742 195.566 598.96 195.566 599.094 195.7L601.24 197.846C601.374 197.98 601.374 198.197 601.24 198.331C601.173 198.398 601.085 198.431 600.998 198.431Z" fill="#121924"/>
<path d="M606.511 203.939C606.423 203.939 606.336 203.905 606.269 203.838L604.122 201.692C603.988 201.558 603.988 201.341 604.122 201.207C604.256 201.073 604.473 201.073 604.607 201.207L606.754 203.353C606.888 203.487 606.888 203.704 606.754 203.838C606.687 203.905 606.599 203.939 606.511 203.939Z" fill="#121924"/>
<path d="M359.467 144.448C359.254 144.448 359.082 144.276 359.082 144.063V140.649C359.082 140.436 359.254 140.264 359.467 140.264C359.68 140.264 359.852 140.436 359.852 140.649V144.063C359.856 144.276 359.68 144.448 359.467 144.448Z" fill="#121924"/>
<path d="M359.467 153.212C359.254 153.212 359.082 153.04 359.082 152.827V149.413C359.082 149.2 359.254 149.028 359.467 149.028C359.68 149.028 359.852 149.2 359.852 149.413V152.827C359.856 153.04 359.68 153.212 359.467 153.212Z" fill="#121924"/>
<path d="M365.557 147.128H362.143C361.929 147.128 361.758 146.956 361.758 146.742C361.758 146.529 361.929 146.357 362.143 146.357H365.557C365.771 146.357 365.942 146.529 365.942 146.742C365.942 146.956 365.767 147.128 365.557 147.128Z" fill="#121924"/>
<path d="M356.792 147.126H353.377C353.164 147.126 352.992 146.955 352.992 146.741C352.992 146.527 353.164 146.355 353.377 146.355H356.792C357.005 146.355 357.177 146.527 357.177 146.741C357.177 146.955 357.005 147.126 356.792 147.126Z" fill="#121924"/>
<path d="M355.16 151.431C355.06 151.431 354.964 151.393 354.888 151.318C354.738 151.167 354.738 150.925 354.888 150.774L357.303 148.36C357.453 148.209 357.696 148.209 357.847 148.36C357.997 148.511 357.997 148.753 357.847 148.904L355.432 151.318C355.361 151.393 355.261 151.431 355.16 151.431Z" fill="#121924"/>
<path d="M361.36 145.234C361.259 145.234 361.163 145.197 361.088 145.122C360.937 144.971 360.937 144.728 361.088 144.578L363.502 142.164C363.653 142.013 363.895 142.013 364.046 142.164C364.197 142.314 364.197 142.557 364.046 142.708L361.632 145.122C361.56 145.197 361.46 145.234 361.36 145.234Z" fill="#121924"/>
<path d="M357.575 145.235C357.474 145.235 357.378 145.197 357.303 145.122L354.888 142.708C354.738 142.557 354.738 142.315 354.888 142.164C355.039 142.014 355.282 142.014 355.432 142.164L357.847 144.578C357.997 144.729 357.997 144.971 357.847 145.122C357.771 145.197 357.675 145.235 357.575 145.235Z" fill="#121924"/>
<path d="M363.774 151.43C363.674 151.43 363.577 151.393 363.502 151.317L361.088 148.903C360.937 148.753 360.937 148.51 361.088 148.36C361.238 148.209 361.481 148.209 361.632 148.36L364.046 150.773C364.197 150.924 364.197 151.167 364.046 151.317C363.971 151.393 363.874 151.43 363.774 151.43Z" fill="#121924"/>
<path d="M403.132 141.286C404.723 142.876 406.313 144.466 407.903 146.051C408.3 146.449 408.915 145.834 408.518 145.436C406.928 143.846 405.338 142.257 403.748 140.671C403.35 140.274 402.735 140.889 403.132 141.286Z" fill="#7EB951"/>
<path d="M518.68 177.747C519.325 176.801 519.973 175.851 520.618 174.906C520.752 174.714 520.655 174.425 520.463 174.312C520.25 174.186 519.999 174.274 519.869 174.467C519.224 175.412 518.576 176.362 517.931 177.307C517.797 177.5 517.894 177.788 518.086 177.901C518.3 178.027 518.547 177.939 518.68 177.747Z" fill="#7EB951"/>
<path d="M421.644 278.804C423.397 276.265 425.155 273.726 426.908 271.186C427.226 270.726 426.473 270.291 426.155 270.747C424.402 273.286 422.644 275.826 420.891 278.365C420.573 278.83 421.33 279.265 421.644 278.804Z" fill="#7EB951"/>
<path d="M610.344 142.136C612.097 139.597 613.855 137.057 615.608 134.518C615.926 134.058 615.173 133.622 614.855 134.078C613.101 136.618 611.344 139.157 609.591 141.697C609.277 142.157 610.03 142.592 610.344 142.136Z" fill="#7EB951"/>
<path d="M586.307 181.867C588.658 184.754 591.01 187.641 593.362 190.531C593.717 190.967 594.328 190.347 593.977 189.916C591.625 187.03 589.273 184.143 586.922 181.252C586.566 180.817 585.955 181.436 586.307 181.867Z" fill="#7EB951"/>
<path d="M344.569 182.005C342.217 179.118 339.865 176.232 337.513 173.341C337.158 172.906 336.547 173.525 336.898 173.956C339.25 176.842 341.602 179.729 343.953 182.62C344.305 183.055 344.916 182.436 344.569 182.005Z" fill="#7EB951"/>
<path d="M373.361 257.116C372.009 254.841 370.427 252.703 368.645 250.745C368.268 250.331 367.653 250.946 368.03 251.36C369.762 253.263 371.294 255.338 372.608 257.556C372.896 258.037 373.65 257.602 373.361 257.116Z" fill="#7EB951"/>
<path d="M679.984 237.638C678.632 235.363 677.051 233.225 675.268 231.267C674.891 230.853 674.276 231.468 674.653 231.882C676.385 233.785 677.917 235.86 679.231 238.078C679.519 238.559 680.273 238.12 679.984 237.638Z" fill="#7EB951"/>
<path d="M629.781 276.697C628.429 274.421 626.847 272.283 625.065 270.325C624.688 269.911 624.073 270.526 624.45 270.94C626.182 272.843 627.714 274.919 629.028 277.136C629.312 277.617 630.065 277.178 629.781 276.697Z" fill="#7EB951"/>
<path d="M659.505 170.123C658.154 167.847 656.572 165.71 654.789 163.752C654.413 163.338 653.798 163.953 654.174 164.367C655.907 166.27 657.438 168.345 658.752 170.558C659.041 171.044 659.79 170.609 659.505 170.123Z" fill="#7EB951"/>
<path d="M334.346 224.903C336.722 222.193 339.095 219.482 341.472 216.771C341.84 216.352 341.225 215.733 340.857 216.156C338.48 218.867 336.107 221.578 333.731 224.288C333.362 224.707 333.977 225.326 334.346 224.903Z" fill="#7EB951"/>
<path d="M683.146 151.649C685.523 148.938 687.896 146.227 690.273 143.516C690.641 143.097 690.026 142.478 689.658 142.901C687.281 145.612 684.908 148.323 682.531 151.034C682.163 151.456 682.778 152.071 683.146 151.649Z" fill="#7EB951"/>
<path d="M419.271 163.364C421.648 160.653 424.021 157.942 426.398 155.231C426.766 154.813 426.151 154.194 425.783 154.616C423.406 157.327 421.033 160.038 418.656 162.749C418.288 163.167 418.903 163.782 419.271 163.364Z" fill="#7EB951"/>
<path d="M611.521 58.4056C613.111 59.9954 614.701 61.5851 616.291 63.1707C616.689 63.5682 617.304 62.9532 616.907 62.5557C615.316 60.966 613.726 59.3762 612.136 57.7906C611.739 57.3932 611.124 58.0082 611.521 58.4056Z" fill="#7EB951"/>
<path d="M548.914 76.0023C550.504 77.5921 552.094 79.1818 553.684 80.7674C554.082 81.1648 554.697 80.5499 554.299 80.1524C552.709 78.5627 551.119 76.9729 549.529 75.3873C549.131 74.9899 548.516 75.6049 548.914 76.0023Z" fill="#7EB951"/>
<path d="M627.659 80.4825C630.035 77.7716 632.408 75.0606 634.785 72.3497C635.153 71.9313 634.538 71.3122 634.17 71.7347C631.793 74.4457 629.42 77.1566 627.044 79.8676C626.675 80.2859 627.286 80.9051 627.659 80.4825Z" fill="#7EB951"/>
<path d="M448.141 62.3258C450.517 59.6149 452.89 56.9039 455.267 54.1929C455.635 53.7746 455.02 53.1554 454.652 53.578C452.275 56.2889 449.902 58.9999 447.525 61.7108C447.157 62.1292 447.772 62.7484 448.141 62.3258Z" fill="#7EB951"/>
<path d="M475.643 94.067C478.019 91.3561 480.392 88.6451 482.769 85.9342C483.137 85.5158 482.522 84.8966 482.154 85.3192C479.777 88.0301 477.404 90.7411 475.027 93.452C474.659 93.8704 475.274 94.4896 475.643 94.067Z" fill="#7EB951"/>
<path d="M630.208 217.209C627.832 219.92 625.459 222.631 623.082 225.342C622.714 225.761 623.329 226.38 623.697 225.957C626.074 223.246 628.447 220.535 630.823 217.824C631.192 217.406 630.581 216.787 630.208 217.209Z" fill="#7EB951"/>
</g>
<defs>
<clipPath id="clip0_2114_14439">
<rect width="1024" height="302" rx="6" fill="white"/>
</clipPath>
</defs>
</svg>
