<svg width="1024" height="302" viewBox="0 0 1024 302" fill="none" xmlns="http://www.w3.org/2000/svg">
<g clip-path="url(#clip0_2113_14172)">
<path d="M1024 0H0V302H1024V0Z" fill="#EFF1F3"/>
<path d="M601.23 258.844H560.801L561.253 141.45C575.358 135.176 588.465 136.665 601.305 141.677L601.23 258.844Z" fill="white"/>
<path d="M559.412 260.236C559.044 259.867 558.84 259.365 558.84 258.84L559.292 141.45C559.297 140.676 559.754 139.974 560.459 139.658C573.557 133.828 586.766 133.891 602.02 139.849C602.774 140.143 603.271 140.872 603.271 141.686L603.196 258.849C603.196 259.934 602.317 260.819 601.23 260.819H560.801C560.282 260.814 559.78 260.605 559.412 260.236ZM599.34 143.037C586.109 138.128 574.56 138.035 563.21 142.753L562.771 256.874H599.264L599.34 143.037Z" fill="#424243"/>
<path d="M583.25 169.671L588.885 205.723H570.578L576.306 168.995L583.25 169.671Z" fill="#7F94C4"/>
<path d="M575.467 167.909L584.115 168.754L590.047 206.723H569.42L575.467 167.909ZM582.389 170.586L577.145 170.075L571.745 204.722H587.722L582.389 170.586Z" fill="#444445"/>
<path d="M588.055 161.204L579.78 175.789L572.326 161.204L579.78 156.148L588.055 161.204Z" fill="#7F94C4"/>
<path d="M571.039 160.871L579.749 154.961L589.395 160.853L579.731 177.888L571.039 160.871ZM579.806 157.336L573.612 161.538L579.824 173.695L586.715 161.556L579.806 157.336Z" fill="#444445"/>
<path d="M490.866 167.31C490.994 162.214 495.05 158.279 500.192 158.416C502.632 158.479 504.9 159.488 506.577 161.253C508.254 163.019 509.146 165.34 509.079 167.776C509.079 167.825 509.092 177.31 514.177 182.49C516.6 184.954 519.985 186.154 524.528 186.154C529.795 186.154 534.982 184.549 537.249 172.899L537.631 170.942H537.671C538.101 167.016 539.064 162.979 540.342 159.466C543.549 150.635 551.531 142.658 562.956 138.576C565.122 137.531 565.082 139.643 564.878 140.968L566.133 140.426L580.194 197.773L593.62 140.426L598.114 142.591V142.129C598.114 142.129 595.364 137.104 598.545 138.576C610.462 142.658 619.727 150.933 623.072 159.768C624.887 164.57 625.171 170.044 625.171 175.189L625.184 180.632H625.215V278.732H607.685V266.006L597.848 265.744V262.862L564.922 264.325L564.926 265.539L551.802 266.095V186.803C547.516 196.39 539.467 204.421 524.528 204.421C514.927 204.421 507.043 201.322 501.093 195.203C490.528 184.34 490.848 167.999 490.866 167.31Z" fill="#333333"/>
<path d="M581.816 257.095H581.168H554.219V395.638H578.316V286.661H584.669V395.638H608.77V257.095H581.816Z" fill="#333333"/>
<g opacity="0.49">
<path d="M607.751 252.203H553.119V267.419H607.751V252.203Z" fill="#404041"/>
</g>
<path d="M579.381 155.935C572.473 155.935 566.869 150.324 566.869 143.396V131.284C566.869 124.36 572.469 118.744 579.381 118.744C586.289 118.744 591.893 124.356 591.893 131.284V143.396C591.893 150.324 586.289 155.935 579.381 155.935Z" fill="#77625E"/>
<path d="M566.271 143.4V131.288C566.271 124.04 572.155 118.144 579.387 118.144C586.619 118.144 592.498 124.04 592.498 131.288V143.4C592.498 150.648 586.615 156.544 579.387 156.544C572.155 156.544 566.271 150.648 566.271 143.4ZM567.478 131.288V143.4C567.478 149.981 572.82 155.335 579.387 155.335C585.954 155.335 591.291 149.981 591.291 143.4V131.288C591.291 124.707 585.949 119.353 579.387 119.353C572.82 119.353 567.478 124.707 567.478 131.288Z" fill="#424243"/>
<path d="M614.211 282.734C621.293 282.734 627.034 277.166 627.034 270.297C627.034 263.428 621.293 257.86 614.211 257.86C607.13 257.86 601.389 263.428 601.389 270.297C601.389 277.166 607.13 282.734 614.211 282.734Z" fill="#77625E"/>
<path d="M610.658 279.306C617.802 279.306 623.596 273.481 623.596 266.291C623.596 263.605 622.789 261.111 621.4 259.039C624.625 261.404 626.729 265.224 626.729 269.546C626.729 276.736 620.938 282.561 613.791 282.561C609.314 282.561 605.374 280.275 603.049 276.798C605.183 278.368 607.81 279.306 610.658 279.306Z" fill="#997F7B"/>
<path d="M600.354 270.298C600.354 262.868 606.57 256.82 614.214 256.82C621.855 256.82 628.071 262.863 628.071 270.298C628.071 277.728 621.855 283.776 614.214 283.776C606.57 283.771 600.354 277.728 600.354 270.298ZM602.421 270.298C602.421 276.585 607.71 281.699 614.21 281.699C620.71 281.699 625.999 276.585 625.999 270.298C625.999 264.01 620.71 258.897 614.21 258.897C607.71 258.897 602.421 264.01 602.421 270.298Z" fill="#424243"/>
<path d="M549.749 114.038C550.126 125.119 561.179 133.661 577.329 133.363L577.892 133.354C593.945 133.061 604.784 124.132 605.175 113.158L609.101 70.5282C609.541 58.1266 595.667 47.8639 577.999 47.9083H577.378C559.59 47.9528 545.441 58.4156 545.867 70.955L549.749 114.038Z" fill="#77625E"/>
<path d="M571.499 48.3218L571.739 133.105C558.202 131.615 550.082 123.82 549.749 114.038L545.867 70.9549C545.485 59.8518 556.551 50.3761 571.499 48.3218Z" fill="#997F7B"/>
<path d="M549.177 114.047L545.264 70.9599C545.051 64.7703 548.263 58.8652 554.351 54.3741C560.447 49.8786 568.642 47.3752 577.374 47.3574H577.99C578.03 47.3574 578.066 47.3574 578.101 47.3574C596.031 47.3574 610.131 57.8781 609.679 70.5286L605.725 113.154C605.526 118.641 602.238 123.781 596.488 127.663C590.813 131.491 585.782 133.67 577.884 133.817L577.32 133.826C577.285 133.826 577.254 133.826 577.218 133.826C560.851 134.088 549.572 125.351 549.177 114.047ZM577.995 48.4602H577.378C568.93 48.4824 561.015 50.8925 555.136 55.2234C549.337 59.4966 546.271 65.0904 546.466 70.9466L550.322 114.025C550.681 124.808 561.45 133.159 577.236 132.905C577.267 132.905 577.303 132.905 577.334 132.905L577.897 132.896C585.555 132.759 590.352 130.651 595.831 126.947C601.311 123.243 604.443 118.361 604.621 113.163L608.516 70.5286C608.938 58.4694 595.352 48.4513 578.106 48.4557C578.066 48.4602 578.03 48.4602 577.995 48.4602Z" fill="#424243"/>
<path d="M556.671 93.7354C559.741 93.7354 562.235 95.8742 562.235 98.511C562.235 101.148 559.746 103.287 556.671 103.287C553.6 103.287 551.111 101.148 551.111 98.511C551.111 95.8742 553.6 93.7354 556.671 93.7354Z" fill="#C27E77"/>
<path d="M587.466 93.7363C590.536 93.7363 593.025 95.8751 593.025 98.512C593.025 101.149 590.536 103.288 587.466 103.288C584.395 103.288 581.906 101.149 581.906 98.512C581.902 95.8751 584.391 93.7363 587.466 93.7363Z" fill="#C27E77"/>
<path d="M570.965 101.41C571.75 101.41 572.522 101.157 573.099 100.668C573.343 100.463 573.374 100.094 573.165 99.854C572.961 99.6095 572.593 99.5783 572.349 99.7873C571.71 100.33 570.592 100.405 569.807 99.9607C569.052 99.5339 568.6 98.6757 568.689 97.8264C568.773 97.0038 569.35 96.19 570.188 95.7054C570.561 95.4875 570.969 95.3363 571.404 95.2518L571.874 95.1629L571.861 90.9208C571.861 90.6007 571.604 90.3428 571.284 90.3428C570.965 90.3428 570.707 90.6051 570.707 90.9208L570.716 94.2291C570.33 94.3447 569.957 94.5003 569.611 94.7004C568.44 95.3808 567.664 96.5057 567.544 97.7063C567.411 99.0047 568.094 100.316 569.243 100.966C569.762 101.264 570.366 101.41 570.965 101.41Z" fill="#424243"/>
<path d="M605.812 85.5879C605.812 85.5879 615.085 86.2149 614.65 93.4806C614.216 100.746 604.934 100.186 604.934 100.186L605.812 85.5879Z" fill="#77625E"/>
<path d="M608.139 99.0162C609.199 98.9228 610.765 98.6071 611.968 97.6111C613.082 96.6906 613.712 95.3211 613.836 93.5335C614.022 90.8478 612.474 87.9531 609.652 87.166C609.199 87.0415 608.738 86.9615 608.272 86.9037C607.708 86.8325 607.287 86.539 607.136 85.9521C607.038 85.5786 607.07 85.1873 607.096 84.8049C607.105 84.6759 607.118 84.5425 607.194 84.4403C607.544 83.9778 609.155 84.6315 609.594 84.7515C610.3 84.9427 610.987 85.2051 611.644 85.5341C613.108 86.2723 614.404 87.375 615.233 88.8068C616.09 90.2875 616.369 92.0083 616.254 93.7025C616.085 96.1392 615.167 98.0557 613.534 99.3986C610.863 101.586 607.225 101.4 606.777 101.368C606.759 101.368 606.741 101.364 606.737 101.364C606.076 101.306 605.45 101.635 605.494 100.999L605.579 100.083C605.636 99.4519 606.191 98.9717 606.848 98.9806C607.482 98.9939 608.139 99.0073 608.139 99.0162Z" fill="#424243"/>
<path d="M607.693 88.4551C607.693 88.4551 612.05 88.8375 611.793 93.1195C611.535 97.4016 607.174 97.0592 607.174 97.0592L607.693 88.4551Z" fill="#997F7B"/>
<path d="M582.391 86.3621C582.395 87.5894 583.389 88.5854 584.618 88.5809C585.843 88.5765 586.836 87.5805 586.832 86.3488C586.828 85.1215 585.834 84.1255 584.605 84.1299C583.38 84.1343 582.391 85.1304 582.391 86.3621Z" fill="#424243"/>
<path d="M556.832 86.3606C556.836 87.5879 557.83 88.5839 559.059 88.5795C560.284 88.575 561.278 87.579 561.273 86.3473C561.269 85.12 560.275 84.124 559.046 84.1284C557.821 84.1329 556.828 85.1289 556.832 86.3606Z" fill="#424243"/>
<path d="M557.415 81.5303H563.094C563.378 81.5303 563.605 81.2991 563.605 81.019C563.605 80.1697 562.917 79.4805 562.069 79.4805H558.436C557.588 79.4805 556.9 80.1697 556.9 81.019C556.9 81.3036 557.131 81.5303 557.415 81.5303Z" fill="#424243"/>
<path d="M582.513 81.5313H588.192C588.476 81.5313 588.702 81.3001 588.702 81.02C588.702 80.1707 588.014 79.4814 587.167 79.4814H583.533C582.686 79.4814 581.998 80.1707 581.998 81.02C582.002 81.3045 582.229 81.5313 582.513 81.5313Z" fill="#424243"/>
<path d="M593.617 140.429L579.969 156.148L592.481 163.734L593.617 140.429Z" fill="white"/>
<path d="M591.466 165.42L578.954 157.834C578.457 157.531 578.12 157.029 578.031 156.455C577.942 155.882 578.111 155.295 578.492 154.859L592.14 139.14C592.686 138.509 593.578 138.295 594.354 138.607C595.131 138.918 595.623 139.692 595.583 140.528L594.448 163.832C594.412 164.526 594.017 165.148 593.409 165.473C593.121 165.629 592.801 165.704 592.486 165.704C592.131 165.704 591.776 165.611 591.466 165.42ZM582.987 155.677L590.685 160.342L591.386 146.006L582.987 155.677Z" fill="#424243"/>
<path d="M566.127 140.43L579.775 156.148L567.263 163.734L566.127 140.43Z" fill="white"/>
<path d="M566.342 165.473C565.73 165.148 565.335 164.526 565.304 163.832L564.168 140.528C564.128 139.692 564.621 138.918 565.397 138.607C566.174 138.295 567.061 138.504 567.611 139.14L581.259 154.859C581.641 155.299 581.809 155.882 581.721 156.455C581.632 157.029 581.295 157.536 580.798 157.834L568.286 165.42C567.975 165.606 567.62 165.704 567.27 165.704C566.95 165.704 566.631 165.629 566.342 165.473ZM568.366 146.006L569.067 160.342L576.765 155.677L568.366 146.006Z" fill="#424243"/>
<path d="M608.226 85.3106C605.191 84.5369 603.385 81.3576 602.684 78.2984C601.983 75.2391 602.019 72.0065 600.936 69.0628C599.512 65.1943 596.104 62.1261 592.116 61.1167C583.437 58.9246 573.938 66.0525 565.716 62.5174C562.801 61.2635 559.531 58.7467 556.891 60.5076C553.914 62.4907 551.358 64.1671 550.001 67.4798C548.643 70.7925 548.394 74.4387 548 78.0005C547.76 80.1615 548.483 83.5854 547.165 85.3151C546.624 80.744 545.351 75.2747 545.573 70.6769C545.692 68.1557 545.941 65.5945 546.921 63.2689C547.982 60.7521 549.85 58.6622 551.882 56.8391C563.329 46.5764 580.717 44.3042 595.146 49.5734C597.906 50.5828 600.617 51.8634 602.813 53.8243C606.899 57.4705 608.727 62.9977 609.93 68.3514C611.216 74.0875 610.728 79.9836 608.226 85.3106Z" fill="#797979"/>
<path d="M607.925 86.4796C604.864 85.697 602.464 82.74 601.51 78.5647C601.217 77.2974 601.048 76.0079 600.889 74.7584C600.644 72.8908 600.414 71.1256 599.806 69.4714C598.51 65.9497 595.453 63.1973 591.824 62.2813C588.044 61.3297 584.082 62.2768 579.884 63.2862C575.017 64.4512 569.981 65.6607 565.242 63.6242C564.59 63.344 563.925 63.0061 563.25 62.6637C560.712 61.3653 558.947 60.5871 557.465 61.5743C554.594 63.4863 552.322 64.9982 551.12 67.9374C549.988 70.6942 549.66 73.8202 549.341 76.8394L549.203 78.1289C549.137 78.7337 549.154 79.4985 549.176 80.3122C549.225 82.2865 549.283 84.5231 548.129 86.0439C547.832 86.4352 547.326 86.6041 546.852 86.4752C546.377 86.3462 546.031 85.9416 545.969 85.4525C545.809 84.0918 545.583 82.6644 545.343 81.1526C544.784 77.6087 544.207 73.9447 544.367 70.6097C544.491 68.0307 544.753 65.2961 545.813 62.7882C546.807 60.4404 548.48 58.2616 551.08 55.9316C562.336 45.8423 580.213 42.8275 595.56 48.4346C599.061 49.7108 601.621 51.1381 603.613 52.9168C608.138 56.9543 609.993 63.1395 611.102 68.0796C612.491 74.2515 611.874 80.3878 609.319 85.826C609.115 86.2573 608.684 86.5196 608.227 86.5196C608.125 86.5196 608.023 86.5063 607.925 86.4796ZM552.682 57.7324C550.357 59.8179 548.879 61.7255 548.027 63.7309C547.113 65.8919 546.883 68.3687 546.772 70.7254C546.696 72.3261 546.807 74.0559 547.011 75.8211C547.326 72.8686 547.717 69.8449 548.879 67.0125C550.366 63.3929 553.161 61.5298 556.218 59.4933C558.88 57.7191 561.777 59.1998 564.337 60.5027C564.963 60.8228 565.58 61.1385 566.188 61.4009C570.194 63.1217 574.622 62.059 579.316 60.934C583.611 59.9024 588.057 58.8396 592.41 59.9379C596.798 61.0451 600.498 64.3801 602.069 68.6399C602.77 70.5431 603.027 72.5262 603.28 74.4472C603.444 75.6922 603.595 76.8661 603.861 78.0267C604.114 79.125 605.077 82.4999 607.579 83.7805C609.523 79.0849 609.926 73.8647 608.746 68.6088C607.717 64.0244 606.018 58.3016 602.007 54.7221C600.25 53.1524 597.938 51.8763 594.73 50.7068C589.841 48.9193 584.681 48.0567 579.587 48.0567C569.533 48.0522 559.723 51.4227 552.682 57.7324Z" fill="#444445"/>
<path d="M571.254 117.374C579.507 117.374 583.522 110.175 583.571 110.081C583.731 109.788 583.62 109.423 583.332 109.263C583.039 109.103 582.675 109.21 582.511 109.503C582.276 109.935 576.632 119.997 564.51 114.586C564.213 114.452 563.849 114.586 563.712 114.893C563.574 115.2 563.712 115.555 564.018 115.693C566.715 116.894 569.125 117.374 571.254 117.374Z" fill="#444445"/>
<path d="M520.625 180.129C526.961 169.012 518.056 157.18 506.547 157.94L512.244 186.581C515.78 185.287 518.815 183.397 520.625 180.129Z" fill="#D1D0CF"/>
<path d="M537.359 181.583L531.476 151.996L506.363 157.011L506.55 157.941C518.059 157.18 526.968 169.013 520.628 180.129C518.818 183.397 515.783 185.287 512.242 186.581L512.247 186.599L537.359 181.583Z" fill="white"/>
<path d="M537.505 182.334L512.393 187.35C511.98 187.434 511.576 187.163 511.496 186.749L505.613 157.162C505.529 156.748 505.799 156.344 506.212 156.264L531.325 151.248C531.738 151.163 532.141 151.435 532.221 151.848L538.104 181.436C538.184 181.849 537.918 182.249 537.505 182.334ZM512.841 185.7L536.454 180.982L530.868 152.893L507.255 157.611L512.841 185.7Z" fill="#404041"/>
<path d="M530.385 146.52C530.163 145.399 529.076 144.675 527.958 144.897L506.892 149.103C505.774 149.326 505.051 150.415 505.272 151.536L506.359 157.005L531.472 151.989L530.385 146.52Z" fill="white"/>
<path d="M531.62 152.74L506.507 157.756C506.095 157.841 505.691 157.569 505.611 157.156L504.524 151.687C504.218 150.152 505.216 148.658 506.742 148.356L527.809 144.15C529.34 143.843 530.83 144.843 531.132 146.373L532.219 151.842C532.299 152.256 532.033 152.66 531.62 152.74ZM506.955 156.106L530.569 151.389L529.628 146.666C529.486 145.959 528.803 145.501 528.097 145.644L507.031 149.85C506.33 149.992 505.868 150.677 506.01 151.384L506.955 156.106Z" fill="#404041"/>
<path d="M512.246 186.598L512.783 189.297C513.005 190.418 514.092 191.143 515.21 190.92L536.276 186.714C537.394 186.492 538.118 185.402 537.896 184.282L537.359 181.583L512.246 186.598Z" fill="white"/>
<path d="M536.422 187.46L515.356 191.667C513.825 191.973 512.334 190.973 512.033 189.443L511.496 186.749C511.412 186.335 511.682 185.931 512.095 185.851L537.208 180.835C537.62 180.75 538.024 181.022 538.104 181.435L538.641 184.13C538.947 185.664 537.953 187.158 536.422 187.46ZM513.146 187.198L513.532 189.145C513.674 189.852 514.358 190.31 515.063 190.168L536.13 185.962C536.831 185.819 537.292 185.135 537.15 184.428L536.764 182.48L513.146 187.198Z" fill="#404041"/>
<path d="M509.832 152.422C509.96 153.071 509.539 153.707 508.891 153.836C508.243 153.965 507.609 153.542 507.48 152.893C507.351 152.244 507.773 151.608 508.421 151.479C509.073 151.35 509.703 151.773 509.832 152.422Z" fill="#424243"/>
<path d="M509.378 152.51C509.458 152.911 509.201 153.297 508.802 153.377C508.402 153.458 508.016 153.2 507.936 152.799C507.857 152.399 508.114 152.012 508.513 151.932C508.913 151.852 509.303 152.115 509.378 152.51Z" fill="#F1F1F2"/>
<path d="M511.683 152.052C511.736 152.324 511.563 152.586 511.293 152.639C511.022 152.693 510.76 152.519 510.707 152.248C510.654 151.977 510.827 151.714 511.097 151.661C511.364 151.608 511.625 151.781 511.683 152.052Z" fill="#424243"/>
<path d="M504.279 186.252C512.536 186.252 519.231 179.758 519.231 171.747C519.231 163.737 512.536 157.243 504.279 157.243C496.021 157.243 489.326 163.737 489.326 171.747C489.326 179.758 496.021 186.252 504.279 186.252Z" fill="#77625E"/>
<path d="M508.424 182.249C500.096 182.249 493.343 175.455 493.343 167.073C493.343 163.943 494.288 161.035 495.903 158.616C492.145 161.377 489.691 165.828 489.691 170.871C489.691 179.252 496.444 186.047 504.772 186.047C509.99 186.047 514.587 183.379 517.298 179.328C514.804 181.155 511.747 182.249 508.424 182.249Z" fill="#997F7B"/>
<path d="M504.278 187.456C495.369 187.456 488.119 180.408 488.119 171.742C488.119 163.08 495.369 156.028 504.278 156.028C513.188 156.028 520.438 163.076 520.438 171.742C520.438 180.408 513.188 187.456 504.278 187.456ZM504.278 158.451C496.7 158.451 490.533 164.414 490.533 171.747C490.533 179.075 496.7 185.042 504.278 185.042C511.857 185.042 518.024 179.079 518.024 171.747C518.024 164.414 511.857 158.451 504.278 158.451Z" fill="#424243"/>
<path d="M546.05 81.7651H543.934V87.9415H546.05V81.7651Z" fill="#515151"/>
<path d="M546.049 88.5199H543.932C543.613 88.5199 543.355 88.262 543.355 87.9419V81.7656C543.355 81.4454 543.613 81.1875 543.932 81.1875H546.049C546.368 81.1875 546.625 81.4454 546.625 81.7656V87.9419C546.625 88.2576 546.368 88.5199 546.049 88.5199ZM544.509 87.3638H545.472V82.3436H544.509V87.3638Z" fill="#424243"/>
<path opacity="0.36" d="M569.426 86.9627C569.523 86.4247 569.949 81.7958 569.488 81.7646C569.439 81.7646 545.923 81.7646 545.923 81.7646C545.848 81.7646 545.906 86.0067 545.95 86.358C546.087 87.4785 546.425 88.5457 546.957 89.4973H568.498C568.929 88.7191 569.261 87.8743 569.426 86.9627Z" fill="white"/>
<path opacity="0.61" d="M546.953 89.4976C547.49 90.4625 548.227 91.3162 549.163 91.9876C553.005 94.7623 558.977 95.0869 563.392 93.6462C563.534 93.6018 563.676 93.5484 563.813 93.495C565.792 92.7436 567.469 91.3162 568.494 89.4976H546.953Z" fill="white"/>
<path d="M557.855 95.079C554.722 95.079 551.39 94.3453 548.808 92.4777C546.887 91.0904 545.658 88.9427 545.352 86.4303C545.347 86.3859 545.099 81.7837 545.467 81.3657L545.645 81.1611H545.92C548.329 81.1611 569.44 81.1611 569.488 81.1611C569.724 81.1745 569.897 81.2723 570.025 81.4324C570.638 82.2239 570.025 87.0217 570.016 87.0662C569.457 90.1833 567.159 92.8601 564.022 94.0562C563.871 94.114 563.725 94.163 563.574 94.2163C561.937 94.7543 559.94 95.079 557.855 95.079ZM546.488 82.3706C546.474 83.4734 546.514 85.9857 546.545 86.288C546.816 88.4624 547.867 90.3167 549.513 91.5039C552.912 93.954 558.543 94.6032 563.201 93.078C563.334 93.0335 563.468 92.9891 563.596 92.9357C566.343 91.8907 568.348 89.5607 568.832 86.8572C568.934 86.3014 569.169 83.3711 569.076 82.3662C566.391 82.3706 549.78 82.3706 546.488 82.3706Z" fill="#424243"/>
<path opacity="0.36" d="M600.104 86.3599C600.149 86.0087 600.207 81.7666 600.131 81.7666C600.131 81.7666 576.611 81.7666 576.562 81.7666C576.101 81.7977 576.527 86.4266 576.624 86.9647C576.789 87.8762 577.121 88.7211 577.561 89.4992H599.102C599.63 88.5477 599.967 87.4805 600.104 86.3599Z" fill="white"/>
<path opacity="0.61" d="M577.559 89.4985C578.584 91.3216 580.265 92.7445 582.24 93.496C582.377 93.5494 582.519 93.5983 582.661 93.6472C587.076 95.0879 593.043 94.7633 596.89 91.9886C597.826 91.3127 598.563 90.4634 599.1 89.4985H577.559Z" fill="white"/>
<path d="M588.196 95.0784C586.111 95.0784 584.114 94.7538 582.477 94.2202C582.326 94.1713 582.175 94.118 582.029 94.0601C578.892 92.864 576.594 90.1872 576.035 87.0701C576.026 87.0256 575.413 82.2233 576.026 81.4363C576.15 81.2762 576.327 81.1784 576.523 81.165C576.607 81.165 597.722 81.165 600.131 81.165H600.402L600.584 81.3696C600.952 81.7876 600.704 86.3898 600.699 86.4343C600.389 88.9466 599.16 91.0943 597.243 92.4816C594.656 94.3447 591.329 95.0784 588.196 95.0784ZM582.455 92.9352C582.588 92.9841 582.717 93.033 582.85 93.0775C587.513 94.6026 593.143 93.9534 596.537 91.5034C598.184 90.3161 599.235 88.4663 599.506 86.2875C599.537 85.9852 599.577 83.4728 599.563 82.3701C596.285 82.3701 579.784 82.3701 576.971 82.3701C576.878 83.375 577.113 86.3009 577.215 86.8567C577.703 89.5602 579.708 91.8858 582.455 92.9352Z" fill="#424243"/>
<path d="M554.99 84.5842H543.934V79.9375H554.99C555.678 79.9375 556.237 80.4978 556.237 81.187V83.3347C556.237 84.0239 555.678 84.5842 554.99 84.5842Z" fill="#515151"/>
<path d="M554.989 85.1622H543.932C543.613 85.1622 543.355 84.9043 543.355 84.5841V79.9374C543.355 79.6173 543.613 79.3594 543.932 79.3594H554.989C555.996 79.3594 556.813 80.1776 556.813 81.1869V83.3346C556.813 84.3396 555.996 85.1622 554.989 85.1622ZM544.509 84.0061H554.989C555.357 84.0061 555.659 83.7037 555.659 83.3346V81.1869C555.659 80.8179 555.357 80.5155 554.989 80.5155H544.509V84.0061Z" fill="#424243"/>
<path d="M603.916 81.7393H600.256V83.6513H603.916V81.7393Z" fill="#515151"/>
<path d="M603.913 84.2293H600.253C599.933 84.2293 599.676 83.9714 599.676 83.6512V81.7392C599.676 81.419 599.933 81.1611 600.253 81.1611H603.913C604.232 81.1611 604.49 81.419 604.49 81.7392V83.6512C604.49 83.9714 604.232 84.2293 603.913 84.2293ZM600.829 83.0732H603.336V82.3172H600.829V83.0732Z" fill="#424243"/>
<path d="M552.288 82.1212C552.288 82.6815 551.835 83.1306 551.281 83.1306C550.726 83.1306 550.273 82.677 550.273 82.1212C550.273 81.5609 550.726 81.1118 551.281 81.1118C551.835 81.1118 552.288 81.5609 552.288 82.1212Z" fill="#D1D1D1"/>
<path d="M551.274 83.4205C550.56 83.4205 549.979 82.838 549.979 82.1221C549.979 81.4062 550.56 80.8237 551.274 80.8237C551.988 80.8237 552.57 81.4062 552.57 82.1221C552.57 82.838 551.988 83.4205 551.274 83.4205ZM551.274 81.4018C550.875 81.4018 550.555 81.7264 550.555 82.1221C550.555 82.5179 550.879 82.8425 551.274 82.8425C551.669 82.8425 551.993 82.5179 551.993 82.1221C551.993 81.7219 551.673 81.4018 551.274 81.4018Z" fill="#424243"/>
<path d="M548.762 82.1207C548.762 82.681 548.31 83.1301 547.755 83.1301C547.196 83.1301 546.748 82.6765 546.748 82.1207C546.748 81.5604 547.201 81.1113 547.755 81.1113C548.31 81.1113 548.762 81.5604 548.762 82.1207Z" fill="#D1D1D1"/>
<path d="M547.749 83.4191C547.034 83.4191 546.453 82.8366 546.453 82.1207C546.453 81.4048 547.034 80.8223 547.749 80.8223C548.463 80.8223 549.044 81.4048 549.044 82.1207C549.044 82.8366 548.463 83.4191 547.749 83.4191ZM547.749 81.4003C547.354 81.4003 547.03 81.7249 547.03 82.1207C547.03 82.5164 547.354 82.841 547.749 82.841C548.144 82.841 548.467 82.5164 548.467 82.1207C548.472 81.7205 548.148 81.4003 547.749 81.4003Z" fill="#424243"/>
<path d="M576.393 81.8057H569.822V83.9356H576.393V81.8057Z" fill="#515151"/>
<path d="M576.392 84.585H569.821C569.501 84.585 569.244 84.2959 569.244 83.9402V81.8103C569.244 81.4546 569.501 81.1655 569.821 81.1655H576.392C576.711 81.1655 576.969 81.4546 576.969 81.8103V83.9402C576.969 84.2959 576.711 84.585 576.392 84.585ZM570.398 83.2954H575.815V82.4506H570.398V83.2954Z" fill="#424243"/>
<path d="M554.788 83.6772H553.825C553.613 83.6772 553.439 83.5038 553.439 83.2904V81.2316C553.439 81.0182 553.613 80.8447 553.825 80.8447H554.788C555.001 80.8447 555.174 81.0182 555.174 81.2316V83.2904C555.174 83.5038 555.001 83.6772 554.788 83.6772Z" fill="#EAEAEA"/>
<path opacity="0.58" d="M561.49 27.6191H404.672V130.624H561.49V27.6191Z" fill="#5ABA47"/>
<path d="M471.251 109.427C463.975 110.53 456.561 108.244 449.347 106.017C447.696 105.505 445.983 104.981 444.337 104.518C443.264 104.216 442.159 103.922 441.089 103.642C438.596 102.984 436.014 102.299 433.569 101.428C420.981 96.9367 411.992 103.998 411.904 104.069L411.779 103.9C411.868 103.829 420.937 96.7011 433.635 101.228C436.071 102.099 438.649 102.78 441.138 103.438C442.208 103.722 443.317 104.016 444.391 104.318C446.041 104.781 447.749 105.31 449.404 105.821C458.34 108.578 467.578 111.428 476.456 107.782C478.754 106.839 480.99 104.914 482.295 102.757C483.99 99.9604 486.266 95.4427 487.149 92.588C487.153 92.5746 487.61 90.8049 488.724 88.8128C489.749 86.9719 491.559 84.5619 494.346 83.5214C497.948 82.1785 502.274 83.3969 507.204 87.1409L507.084 87.3143C502.212 83.6148 497.948 82.4053 494.412 83.7215C491.683 84.7397 489.909 87.1053 488.901 88.9151C487.806 90.8805 487.349 92.628 487.344 92.6458C486.452 95.5227 484.167 100.058 482.464 102.868C481.137 105.061 478.861 107.017 476.527 107.973C474.783 108.689 473.022 109.16 471.251 109.427Z" fill="#5ABA47"/>
<path d="M506.978 103.816C501.675 103.616 496.764 102.02 492.775 99.196C491.244 98.1155 489.913 96.5592 488.507 94.9139C485.978 91.9569 483.36 88.9021 479.544 88.871C477.184 88.8532 474.362 90.0227 472.179 91.9214C468.789 94.8695 465.657 97.4485 461.646 99.1293C454.365 102.18 446.729 102.082 440.149 98.8492C438.481 98.031 436.773 96.8349 434.767 95.0918C432.18 92.8418 429.74 90.205 426.852 86.5321L426.723 86.3676C424.882 84.0242 422.361 80.8138 418.879 82.2678C416.216 83.3795 412.707 92.0726 411.953 94.4337L411.762 94.367C412.525 91.9881 416.074 83.2105 418.803 82.0677C422.419 80.5559 424.997 83.833 426.878 86.2297L427.007 86.3943C429.886 90.0538 432.318 92.6862 434.896 94.9273C436.888 96.657 438.583 97.8442 440.233 98.6535C446.76 101.86 454.338 101.957 461.57 98.9292C465.555 97.2617 468.674 94.6916 472.05 91.7568C473.79 90.245 476.674 88.6353 479.544 88.6576C483.449 88.6887 486.098 91.7791 488.658 94.7672C490.06 96.4035 491.382 97.9465 492.89 99.0137C496.848 101.815 501.72 103.398 506.986 103.598L506.978 103.816Z" fill="#5ABA47"/>
<path opacity="0.36" d="M506.98 105.562C501.984 105.376 496.997 103.908 492.83 100.96C488.491 97.8875 485.478 90.6618 479.542 90.6174C476.933 90.5996 474.089 91.9691 472.11 93.69C468.862 96.518 465.659 99.1815 461.603 100.88C454.651 103.793 447.037 103.966 440.186 100.604C436.149 98.6212 430.856 93.4676 428.056 89.8081C426.064 87.2113 421.614 80.3324 418.339 84.699C416.067 87.7315 413.499 92.1692 411.852 97.3139L411.812 121.503L507.082 121.672L506.98 105.562Z" fill="#5ABA47"/>
<path d="M421.283 81.8007C421.283 82.1119 421.039 82.3654 420.742 82.3654C420.445 82.3654 420.201 82.1119 420.205 81.7962C420.205 81.485 420.449 81.2271 420.746 81.2315C421.039 81.2359 421.283 81.4894 421.283 81.8007Z" fill="#6D6E6F"/>
<path d="M449.225 105.621C449.225 105.932 448.981 106.19 448.683 106.186C448.386 106.186 448.142 105.932 448.147 105.617C448.147 105.305 448.391 105.047 448.688 105.052C448.985 105.052 449.225 105.305 449.225 105.621Z" fill="#6D6E6F"/>
<path d="M468.649 109.6C468.649 109.911 468.405 110.169 468.107 110.165C467.81 110.165 467.566 109.911 467.57 109.595C467.57 109.284 467.814 109.031 468.112 109.031C468.409 109.031 468.649 109.284 468.649 109.6Z" fill="#6D6E6F"/>
<path d="M487.838 92.7977C487.838 93.1089 487.594 93.3669 487.297 93.3624C486.999 93.3624 486.755 93.1089 486.76 92.7932C486.76 92.482 487.004 92.2285 487.301 92.2285C487.598 92.233 487.838 92.4864 487.838 92.7977Z" fill="#6D6E6F"/>
<path d="M496.758 83.1259C496.758 83.4371 496.514 83.695 496.217 83.6906C495.919 83.6906 495.675 83.4371 495.68 83.1214C495.68 82.8102 495.924 82.5523 496.221 82.5567C496.518 82.5567 496.758 82.8146 496.758 83.1259Z" fill="#6D6E6F"/>
<path d="M467.288 109.712C461.298 109.703 455.26 107.84 449.354 106.017C447.704 105.506 445.991 104.981 444.345 104.519C443.271 104.216 442.162 103.923 441.093 103.643C438.599 102.985 436.021 102.3 433.577 101.428C420.985 96.9372 412 103.998 411.911 104.07L411.787 103.901C411.876 103.829 420.949 96.7015 433.643 101.228C436.079 102.095 438.657 102.78 441.146 103.438C442.215 103.723 443.325 104.016 444.398 104.319C446.049 104.781 447.757 105.31 449.412 105.822C458.348 108.578 467.586 111.424 476.464 107.782C478.762 106.84 480.998 104.914 482.303 102.758C483.998 99.9609 486.274 95.4432 487.157 92.5885C487.161 92.5751 487.618 90.8054 488.732 88.8133C489.757 86.9724 491.567 84.5624 494.353 83.5219C497.956 82.179 502.282 83.3974 507.211 87.1414L507.092 87.3148C502.22 83.6152 497.956 82.4058 494.42 83.722C491.691 84.7402 489.916 87.1058 488.909 88.9156C487.813 90.881 487.356 92.6285 487.352 92.6463C486.46 95.5232 484.175 100.059 482.476 102.869C481.149 105.061 478.873 107.018 476.539 107.974C473.482 109.228 470.394 109.717 467.288 109.712Z" fill="#5ABA47"/>
<path d="M506.978 103.816C501.675 103.616 496.764 102.02 492.775 99.196C491.244 98.1155 489.913 96.5592 488.507 94.9139C485.978 91.9569 483.36 88.9021 479.544 88.871C477.193 88.8532 474.362 90.0227 472.179 91.9214C468.789 94.8695 465.657 97.4485 461.646 99.1293C454.365 102.18 446.729 102.082 440.149 98.8492C438.481 98.031 436.773 96.8349 434.767 95.0918C432.18 92.8418 429.74 90.205 426.852 86.5321L426.723 86.3676C424.882 84.0242 422.361 80.8138 418.879 82.2678C416.216 83.3795 412.711 92.0726 411.953 94.4337L411.762 94.367C412.525 91.9881 416.074 83.2105 418.803 82.0677C422.419 80.5559 424.997 83.833 426.878 86.2297L427.007 86.3943C429.886 90.0538 432.318 92.6862 434.896 94.9273C436.888 96.657 438.583 97.8442 440.233 98.6535C446.76 101.86 454.338 101.957 461.57 98.9292C465.555 97.2617 468.674 94.6916 472.05 91.7568C473.79 90.245 476.669 88.6264 479.544 88.6576C483.449 88.6887 486.098 91.7791 488.658 94.7672C490.06 96.4035 491.382 97.9465 492.89 99.0137C496.848 101.815 501.72 103.398 506.986 103.598L506.978 103.816Z" fill="#5ABA47"/>
<path d="M421.283 81.8007C421.283 82.1119 421.039 82.3654 420.742 82.3654C420.445 82.3654 420.201 82.1119 420.205 81.7962C420.205 81.485 420.449 81.2271 420.746 81.2315C421.039 81.2359 421.283 81.4894 421.283 81.8007Z" fill="#6D6E6F"/>
<path d="M449.225 105.621C449.225 105.932 448.981 106.19 448.683 106.186C448.386 106.186 448.142 105.932 448.147 105.617C448.147 105.305 448.391 105.047 448.688 105.052C448.985 105.052 449.225 105.305 449.225 105.621Z" fill="#6D6E6F"/>
<path d="M468.649 109.6C468.649 109.911 468.405 110.169 468.107 110.165C467.81 110.165 467.566 109.911 467.57 109.595C467.57 109.284 467.814 109.031 468.112 109.031C468.409 109.031 468.649 109.284 468.649 109.6Z" fill="#6D6E6F"/>
<path d="M487.838 92.7977C487.838 93.1089 487.594 93.3669 487.297 93.3624C486.999 93.3624 486.755 93.1089 486.76 92.7932C486.76 92.482 487.004 92.2285 487.301 92.2285C487.598 92.233 487.838 92.4864 487.838 92.7977Z" fill="#6D6E6F"/>
<path d="M496.758 83.1259C496.758 83.4371 496.514 83.695 496.217 83.6906C495.919 83.6906 495.675 83.4371 495.68 83.1214C495.68 82.8102 495.924 82.5523 496.221 82.5567C496.518 82.5567 496.758 82.8146 496.758 83.1259Z" fill="#6D6E6F"/>
<path opacity="0.61" d="M411.841 105.763C411.841 105.763 420.812 98.5462 433.6 103.108C437.091 104.353 440.796 105.194 444.364 106.199C455.065 109.209 465.661 113.776 476.664 109.409C480.555 107.866 483.253 104.625 485.143 100.827C488.169 94.7354 489.034 86.0913 496.59 84.3349C500.65 83.3922 504.408 86.1491 507.137 89.0082L507.084 120.961L411.814 120.792L411.841 105.763Z" fill="#5ABA47"/>
<path d="M430.141 100.099C430.141 100.628 429.733 101.055 429.232 101.055C428.73 101.055 428.322 100.623 428.322 100.099C428.322 99.5694 428.73 99.1426 429.232 99.1426C429.738 99.1426 430.146 99.5694 430.141 100.099Z" fill="#5ABA47"/>
<path d="M429.874 100.099C429.874 100.468 429.585 100.771 429.235 100.771C428.88 100.771 428.596 100.468 428.596 100.099C428.596 99.7301 428.884 99.4277 429.235 99.4277C429.585 99.4277 429.874 99.7257 429.874 100.099Z" fill="#5ABA47"/>
<path d="M449.593 105.62C449.593 106.149 449.184 106.576 448.683 106.576C448.182 106.576 447.773 106.145 447.773 105.62C447.773 105.091 448.182 104.664 448.683 104.664C449.189 104.664 449.593 105.091 449.593 105.62Z" fill="#5ABA47"/>
<path d="M449.323 105.621C449.323 105.99 449.034 106.292 448.684 106.292C448.329 106.292 448.045 105.99 448.045 105.621C448.045 105.252 448.333 104.949 448.684 104.949C449.039 104.949 449.323 105.247 449.323 105.621Z" fill="#5ABA47"/>
<path d="M469.016 109.602C469.016 110.131 468.608 110.558 468.107 110.558C467.605 110.558 467.197 110.126 467.197 109.602C467.197 109.072 467.605 108.646 468.107 108.646C468.613 108.646 469.021 109.072 469.016 109.602Z" fill="#5ABA47"/>
<path d="M468.749 109.602C468.749 109.971 468.46 110.274 468.11 110.274C467.755 110.274 467.471 109.971 467.471 109.602C467.471 109.233 467.759 108.931 468.11 108.931C468.46 108.931 468.749 109.233 468.749 109.602Z" fill="#5ABA47"/>
<path d="M488.204 92.7959C488.204 93.325 487.796 93.7519 487.294 93.7519C486.793 93.7519 486.385 93.3206 486.385 92.7959C486.385 92.2667 486.793 91.8398 487.294 91.8398C487.8 91.8398 488.208 92.2667 488.204 92.7959Z" fill="#5ABA47"/>
<path d="M487.934 92.7964C487.934 93.1655 487.646 93.4679 487.295 93.4679C486.94 93.4679 486.656 93.1655 486.656 92.7964C486.656 92.4274 486.945 92.125 487.295 92.125C487.65 92.125 487.939 92.4274 487.934 92.7964Z" fill="#5ABA47"/>
<path d="M497.128 83.1259C497.128 83.6551 496.72 84.0819 496.218 84.0819C495.717 84.0819 495.309 83.6506 495.309 83.1259C495.309 82.5968 495.717 82.1699 496.218 82.1699C496.724 82.1699 497.128 82.6012 497.128 83.1259Z" fill="#5ABA47"/>
<path d="M496.854 83.126C496.854 83.4951 496.566 83.7975 496.215 83.7975C495.86 83.7975 495.576 83.4951 495.576 83.126C495.576 82.7569 495.865 82.4546 496.215 82.4546C496.57 82.4546 496.854 82.7569 496.854 83.126Z" fill="#5ABA47"/>
<path d="M421.554 81.5205C421.554 82.0496 421.145 82.4765 420.644 82.4765C420.143 82.4765 419.734 82.0452 419.734 81.5205C419.734 80.9913 420.143 80.5645 420.644 80.5645C421.145 80.5645 421.554 80.9913 421.554 81.5205Z" fill="#5ABA47"/>
<path d="M421.284 81.5196C421.284 81.8887 420.995 82.1911 420.645 82.1911C420.29 82.1911 420.006 81.8887 420.006 81.5196C420.006 81.1506 420.294 80.8482 420.645 80.8482C421 80.8437 421.284 81.1461 421.284 81.5196Z" fill="#5ABA47"/>
<path opacity="0.61" d="M507.201 53.8232H411.816V63.9126H507.201V53.8232Z" fill="#5ABA47"/>
<path opacity="0.61" d="M507.201 45.8281H411.816V49.71H507.201V45.8281Z" fill="#5ABA47"/>
<path opacity="0.61" d="M507.201 37.8364H411.816V41.7183H507.201V37.8364Z" fill="#5ABA47"/>
<path opacity="0.61" d="M553.792 45.8281H511.539V49.71H553.792V45.8281Z" fill="#5ABA47"/>
<path opacity="0.61" d="M553.792 37.8364H511.539V41.7183H553.792V37.8364Z" fill="#5ABA47"/>
<path opacity="0.36" d="M554.133 53.8311H511.539V113.082H554.133V53.8311Z" fill="#5ABA47"/>
<path opacity="0.58" d="M432.73 78.6304H390.797V106.044H432.73V78.6304Z" fill="#5ABA47"/>
<path opacity="0.58" d="M412.118 17H385V34.7285H412.118V17Z" fill="#5ABA47"/>
</g>
<defs>
<clipPath id="clip0_2113_14172">
<rect width="1024" height="302" rx="6" fill="white"/>
</clipPath>
</defs>
</svg>
