<svg width="138" height="138" viewBox="0 0 138 138" fill="none" xmlns="http://www.w3.org/2000/svg">
<path d="M68.75 104.951C55.752 104.951 45.1978 94.397 45.1978 81.3989V57.3096C45.1978 56.853 45.5737 56.4771 46.0303 56.4771H56.7993C57.2559 56.4771 57.6318 56.853 57.6318 57.3096V81.3989C57.6318 87.5488 62.627 92.5439 68.7769 92.5439C74.9268 92.5439 79.9219 87.5488 79.9219 81.3989V57.3096C79.9219 56.853 80.2979 56.4771 80.7544 56.4771H91.5234C91.98 56.4771 92.356 56.853 92.356 57.3096V81.3989C92.3022 94.3701 81.748 104.951 68.75 104.951ZM46.8359 58.1421V81.3989C46.8359 93.4839 56.665 103.313 68.75 103.313C80.835 103.313 90.6641 93.4839 90.6641 81.3989V58.1421H81.5332V81.3989C81.5332 88.4619 75.7861 94.1821 68.75 94.1821C61.7139 94.1821 55.9668 88.4351 55.9668 81.3989V58.1421H46.8359Z" fill="black"/>
<path d="M56.7993 67.5952H46.0303C45.5737 67.5952 45.1978 67.2192 45.1978 66.7627C45.1978 66.3062 45.5737 65.9302 46.0303 65.9302H56.7993C57.2559 65.9302 57.6318 66.3062 57.6318 66.7627C57.605 67.2192 57.229 67.5952 56.7993 67.5952Z" fill="black"/>
<path d="M91.4697 67.5952H80.7007C80.2441 67.5952 79.8682 67.2192 79.8682 66.7627C79.8682 66.3062 80.2441 65.9302 80.7007 65.9302H91.4697C91.9263 65.9302 92.3023 66.3062 92.3023 66.7627C92.3023 67.2192 91.9263 67.5952 91.4697 67.5952Z" fill="black"/>
<path d="M68.75 58.1421C61.687 58.1421 55.9668 52.395 55.9668 45.3589C55.9668 38.3228 61.7139 32.5757 68.75 32.5757C75.7861 32.5757 81.5332 38.3228 81.5332 45.3589C81.5332 52.395 75.813 58.1421 68.75 58.1421ZM68.75 34.2139C62.6001 34.2139 57.605 39.209 57.605 45.3589C57.605 51.5088 62.6001 56.5039 68.75 56.5039C74.8999 56.5039 79.895 51.5088 79.895 45.3589C79.895 39.209 74.8999 34.2139 68.75 34.2139Z" fill="black"/>
<path d="M68.75 48.6621C65.769 48.6621 63.3252 46.2451 63.3252 43.2373C63.3252 40.2295 65.7422 37.8125 68.75 37.8125C71.7578 37.8125 74.1748 40.2295 74.1748 43.2373C74.1748 46.2451 71.731 48.6621 68.75 48.6621ZM68.75 39.4775C66.6821 39.4775 64.9902 41.1694 64.9902 43.2373C64.9902 45.3052 66.6821 46.9971 68.75 46.9971C70.8179 46.9971 72.5098 45.3052 72.5098 43.2373C72.5098 41.1694 70.8179 39.4775 68.75 39.4775Z" fill="black"/>
<path d="M77.4511 54.3555C77.1289 54.3555 76.8335 54.1675 76.6992 53.8721C75.3296 50.7031 72.1875 48.6353 68.75 48.6353C65.2856 48.6353 62.1704 50.6763 60.8007 53.8721C60.6128 54.2749 60.1294 54.4897 59.7265 54.3018C59.3237 54.1138 59.1089 53.6304 59.2968 53.2275C60.935 49.4409 64.6411 46.9971 68.7768 46.9971C72.8857 46.9971 76.6186 49.4409 78.2299 53.2275C78.4179 53.6304 78.23 54.1406 77.8003 54.3018C77.6928 54.3555 77.5586 54.3555 77.4511 54.3555Z" fill="black"/>
<path d="M52.395 46.1645H49.0918C48.6353 46.1645 48.2593 45.7886 48.2593 45.332C48.2593 44.8755 48.6353 44.4995 49.0918 44.4995H52.395C52.8516 44.4995 53.2275 44.8755 53.2275 45.332C53.2275 45.8154 52.8516 46.1645 52.395 46.1645Z" fill="black"/>
<path d="M53.2276 41.9214C53.1202 41.9214 53.0127 41.8945 52.9053 41.8677L49.8706 40.6055C49.441 40.4443 49.253 39.961 49.4141 39.5313C49.5752 39.1016 50.0586 38.9136 50.4883 39.0747L53.523 40.3369C53.9527 40.4981 54.1407 40.9815 53.9795 41.4111C53.8453 41.7334 53.5498 41.9214 53.2276 41.9214Z" fill="black"/>
<path d="M50.1661 51.6699C49.8438 51.6699 49.5484 51.4819 49.4141 51.1597C49.253 50.73 49.441 50.2466 49.8706 50.0855L52.9053 48.8233C53.335 48.6621 53.8184 48.8501 53.9795 49.2798C54.1407 49.7095 53.9527 50.1929 53.523 50.354L50.4883 51.6162C50.3809 51.6699 50.2735 51.6699 50.1661 51.6699Z" fill="black"/>
<path d="M88.3813 46.1645H85.0781C84.6216 46.1645 84.2456 45.7886 84.2456 45.332C84.2456 44.8755 84.6216 44.4995 85.0781 44.4995H88.3813C88.8379 44.4995 89.2139 44.8755 89.2139 45.332C89.2139 45.8154 88.8379 46.1645 88.3813 46.1645Z" fill="black"/>
<path d="M84.2725 41.9214C83.9502 41.9214 83.6548 41.7334 83.5206 41.4111C83.3594 40.9815 83.5474 40.4981 83.9771 40.3369L87.0118 39.0747C87.4414 38.9136 87.9248 39.1016 88.086 39.5313C88.2471 39.961 88.0591 40.4443 87.6294 40.6055L84.5948 41.8677C84.4873 41.8945 84.3799 41.9214 84.2725 41.9214Z" fill="black"/>
<path d="M87.334 51.6699C87.2266 51.6699 87.1192 51.6431 87.0118 51.6162L83.9771 50.354C83.5474 50.1929 83.3594 49.7095 83.5206 49.2798C83.6817 48.8501 84.1651 48.6621 84.5948 48.8233L87.6294 50.0855C88.0591 50.2466 88.2471 50.73 88.086 51.1597C87.9517 51.4819 87.6563 51.6699 87.334 51.6699Z" fill="black"/>
<path d="M129.39 43.1299C126.086 35.2881 121.333 28.252 115.291 22.2095C109.248 16.167 102.212 11.4136 94.3701 8.11035C86.2329 4.69971 77.6392 2.9541 68.75 2.9541C59.8608 2.9541 51.2671 4.69971 43.1299 8.11035C35.2881 11.4136 28.252 16.167 22.2095 22.2095C16.167 28.252 11.4136 35.2881 8.11035 43.1299C4.69971 51.2671 2.9541 59.8608 2.9541 68.75C2.9541 77.6392 4.69971 86.2329 8.11035 94.3701C11.4136 102.212 16.167 109.248 22.2095 115.291C28.252 121.333 35.2881 126.06 43.1299 129.39C51.2402 132.827 59.8608 134.546 68.75 134.546C77.6392 134.546 86.2329 132.8 94.3701 129.39C102.212 126.086 109.248 121.333 115.291 115.291C121.333 109.248 126.06 102.212 129.39 94.3701C132.827 86.2598 134.546 77.6392 134.546 68.75C134.546 59.8608 132.8 51.2402 129.39 43.1299ZM132.478 68.75C132.478 103.877 103.904 132.478 68.75 132.478C33.623 132.478 5.02197 103.877 5.02197 68.75C5.02197 33.623 33.623 5.02197 68.75 5.02197C103.877 5.02197 132.478 33.623 132.478 68.75Z" fill="black"/>
</svg>
