<svg width="19" height="19" viewBox="0 0 19 19" fill="none" xmlns="http://www.w3.org/2000/svg">
<path d="M9.17764 14.7487C9.01693 14.9092 8.79907 14.9994 8.57193 14.9994C8.34479 14.9994 8.12693 14.9092 7.96622 14.7487L3.10907 9.89157C2.94856 9.73085 2.8584 9.51299 2.8584 9.28585C2.8584 9.05871 2.94856 8.84085 3.10907 8.68014L7.96622 3.82299C8.12867 3.6714 8.34364 3.58882 8.5658 3.59266C8.78796 3.5965 8.99995 3.68645 9.15707 3.84357C9.31418 4.00069 9.40414 4.21268 9.40798 4.43484C9.41182 4.657 9.32924 4.87197 9.17764 5.03442L5.78336 8.42871H14.2862C14.5135 8.42871 14.7316 8.51901 14.8923 8.67976C15.0531 8.84051 15.1434 9.05852 15.1434 9.28585C15.1434 9.51318 15.0531 9.7312 14.8923 9.89194C14.7316 10.0527 14.5135 10.143 14.2862 10.143H5.78336L9.17764 13.5373C9.33816 13.698 9.42832 13.9159 9.42832 14.143C9.42832 14.3701 9.33816 14.588 9.17764 14.7487Z" fill="white"/>
</svg>
