<svg width="138" height="138" viewBox="0 0 138 138" fill="none" xmlns="http://www.w3.org/2000/svg">
<path d="M104.133 31.1086H78.4634C76.6022 31.1086 75.0873 32.6348 75.0873 34.5114V38.1054C74.1072 38.0248 73.1279 37.9881 72.1487 37.9929C72.1164 37.9887 72.0876 37.9739 72.0542 37.9739C71.8703 37.9739 71.6848 37.9951 71.5001 38.0069C70.222 38.0379 68.9466 38.1255 67.6779 38.3012C67.5438 38.3196 67.4084 38.3244 67.2741 38.3445C66.3201 38.4882 65.37 38.6728 64.4257 38.8983C63.8072 39.0458 63.1974 39.2128 62.5933 39.3924C62.3756 39.4571 62.1611 39.5303 61.945 39.5995C61.5299 39.7319 61.1174 39.8693 60.7096 40.0169C60.523 40.0847 60.3378 40.1554 60.1525 40.2265C59.6654 40.4125 59.1841 40.6096 58.7085 40.8168C58.6175 40.8567 58.5259 40.895 58.4354 40.9357C52.1922 43.7231 46.9729 48.3425 43.3705 54.3552H33.8326C31.9879 54.3551 30.4863 55.8814 30.4863 57.7578V74.8313C30.4863 76.7079 31.9879 78.2341 33.8326 78.2341H39.0246L39.0391 78.31C39.1379 78.8327 39.2352 79.3505 39.3617 79.8816C40.99 86.8119 44.6381 92.904 49.8207 97.5171C49.8321 97.5287 49.8371 97.5451 49.8492 97.5561C49.9724 97.6658 50.1006 97.7677 50.225 97.8754C50.3873 98.0152 50.5497 98.1548 50.715 98.2916C51.0017 98.53 51.2926 98.7617 51.5859 98.9897C51.7046 99.0818 51.8222 99.1748 51.9423 99.2654C52.2975 99.5338 52.6578 99.7932 53.0219 100.046C53.0972 100.099 53.1711 100.153 53.2469 100.204C53.6579 100.485 54.0743 100.756 54.4959 101.017C54.5339 101.041 54.5698 101.067 54.608 101.09C54.6155 101.095 54.6234 101.099 54.6309 101.103C55.2215 101.466 55.8228 101.807 56.4322 102.131C56.6194 102.231 56.8081 102.326 56.9967 102.423C57.3871 102.621 57.781 102.81 58.1781 102.993C58.7319 103.25 59.2918 103.487 59.8557 103.712C60.0051 103.771 60.1529 103.834 60.3031 103.891C64.0958 105.342 68.0913 106.095 72.1357 106.095C74.7477 106.094 77.3779 105.787 79.9817 105.164C80.5947 105.017 81.1982 104.851 81.7952 104.672C82.0518 104.595 82.3047 104.508 82.5594 104.425C82.9061 104.313 83.2519 104.198 83.5927 104.075C83.8692 103.975 84.143 103.869 84.4167 103.762C84.736 103.637 85.0522 103.507 85.366 103.373C85.6382 103.256 85.9099 103.139 86.1788 103.016C86.494 102.871 86.8035 102.717 87.1125 102.563C87.3709 102.435 87.6313 102.311 87.8862 102.176C88.2986 101.957 88.7024 101.726 89.1032 101.491C89.5074 101.255 89.9038 101.007 90.2978 100.754C90.4997 100.624 90.7037 100.497 90.9023 100.363C91.2307 100.142 91.5523 99.9116 91.873 99.6789C92.0316 99.5634 92.1893 99.4472 92.3459 99.3293C92.6841 99.0746 93.0186 98.8157 93.3471 98.5479C93.4488 98.4651 93.5473 98.3792 93.6479 98.2952C93.9424 98.0495 94.2425 97.8112 94.5286 97.5551C94.5448 97.5405 94.5515 97.5191 94.5662 97.5034C103.544 89.4406 107.977 76.7816 105.016 64.1803C104.256 60.925 103.016 57.848 101.375 54.9878H104.133C105.979 54.9878 107.48 53.4614 107.48 51.585V34.5114C107.48 32.6348 105.978 31.1086 104.133 31.1086ZM79.3815 62.4926C79.4633 62.5248 79.548 62.538 79.6327 62.5407C79.6405 62.5409 79.6479 62.5451 79.6558 62.5451C79.6725 62.5451 79.6878 62.5359 79.7043 62.5349C79.776 62.5303 79.8452 62.5157 79.9126 62.4909C79.9377 62.4817 79.9615 62.4736 79.9853 62.4618C80.0693 62.4206 80.1489 62.3691 80.2144 62.2965L86.2889 55.574C87.1084 58.3418 87.7144 61.3191 88.0912 64.4433C88.3696 66.7304 88.5152 69.0181 88.5436 71.2776H72.9558V56.1422C74.0013 56.121 74.994 56.0643 75.9344 55.9451C76.3472 55.8927 76.6388 55.5168 76.5866 55.1039C76.5343 54.6911 76.151 54.4004 75.7455 54.4517C74.8703 54.5626 73.9625 54.6273 72.9558 54.649V39.4785C73.6663 39.4927 74.3767 39.5524 75.0869 39.6137V51.5852C75.0869 53.4616 76.602 54.9879 78.463 54.9879H78.9839L78.9028 61.7834C78.8988 62.0963 79.0899 62.3788 79.3815 62.4926ZM91.7775 97.8743C91.7681 97.8817 91.759 97.8896 91.7493 97.8969C91.0597 98.4304 90.3464 98.9367 89.6107 99.4149C89.5893 99.4287 89.5671 99.4414 89.5455 99.4554C88.8798 99.8859 88.192 100.288 87.4906 100.67C87.3724 100.735 87.2547 100.8 87.1356 100.863C85.6736 101.636 84.1368 102.3 82.5346 102.847C82.3808 102.9 82.2267 102.952 82.072 103.002C81.2723 103.261 80.4609 103.5 79.6301 103.699C79.5868 103.71 79.5433 103.717 79.4999 103.727C79.1461 103.81 78.7912 103.88 78.4363 103.951C81.6542 101.674 84.3661 97.7169 86.3576 92.7327C88.6676 93.8743 90.852 95.2872 92.8491 96.9721C92.4928 97.2741 92.1474 97.5874 91.7775 97.8743ZM58.0972 101.284C57.5351 101.009 56.9826 100.712 56.4358 100.403C56.1957 100.267 55.9545 100.135 55.717 99.9923C55.0881 99.6158 54.4689 99.2197 53.8639 98.7984C53.7013 98.6853 53.5437 98.5668 53.3838 98.4511C52.7849 98.0175 52.1948 97.5682 51.6232 97.0909C51.5825 97.057 51.5395 97.0255 51.4991 96.9915C53.4806 95.3123 55.666 93.8888 57.9885 92.7406C60.015 97.8071 62.7543 101.695 65.9084 103.936C63.3856 103.43 60.9269 102.619 58.5858 101.522C58.4221 101.445 58.2595 101.364 58.0972 101.284ZM68.5107 103.732C64.8522 102.01 61.6378 97.8764 59.3506 92.1017C61.0975 91.3381 62.9127 90.7276 64.7741 90.2882C66.9886 89.7623 69.2306 89.4697 71.4503 89.4153V104.547C70.4661 104.457 69.4845 104.191 68.5107 103.732ZM59.327 42.1871C59.4271 42.1435 59.5284 42.1014 59.6292 42.0588C60.0403 41.8838 60.4559 41.7197 60.8742 41.5619C61.0587 41.4928 61.2429 41.423 61.4291 41.3571C61.7785 41.2326 62.1313 41.1185 62.4851 41.0064C62.6992 40.9386 62.9113 40.8673 63.1274 40.8038C63.6727 40.6437 64.2212 40.4936 64.7751 40.3629C65.1722 40.2679 65.5715 40.1894 65.9704 40.1098C62.8046 42.3351 60.0436 46.2153 58.0193 51.3218C55.7025 50.1763 53.5075 48.7593 51.4976 47.0658C53.8572 45.0669 56.5022 43.4247 59.327 42.1871ZM68.5579 40.3114C69.527 39.8561 70.4964 39.5965 71.4503 39.516V54.6466C67.2663 54.5484 63.1823 53.6036 59.3906 51.9448C61.6779 46.1345 64.9114 42.0059 68.5579 40.3114ZM75.8216 103.748C74.8688 104.19 73.9124 104.451 72.9561 104.546V89.4143C77.1528 89.5173 81.2441 90.468 85.0342 92.1316C82.8024 97.7616 79.6236 101.99 75.8216 103.748ZM72.9559 87.9166V72.7834H88.546C88.4739 79.2983 87.4063 85.512 85.5735 90.6959C81.6164 88.9711 77.3357 88.0202 72.9559 87.9166ZM50.3601 48.0642C56.2709 53.1102 63.6862 55.9567 71.4503 56.1434V71.2776H62.879V57.7578C62.879 55.8814 61.3639 54.3551 59.5019 54.3551H45.1297C46.6213 52.0119 48.3819 49.9086 50.3601 48.0642ZM31.992 74.8313V57.7578C31.992 56.7123 32.8177 55.8609 33.8325 55.8609H43.7903H59.5019C60.5168 55.8609 61.3733 56.7297 61.3733 57.7578V74.8313C61.3733 75.8594 60.5168 76.7284 59.5019 76.7284H58.22C58.0188 76.7284 57.8256 76.8085 57.685 76.9524C57.5431 77.0951 57.4653 77.2893 57.4673 77.4905L57.533 83.0573L52.041 76.9769C51.8983 76.8188 51.6949 76.7284 51.4822 76.7284H39.6469H33.8326C32.8177 76.7284 31.992 75.877 31.992 74.8313ZM40.8261 79.5356C40.7214 79.095 40.6382 78.6658 40.5569 78.2342H51.1474L57.7507 85.5442C57.8162 85.6168 57.8954 85.6683 57.9794 85.7095C58.0037 85.7213 58.0277 85.7295 58.0532 85.7387C58.1196 85.763 58.1875 85.7771 58.2582 85.782C58.2758 85.7832 58.2917 85.7928 58.3095 85.7928C58.3177 85.7928 58.3257 85.7884 58.3341 85.7882C58.4181 85.7853 58.5023 85.7721 58.5839 85.7406C58.8755 85.6265 59.0656 85.3442 59.0625 85.0307L58.9824 78.2344H59.502C61.3643 78.2344 62.8792 76.7082 62.8792 74.8316V72.7838H71.4504V87.9231C69.1141 87.9776 66.7562 88.2705 64.4281 88.8241C62.505 89.2781 60.6309 89.9115 58.8241 90.6963C58.4127 89.5344 58.0325 88.3206 57.6966 87.0463C57.5909 86.6445 57.1873 86.4074 56.7763 86.5101C56.3747 86.617 56.1343 87.0278 56.2402 87.4304C56.5999 88.794 57.0098 90.0925 57.4561 91.3355C54.9108 92.5799 52.5264 94.1437 50.3711 95.9941C45.6556 91.6351 42.336 85.961 40.8261 79.5356ZM93.993 95.977C91.8172 94.1155 89.4341 92.5482 86.8985 91.309C88.8307 85.9242 89.9603 79.4992 90.0451 72.7833H104.415C104.21 81.7002 100.343 90.0607 93.993 95.977ZM103.549 64.5244C104.08 66.783 104.363 69.0448 104.415 71.2776H90.0446C90.02 68.9562 89.8723 66.6077 89.5868 64.2616C89.1908 60.9907 88.5381 57.8848 87.6688 54.9878H99.6596C101.449 57.9233 102.757 61.1288 103.549 64.5244ZM105.974 51.585C105.974 52.6306 105.149 53.4819 104.133 53.4819H100.079H86.6627H86.4841C86.2714 53.4819 86.0681 53.5723 85.9253 53.7305L80.4322 59.81L80.4989 54.2442C80.501 54.0428 80.4228 53.8488 80.2813 53.7059C80.1406 53.562 79.9475 53.4819 79.7461 53.4819H78.4632C77.4493 53.4819 76.5928 52.6131 76.5928 51.585V38.9074V34.5114C76.5928 33.4832 77.4493 32.6144 78.4632 32.6144H104.133C105.148 32.6144 105.974 33.4658 105.974 34.5114V51.585H105.974Z" fill="#141515"/>
<path d="M42.1508 74.1991C42.598 74.3496 43.0451 74.0786 43.1643 73.657L45.1321 67.1227H48.2028L50.1706 73.657C50.3196 74.0786 50.7669 74.3495 51.1842 74.1991C51.6314 74.0786 51.8699 73.6269 51.7507 73.1752L49.6339 66.1291C49.6041 66.0689 49.6041 66.0386 49.5743 65.9785L47.4575 58.9324C47.4575 58.9324 47.4575 58.9023 47.4277 58.8722C47.3978 58.7517 47.3383 58.6612 47.2488 58.601C47.1891 58.5107 47.0998 58.4504 46.9803 58.4205C46.9506 58.3902 46.9208 58.3902 46.891 58.3902C46.8612 58.3902 46.8611 58.3603 46.8313 58.3603H46.8015C46.7716 58.3603 46.7418 58.3603 46.712 58.3603H46.6823H46.6525C46.6226 58.3603 46.5928 58.3603 46.5331 58.3603C46.5033 58.3603 46.4735 58.3902 46.4735 58.3902C46.4138 58.3902 46.3841 58.3902 46.3543 58.4205C46.2648 58.4504 46.1753 58.5108 46.1158 58.601H46.086C46.0263 58.6612 45.9667 58.7516 45.9072 58.8722C45.9072 58.9023 45.9072 58.9324 45.9072 58.9324L43.7904 65.9785C43.7606 66.0388 43.7307 66.0689 43.7307 66.1291L41.6139 73.1752C41.4948 73.6268 41.7335 74.0785 42.1508 74.1991ZM46.6824 62.0036L47.7258 65.4664H45.6389L46.6824 62.0036Z" fill="#141515"/>
<path d="M96.9183 42.3404C96.4412 41.8889 95.7557 41.5876 94.9207 41.4071L94.9506 41.3168C95.0699 40.9554 94.8612 40.5641 94.5034 40.4736C94.1456 40.3531 93.7581 40.5338 93.6388 40.8952C93.6089 41.0457 93.5494 41.166 93.5196 41.2866C92.3866 41.2565 91.4028 41.2866 90.5084 41.377V40.1725C91.9395 40.1725 93.6686 40.0821 95.2786 39.6906C95.6364 39.6003 95.8749 39.2088 95.7854 38.8475C95.6961 38.4861 95.3084 38.2452 94.9506 38.3356C93.4896 38.6967 91.85 38.8172 90.5084 38.8172V36.318C90.5084 35.9265 90.2102 35.6255 89.8227 35.6255C89.4352 35.6255 89.1369 35.9267 89.1369 36.318V38.7873C88.2724 38.727 87.7356 38.6668 87.7356 38.6668C87.3481 38.6365 87.0201 38.9077 86.9606 39.2691C86.9308 39.6605 87.1991 39.9918 87.5866 40.052C87.5866 40.052 88.1829 40.1122 89.1369 40.1423V41.5577C87.3183 41.919 86.1258 42.5514 85.44 43.3042C84.6352 44.1775 84.4562 45.2014 84.7544 46.0745C85.0227 46.9477 85.7383 47.6703 86.6624 48.0015C87.3779 48.2727 88.2426 48.3027 89.1369 47.9714C89.1369 48.3328 89.4352 48.664 89.8227 48.664C90.2102 48.664 90.5084 48.3328 90.5084 47.9714V47.1584C90.6277 47.068 90.747 46.9476 90.8364 46.8572C91.0452 46.6466 91.2241 46.4959 91.4327 46.3152C92.357 45.4419 93.5495 44.388 94.3843 42.7319C95.0998 42.8222 95.6662 43.0631 96.0239 43.3643C96.3222 43.6353 96.501 43.9665 96.5607 44.358C96.65 44.7495 96.5904 45.1709 96.4115 45.5925C96.1432 46.3152 95.5469 47.0379 94.6526 47.5498C94.0563 47.9112 93.3706 48.2123 92.5955 48.4531C91.8202 48.7242 90.9557 48.9349 90.0017 49.1155C89.6439 49.1758 89.4054 49.5371 89.4649 49.8985C89.5246 50.29 89.8824 50.5309 90.2699 50.4706C91.2537 50.29 92.178 50.0492 93.0128 49.7782C93.8774 49.4771 94.6526 49.1458 95.3384 48.7242C96.5011 48.0616 97.3061 47.0981 97.6937 46.1044C97.962 45.4419 98.0217 44.7495 97.9022 44.087C97.7828 43.4243 97.455 42.8222 96.9183 42.3404ZM89.1369 46.4356C88.3916 46.8572 87.6761 46.9175 87.1096 46.7067C86.6026 46.496 86.1853 46.1044 86.0363 45.6527C85.9171 45.2313 86.0065 44.6893 86.4238 44.2374C86.9308 43.6954 87.7954 43.2438 89.1369 42.9425V46.4356ZM90.5084 45.2913V42.762C91.1942 42.6717 91.9693 42.6416 92.8338 42.6717C92.1482 43.7859 91.2537 44.5987 90.5084 45.2913Z" fill="#141515"/>
<path d="M129.39 43.1299C126.086 35.2881 121.333 28.252 115.291 22.2095C109.248 16.167 102.212 11.4136 94.3701 8.11035C86.2329 4.69971 77.6392 2.9541 68.75 2.9541C59.8608 2.9541 51.2671 4.69971 43.1299 8.11035C35.2881 11.4136 28.252 16.167 22.2095 22.2095C16.167 28.252 11.4136 35.2881 8.11035 43.1299C4.69971 51.2671 2.9541 59.8608 2.9541 68.75C2.9541 77.6392 4.69971 86.2329 8.11035 94.3701C11.4136 102.212 16.167 109.248 22.2095 115.291C28.252 121.333 35.2881 126.06 43.1299 129.39C51.2402 132.827 59.8608 134.546 68.75 134.546C77.6392 134.546 86.2329 132.8 94.3701 129.39C102.212 126.086 109.248 121.333 115.291 115.291C121.333 109.248 126.06 102.212 129.39 94.3701C132.827 86.2598 134.546 77.6392 134.546 68.75C134.546 59.8608 132.8 51.2402 129.39 43.1299ZM132.478 68.75C132.478 103.877 103.904 132.478 68.75 132.478C33.623 132.478 5.02197 103.877 5.02197 68.75C5.02197 33.623 33.623 5.02197 68.75 5.02197C103.877 5.02197 132.478 33.623 132.478 68.75Z" fill="black"/>
</svg>
