<svg width="138" height="138" viewBox="0 0 138 138" fill="none" xmlns="http://www.w3.org/2000/svg">
<path d="M77.8003 99.8755H38.1079C33.7305 99.8755 30.1855 96.3306 30.1855 91.9531V73.2617C30.1855 68.8843 33.7305 65.3393 38.1079 65.3393H77.8003C81.8823 65.3125 85.293 68.4009 85.6958 72.456C85.6958 72.5098 85.6958 72.5366 85.6958 72.5903V72.7246L85.7227 82.4731V91.9531C85.7227 94.209 84.7559 96.3574 83.064 97.8613C81.6138 99.1504 79.7339 99.8755 77.8003 99.8755ZM38.1079 68.0786C35.2612 68.0786 32.9517 70.3882 32.9517 73.2349V91.9263C32.9517 94.7729 35.2612 97.0825 38.1079 97.0825H77.8003C79.0625 97.0825 80.271 96.626 81.2109 95.7935C82.312 94.8267 82.9565 93.4033 82.9565 91.9263V82.4463L82.9297 72.644C82.6343 70.0391 80.4321 68.0786 77.8003 68.0786H38.1079Z" fill="black"/>
<path d="M69.9585 79.5727C69.2065 79.5727 68.5889 78.9551 68.5889 78.2031C68.5889 77.7466 68.8037 77.3437 69.1797 77.0752L74.3896 73.3154L75.5713 72.456C76.1621 71.9726 77.0483 72.0801 77.5049 72.6978C77.9614 73.3154 77.8809 74.1748 77.2632 74.6313C77.2363 74.6582 77.2095 74.6851 77.1558 74.7119L75.9741 75.5713L70.7373 79.3042C70.5225 79.4653 70.2539 79.5727 69.9585 79.5727Z" fill="black"/>
<path d="M57.9541 88.0859C57.7124 88.0859 57.4976 88.0322 57.2827 87.9248C56.6919 87.6025 39.773 75.5176 32.522 70.3345C31.8775 69.9316 31.6895 69.0723 32.1192 68.4277C32.522 67.7832 33.3814 67.5952 34.0259 68.0249C34.0528 68.0518 34.1065 68.0786 34.1333 68.1055C42.5391 74.1211 54.8389 82.9028 57.9541 85.0513C59.458 84.0039 63.1909 81.3452 69.1529 77.0752C69.7437 76.5918 70.6299 76.6992 71.0865 77.29C71.543 77.8809 71.4624 78.7671 70.8716 79.2236C70.8448 79.2505 70.791 79.2773 70.7642 79.3042C59.0284 87.6831 58.7866 87.8174 58.5987 87.8979C58.4107 88.0054 58.169 88.0859 57.9541 88.0859Z" fill="black"/>
<path d="M76.4038 74.9805C75.6519 74.9805 75.0342 74.3628 75.0342 73.6108C75.0342 73.1543 75.249 72.7515 75.625 72.4829L75.9473 72.2412L76.7529 71.6504L81.7749 68.0786C82.3926 67.6489 83.2788 67.8101 83.7085 68.4546C84.1113 69.0723 83.9771 69.9048 83.3862 70.3345L78.3643 73.9331L77.5586 74.5239L77.2363 74.7656C76.9678 74.8731 76.6724 74.9805 76.4038 74.9805Z" fill="black"/>
<path d="M34.187 98.2373C33.4351 98.2373 32.8174 97.6196 32.8174 96.8677C32.8174 96.4917 32.9785 96.1157 33.2471 95.874L49.2261 80.7275C49.7632 80.1904 50.6226 80.1636 51.1865 80.7007C51.7236 81.2378 51.7505 82.0972 51.2134 82.6611C51.1865 82.688 51.1597 82.7149 51.1328 82.7417L35.1538 97.8882C34.8853 98.103 34.5361 98.2373 34.187 98.2373Z" fill="black"/>
<path d="M82.151 98.2373C81.8019 98.2373 81.4527 98.103 81.211 97.8613L65.232 82.7148C64.6681 82.2046 64.5875 81.3452 65.0978 80.7544C65.608 80.1904 66.4674 80.1098 67.0582 80.6201C67.0851 80.647 67.1119 80.6738 67.1388 80.7007L83.1178 95.8471C83.6818 96.3843 83.6818 97.2436 83.1715 97.8076C82.8761 98.0762 82.527 98.2373 82.151 98.2373Z" fill="black"/>
<path d="M96.062 49.9243H70.4688C69.7168 49.9243 69.0991 49.3066 69.0991 48.5547C69.0991 47.8027 69.7168 47.1851 70.4688 47.1851H96.062C96.814 47.1851 97.4316 47.8027 97.4316 48.5547C97.4316 49.3066 96.814 49.9243 96.062 49.9243Z" fill="black"/>
<path d="M96.062 56.4771H74.2554C73.5034 56.4771 72.8857 55.8594 72.8857 55.1074C72.8857 54.3555 73.5034 53.7378 74.2554 53.7378H96.062C96.814 53.7378 97.4316 54.3555 97.4316 55.1074C97.4316 55.8594 96.814 56.4771 96.062 56.4771Z" fill="black"/>
<path d="M96.062 62.8955H81.6943C80.9424 62.8955 80.3247 62.2778 80.3247 61.5259C80.3247 60.7739 80.9424 60.1562 81.6943 60.1562H96.062C96.814 60.1562 97.4316 60.7739 97.4316 61.5259C97.4316 62.2778 96.814 62.8955 96.062 62.8955Z" fill="black"/>
<path d="M96.7065 85.0513C96.2769 85.0513 95.874 84.8633 95.6323 84.5142L87.3877 74.0942H84.3262C83.5742 74.0942 82.9565 73.4766 82.9565 72.7246V72.6709C82.6611 70.0659 80.459 68.1055 77.8271 68.1055H58.3569C57.605 68.1055 56.9873 67.4878 56.9873 66.7358V44.4458C56.9873 43.6938 57.1216 42.9419 57.3633 42.2437C58.3032 39.5044 60.8813 37.6782 63.7549 37.6782H100.601C104.333 37.6782 107.368 40.7129 107.368 44.4458V67.3535C107.368 71.0864 104.333 74.1211 100.601 74.1211H98.8281L98.0762 83.7891C98.0225 84.4873 97.4048 85.0513 96.7065 85.0513ZM85.481 71.3281H88.0322C88.4619 71.3281 88.8647 71.5161 89.1064 71.8384L95.6055 80.0293L96.1963 72.5903C96.25 71.8652 96.8677 71.3013 97.5659 71.3281H100.574C102.776 71.3281 104.575 69.5288 104.575 67.3267V44.4189C104.575 42.2168 102.776 40.4175 100.574 40.4175H63.728C62.0093 40.4175 60.4785 41.5186 59.9414 43.1299C59.8071 43.5327 59.7266 43.9893 59.7266 44.4189V65.3394H77.8003C81.4258 65.2856 84.6216 67.7832 85.481 71.3281Z" fill="black"/>
<path d="M68.75 133.203C60.0488 133.203 51.6162 131.511 43.667 128.127C35.9863 124.878 29.1113 120.232 23.1763 114.324C17.2681 108.416 12.6221 101.514 9.37256 93.833C5.98877 85.8838 4.29688 77.4512 4.29688 68.75C4.29688 60.0488 5.98877 51.6162 9.37256 43.667C12.6221 35.9863 17.2681 29.0845 23.1763 23.1763C29.0845 17.2681 35.9863 12.6221 43.667 9.37256C51.6162 5.98877 60.0488 4.29688 68.75 4.29688C77.4512 4.29688 85.8838 5.98877 93.833 9.37256C101.514 12.6221 108.416 17.2681 114.324 23.1763C120.232 29.0845 124.878 35.9863 128.127 43.667C131.484 51.6162 133.203 60.0488 133.203 68.75C133.203 77.4512 131.511 85.8838 128.127 93.833C124.878 101.514 120.232 108.389 114.324 114.324C108.416 120.259 101.514 124.878 93.833 128.127C85.8838 131.511 77.4512 133.203 68.75 133.203ZM68.75 6.31104C34.3213 6.31104 6.31104 34.3213 6.31104 68.75C6.31104 103.179 34.3213 131.189 68.75 131.189C103.179 131.189 131.189 103.179 131.189 68.75C131.189 34.3213 103.179 6.31104 68.75 6.31104Z" fill="black"/>
</svg>
