<svg width="14" height="12" viewBox="0 0 14 12" fill="none" xmlns="http://www.w3.org/2000/svg">
<path d="M6.82236 11.7487C6.98307 11.9092 7.20093 11.9994 7.42807 11.9994C7.65521 11.9994 7.87307 11.9092 8.03378 11.7487L12.8909 6.89157C13.0514 6.73085 13.1416 6.51299 13.1416 6.28585C13.1416 6.05871 13.0514 5.84085 12.8909 5.68014L8.03378 0.822994C7.87133 0.671403 7.65636 0.58882 7.4342 0.592657C7.21204 0.596495 7.00005 0.686454 6.84293 0.843565C6.68582 1.00069 6.59586 1.21268 6.59202 1.43484C6.58818 1.657 6.67076 1.87197 6.82236 2.03442L10.2166 5.42871H1.71378C1.48645 5.42871 1.26844 5.51901 1.10769 5.67976C0.946947 5.84051 0.856641 6.05852 0.856641 6.28585C0.856641 6.51318 0.946947 6.7312 1.10769 6.89194C1.26844 7.05269 1.48645 7.14299 1.71378 7.14299H10.2166L6.82236 10.5373C6.66184 10.698 6.57168 10.9159 6.57168 11.143C6.57168 11.3701 6.66184 11.588 6.82236 11.7487Z" fill="white"/>
</svg>
