<svg width="138" height="138" viewBox="0 0 138 138" fill="none" xmlns="http://www.w3.org/2000/svg">
<path d="M80.0799 89.925H57.4199C55.1649 89.925 53.0474 88.9075 51.6449 87.1475L37.5099 69.4375C36.1074 67.6775 35.5849 65.395 36.0799 63.195L41.1124 41.1125C41.6074 38.9125 43.0649 37.0975 45.0999 36.1075L65.5049 26.29C67.5399 25.3 69.8774 25.3 71.9124 26.29L92.3174 36.1075C94.3524 37.0975 95.8099 38.9125 96.3049 41.1125L101.337 63.195C101.832 65.395 101.31 67.6775 99.9074 69.4375L85.7724 87.1475C84.4524 88.9075 82.3349 89.925 80.0799 89.925ZM68.7499 27.5C67.9524 27.5 67.1549 27.6925 66.4124 28.05L46.0074 37.8675C44.5224 38.5825 43.4499 39.93 43.0924 41.525L38.0599 63.6075C37.7024 65.23 38.0599 66.88 39.1049 68.1725L53.2399 85.8825C54.2574 87.175 55.7974 87.9175 57.4749 87.9175H80.1349C81.7849 87.9175 83.3249 87.175 84.3699 85.8825L98.5049 68.1725C99.5224 66.88 99.9074 65.2025 99.5499 63.6075L94.4349 41.525C94.0774 39.9025 93.0049 38.5825 91.5199 37.8675L71.1149 28.05C70.3449 27.665 69.5474 27.5 68.7499 27.5Z" fill="black"/>
<path d="M58.9325 77.495H52.58C52.03 77.495 51.59 77.055 51.59 76.505V54.2025C51.59 53.6525 52.03 53.2125 52.58 53.2125H58.9325C59.4825 53.2125 59.9225 53.6525 59.9225 54.2025V76.505C59.9225 77.055 59.4825 77.495 58.9325 77.495ZM53.57 75.515H57.9425V55.1925H53.57V75.515Z" fill="black"/>
<path d="M82.555 60.445H70.5925C70.0425 60.445 69.6025 60.005 69.6025 59.455C69.6025 58.905 70.0425 58.465 70.5925 58.465H82.555C83.105 58.465 83.545 58.905 83.545 59.455C83.545 60.005 83.105 60.445 82.555 60.445Z" fill="black"/>
<path d="M82.555 60.445H70.5925C70.0425 60.445 69.6025 60.005 69.6025 59.455C69.6025 58.905 70.0425 58.465 70.5925 58.465H82.555C83.105 58.465 83.545 58.905 83.545 59.455C83.545 60.005 83.105 60.445 82.555 60.445Z" fill="black"/>
<path d="M82.555 66.1375H70.5925C70.0425 66.1375 69.6025 65.6975 69.6025 65.1475C69.6025 64.5975 70.0425 64.1575 70.5925 64.1575H82.555C83.105 64.1575 83.545 64.5975 83.545 65.1475C83.545 65.6975 83.105 66.1375 82.555 66.1375Z" fill="black"/>
<path d="M82.555 66.1375H70.5925C70.0425 66.1375 69.6025 65.6975 69.6025 65.1475C69.6025 64.5975 70.0425 64.1575 70.5925 64.1575H82.555C83.105 64.1575 83.545 64.5975 83.545 65.1475C83.545 65.6975 83.105 66.1375 82.555 66.1375Z" fill="black"/>
<path d="M82.555 71.8025H70.5925C70.0425 71.8025 69.6025 71.3625 69.6025 70.8125C69.6025 70.2625 70.0425 69.8225 70.5925 69.8225H82.555C83.105 69.8225 83.545 70.2625 83.545 70.8125C83.545 71.3625 83.105 71.8025 82.555 71.8025Z" fill="black"/>
<path d="M82.5549 77.495H58.9324C58.3824 77.495 57.9424 77.055 57.9424 76.505V54.2025C57.9424 53.8725 58.1074 53.57 58.3824 53.3775C58.5749 53.24 58.8224 53.185 59.0699 53.2125C59.7024 52.9375 62.7274 50.215 62.0399 43.2025C62.0399 43.12 62.0399 43.0375 62.0399 42.955C62.5899 39.38 64.0749 37.235 66.0549 37.235C68.0349 37.235 69.5474 39.4075 70.0699 43.0375L71.4999 52.8H82.5549C84.3974 52.8 85.9099 54.3125 85.9099 56.155V57.1175C85.9099 58.025 85.5524 58.8775 84.9474 59.4825C85.5524 60.0875 85.9099 60.9125 85.9099 61.8475V62.81C85.9099 63.7175 85.5524 64.57 84.9474 65.175C85.5524 65.78 85.9099 66.605 85.9099 67.54V68.5025C85.9099 69.41 85.5524 70.2625 84.9474 70.8675C85.5524 71.4725 85.9099 72.2975 85.9099 73.2325V74.195C85.9099 75.9825 84.3974 77.495 82.5549 77.495ZM59.9224 75.515H82.5549C83.2974 75.515 83.9299 74.91 83.9299 74.14V73.1775C83.9299 72.435 83.3249 71.8025 82.5549 71.8025C82.0049 71.8025 81.5649 71.3625 81.5649 70.8125C81.5649 70.2625 82.0049 69.8225 82.5549 69.8225C83.2974 69.8225 83.9299 69.2175 83.9299 68.4475V67.485C83.9299 66.7425 83.3249 66.11 82.5549 66.11C82.0049 66.11 81.5649 65.67 81.5649 65.12C81.5649 64.57 82.0049 64.13 82.5549 64.13C83.2974 64.13 83.9299 63.525 83.9299 62.755V61.7925C83.9299 61.05 83.3249 60.4175 82.5549 60.4175C82.0049 60.4175 81.5649 59.9775 81.5649 59.4275C81.5649 58.8775 82.0049 58.4375 82.5549 58.4375C83.2974 58.4375 83.9299 57.8325 83.9299 57.0625V56.1C83.9299 55.3575 83.3249 54.725 82.5549 54.725H70.6199C70.1249 54.725 69.7124 54.3675 69.6299 53.8725L68.0624 43.2575C67.6224 40.26 66.5774 39.16 65.9999 39.16C65.4499 39.16 64.4324 40.2325 63.9649 43.0925C64.5424 49.1975 62.4524 53.075 60.4999 54.56C60.2799 54.725 60.0599 54.8625 59.8674 54.945L59.9224 75.515Z" fill="black"/>
<path d="M82.555 71.8025H70.5925C70.0425 71.8025 69.6025 71.3625 69.6025 70.8125C69.6025 70.2625 70.0425 69.8225 70.5925 69.8225H82.555C83.105 69.8225 83.545 70.2625 83.545 70.8125C83.545 71.3625 83.105 71.8025 82.555 71.8025Z" fill="black"/>
<path d="M68.7498 111.98C68.4748 111.98 68.2272 111.87 68.0347 111.677L60.5547 103.867L53.0748 111.677C52.7998 111.98 52.3598 112.062 52.0023 111.897C51.6173 111.76 51.3698 111.375 51.3698 110.99V88.99C51.3698 88.44 51.8097 88 52.3597 88H68.7498C69.2998 88 69.7398 88.44 69.7398 88.99V110.99C69.7398 111.402 69.4922 111.76 69.1072 111.897C68.9972 111.952 68.8873 111.98 68.7498 111.98ZM60.5547 101.447C60.8297 101.447 61.0773 101.557 61.2698 101.75L67.7597 108.515V89.9525H53.3498V108.515L59.8398 101.75C60.0323 101.557 60.2797 101.447 60.5547 101.447Z" fill="black"/>
<path d="M85.1396 111.98C84.8646 111.98 84.6171 111.87 84.4246 111.677L76.9446 103.867L69.4646 111.677C69.1896 111.98 68.7496 112.062 68.3921 111.897C68.0071 111.76 67.7596 111.375 67.7596 110.99V88.99C67.7596 88.44 68.1996 88 68.7496 88H85.1396C85.6896 88 86.1296 88.44 86.1296 88.99V110.99C86.1296 111.402 85.8821 111.76 85.4971 111.897C85.4146 111.952 85.2771 111.98 85.1396 111.98ZM76.9446 101.447C77.2196 101.447 77.4671 101.557 77.6596 101.75L84.1496 108.515V89.9525H69.7396V108.515L76.2296 101.75C76.4221 101.557 76.6696 101.447 76.9446 101.447Z" fill="black"/>
<path d="M68.75 134.75C59.84 134.75 51.205 132.99 43.065 129.553C35.2 126.253 28.16 121.495 22.0825 115.418C16.005 109.34 11.2475 102.3 7.9475 94.435C4.51 86.295 2.75 77.66 2.75 68.75C2.75 59.84 4.51 51.205 7.9475 43.065C11.2475 35.2 16.005 28.16 22.0825 22.0825C28.16 16.005 35.2 11.2475 43.065 7.9475C51.205 4.51 59.84 2.75 68.75 2.75C77.66 2.75 86.295 4.51 94.435 7.9475C102.272 11.2475 109.313 16.005 115.418 22.0825C121.495 28.16 126.253 35.2 129.553 43.065C132.99 51.205 134.75 59.84 134.75 68.75C134.75 77.66 132.99 86.295 129.553 94.435C126.225 102.3 121.468 109.34 115.418 115.418C109.34 121.495 102.3 126.253 94.435 129.553C86.295 132.99 77.66 134.75 68.75 134.75ZM68.75 5.0325C33.605 5.0325 5.0325 33.6325 5.0325 68.75C5.0325 103.895 33.6325 132.467 68.75 132.467C103.895 132.467 132.467 103.868 132.467 68.75C132.467 33.605 103.895 5.0325 68.75 5.0325Z" fill="black"/>
</svg>
