<svg width="9" height="145" viewBox="0 0 9 145" fill="none" xmlns="http://www.w3.org/2000/svg">
<path d="M4.85355 0.646446C4.65829 0.451187 4.34171 0.451187 4.14644 0.646446L0.964463 3.82843C0.769201 4.02369 0.769201 4.34027 0.964463 4.53554C1.15973 4.7308 1.47631 4.7308 1.67157 4.53554L4.5 1.70711L7.32842 4.53554C7.52369 4.7308 7.84027 4.7308 8.03553 4.53554C8.23079 4.34027 8.23079 4.02369 8.03553 3.82843L4.85355 0.646446ZM5 71L5 1L4 1L4 71L5 71Z" fill="black"/>
<path d="M4.14645 144.354C4.34171 144.549 4.65829 144.549 4.85355 144.354L8.03553 141.172C8.2308 140.976 8.2308 140.66 8.03553 140.464C7.84027 140.269 7.52369 140.269 7.32843 140.464L4.5 143.293L1.67157 140.464C1.47631 140.269 1.15973 140.269 0.964466 140.464C0.769204 140.66 0.769204 140.976 0.964466 141.172L4.14645 144.354ZM5 144L5 71L4 71L4 144L5 144Z" fill="black"/>
</svg>
