<svg width="138" height="138" viewBox="0 0 138 138" fill="none" xmlns="http://www.w3.org/2000/svg">
<path d="M68.7638 93.8302C62.5812 93.8302 57.5176 88.7946 57.5176 82.5841V66.0785C57.5176 59.8959 62.5532 54.8323 68.7638 54.8323C74.9464 54.8323 80.0099 59.8679 80.0099 66.0785V82.5841C80.0099 88.7667 74.9464 93.8302 68.7638 93.8302ZM68.7638 57.5739C64.0639 57.5739 60.2872 61.3786 60.2872 66.0505V82.5561C60.2872 87.256 64.0918 91.0327 68.7638 91.0327C73.4357 91.0327 77.2404 87.228 77.2404 82.5561V66.0505C77.2404 61.4065 73.4357 57.5739 68.7638 57.5739Z" fill="black"/>
<path d="M68.7637 100.125C58.049 100.125 49.3486 91.4243 49.3486 80.7096V76.6252C49.3486 75.8699 49.9641 75.2544 50.7194 75.2544C51.5028 75.2544 52.0902 75.8699 52.0902 76.6252V80.7096C52.0902 89.8856 59.5597 97.3831 68.7637 97.3831C77.9397 97.3831 85.4371 89.9136 85.4371 80.7096V76.6252C85.4371 75.8699 86.0526 75.2544 86.8079 75.2544C87.5633 75.2544 88.1788 75.8699 88.1788 76.6252V80.7096C88.1788 91.3963 79.4504 100.125 68.7637 100.125Z" fill="black"/>
<path d="M68.7644 108.797C68.009 108.797 67.3936 108.182 67.3936 107.426V98.7539C67.3936 97.9985 68.009 97.3831 68.7644 97.3831C69.5197 97.3831 70.1352 97.9985 70.1352 98.7539V107.426C70.1072 108.182 69.5197 108.797 68.7644 108.797Z" fill="black"/>
<path d="M76.4855 108.797H60.987C60.2317 108.797 59.6162 108.182 59.6162 107.426C59.6162 106.671 60.2317 106.055 60.987 106.055H76.4855C77.2408 106.055 77.8563 106.671 77.8563 107.426C77.8563 108.182 77.2408 108.797 76.4855 108.797Z" fill="black"/>
<path d="M33.4587 47.9501C32.7034 47.9501 32.0879 47.3346 32.0879 46.5793V39.3056C32.0879 38.5503 32.7034 37.9348 33.4587 37.9348C34.214 37.9348 34.8295 38.5503 34.8295 39.3056V46.5793C34.8295 47.3346 34.214 47.9501 33.4587 47.9501Z" fill="black"/>
<path d="M39.3337 51.9787C38.5784 51.9787 37.9629 51.3633 37.9629 50.6079V35.2773C37.9629 34.522 38.5784 33.9065 39.3337 33.9065C40.089 33.9065 40.7045 34.522 40.7045 35.2773V50.6079C40.7045 51.3633 40.089 51.9787 39.3337 51.9787Z" fill="black"/>
<path d="M45.2087 57.1821C44.4534 57.1821 43.8379 56.5667 43.8379 55.8113V30.1018C43.8379 29.3464 44.4534 28.731 45.2087 28.731C45.992 28.731 46.5795 29.3464 46.5795 30.1018V55.8393C46.6075 56.5667 45.992 57.1821 45.2087 57.1821Z" fill="black"/>
<path d="M51.111 52.2025C50.3557 52.2025 49.7402 51.587 49.7402 50.8317V35.0534C49.7402 34.2981 50.3557 33.6826 51.111 33.6826C51.8664 33.6826 52.4818 34.2981 52.4818 35.0534V50.8596C52.4818 51.615 51.8664 52.2025 51.111 52.2025Z" fill="black"/>
<path d="M56.986 49.433C56.2307 49.433 55.6152 48.8175 55.6152 48.0622V37.7951C55.6152 37.0398 56.2307 36.4243 56.986 36.4243C57.7414 36.4243 58.3568 37.0398 58.3568 37.7951V48.0622C58.3568 48.8455 57.7414 49.433 56.986 49.433Z" fill="black"/>
<path d="M62.861 47.9501C62.1057 47.9501 61.4902 47.3346 61.4902 46.5793V39.3056C61.4902 38.5503 62.1057 37.9348 62.861 37.9348C63.6164 37.9348 64.2318 38.5503 64.2318 39.3056V46.5793C64.2598 47.3346 63.6164 47.9501 62.861 47.9501Z" fill="black"/>
<path d="M68.7644 52.79C68.009 52.79 67.3936 52.1746 67.3936 51.4192V34.466C67.3936 33.7107 68.009 33.0952 68.7644 33.0952C69.5197 33.0952 70.1352 33.7107 70.1352 34.466V51.4472C70.1072 52.1746 69.5197 52.79 68.7644 52.79Z" fill="black"/>
<path d="M74.6384 50.7197C73.883 50.7197 73.2676 50.1042 73.2676 49.3489V36.5361C73.2676 35.7807 73.883 35.1653 74.6384 35.1653C75.4217 35.1653 76.0092 35.7807 76.0092 36.5361V49.3489C76.0092 50.1042 75.3937 50.7197 74.6384 50.7197Z" fill="black"/>
<path d="M80.5134 54.6364C79.758 54.6364 79.1426 54.0209 79.1426 53.2656V32.6196C79.1426 31.8642 79.758 31.2488 80.5134 31.2488C81.2967 31.2488 81.8842 31.8642 81.8842 32.6196V53.2656C81.9122 54.0209 81.2687 54.6364 80.5134 54.6364Z" fill="black"/>
<path d="M86.3884 51.1674C85.633 51.1674 85.0176 50.552 85.0176 49.7966V36.0886C85.0176 35.3332 85.633 34.7178 86.3884 34.7178C87.1437 34.7178 87.7592 35.3332 87.7592 36.0886V49.8246C87.7872 50.5799 87.1717 51.1674 86.3884 51.1674Z" fill="black"/>
<path d="M92.2917 55.2239C91.5364 55.2239 90.9209 54.6085 90.9209 53.8531V32.0322C90.9209 31.2768 91.5364 30.6614 92.2917 30.6614C93.075 30.6614 93.6625 31.2768 93.6625 32.0322V53.8531C93.6625 54.6085 93.047 55.2239 92.2917 55.2239Z" fill="black"/>
<path d="M98.1667 47.9501C97.4114 47.9501 96.7959 47.3346 96.7959 46.5793V39.3056C96.7959 38.5503 97.4114 37.9348 98.1667 37.9348C98.95 37.9348 99.5375 38.5503 99.5375 39.3056V46.5793C99.5375 47.3346 98.922 47.9501 98.1667 47.9501Z" fill="black"/>
<path d="M104.041 47.9501C103.285 47.9501 102.67 47.3346 102.67 46.5793V39.3056C102.67 38.5503 103.285 37.9348 104.041 37.9348C104.796 37.9348 105.412 38.5503 105.412 39.3056V46.5793C105.44 47.3346 104.824 47.9501 104.041 47.9501Z" fill="black"/>
<path d="M68.7645 135.906C59.7004 135.906 50.916 134.143 42.6353 130.618C34.6342 127.233 27.4725 122.393 21.2899 116.239C15.1353 110.084 10.2955 102.894 6.91043 94.8933C3.41349 86.6125 1.62305 77.8282 1.62305 68.7641C1.62305 59.7 3.38551 50.9157 6.91043 42.6349C10.2675 34.6059 15.1073 27.4442 21.2619 21.2616C27.4165 15.1069 34.6063 10.2672 42.6073 6.88211C50.8881 3.38516 59.6724 1.59473 68.7365 1.59473C77.8006 1.59473 86.5849 3.35719 94.8657 6.88211C102.867 10.2672 110.056 15.1069 116.239 21.2616C122.394 27.4162 127.233 34.6059 130.618 42.6069C134.115 50.8877 135.906 59.672 135.906 68.7361C135.906 77.8002 134.143 86.5846 130.618 94.8653C127.233 102.866 122.394 110.028 116.239 116.211C110.084 122.365 102.895 127.205 94.8937 130.59C86.6129 134.115 77.8006 135.906 68.7645 135.906ZM68.7645 4.42026C33.2914 4.42026 4.42061 33.2911 4.42061 68.7641C4.42061 104.237 33.2914 133.108 68.7645 133.108C104.238 133.108 133.108 104.237 133.108 68.7641C133.108 33.2911 104.238 4.42026 68.7645 4.42026Z" fill="black"/>
</svg>
