<svg width="221" height="221" viewBox="0 0 221 221" fill="none" xmlns="http://www.w3.org/2000/svg">
<path d="M110.273 150.469C100.358 150.469 92.2378 142.394 92.2378 132.435V105.966C92.2378 96.0509 100.313 87.9308 110.273 87.9308C120.187 87.9308 128.307 96.0061 128.307 105.966V132.435C128.307 142.349 120.187 150.469 110.273 150.469ZM110.273 92.3273C102.736 92.3273 96.6792 98.4287 96.6792 105.921V132.39C96.6792 139.927 102.781 145.983 110.273 145.983C117.765 145.983 123.866 139.882 123.866 132.39V105.921C123.866 98.4735 117.765 92.3273 110.273 92.3273Z" fill="black"/>
<path d="M110.272 160.563C93.09 160.563 79.1377 146.611 79.1377 129.429V122.879C79.1377 121.668 80.1247 120.681 81.336 120.681C82.5921 120.681 83.5342 121.668 83.5342 122.879V129.429C83.5342 144.144 95.5126 156.167 110.272 156.167C124.987 156.167 137.011 144.189 137.011 129.429V122.879C137.011 121.668 137.998 120.681 139.209 120.681C140.42 120.681 141.407 121.668 141.407 122.879V129.429C141.407 146.566 127.41 160.563 110.272 160.563Z" fill="black"/>
<path d="M110.272 174.471C109.061 174.471 108.074 173.484 108.074 172.273V158.365C108.074 157.154 109.061 156.167 110.272 156.167C111.484 156.167 112.471 157.154 112.471 158.365V172.273C112.426 173.484 111.484 174.471 110.272 174.471Z" fill="black"/>
<path d="M122.654 174.471H97.8006C96.5893 174.471 95.6023 173.484 95.6023 172.273C95.6023 171.061 96.5893 170.074 97.8006 170.074H122.654C123.866 170.074 124.853 171.061 124.853 172.273C124.853 173.484 123.866 174.471 122.654 174.471Z" fill="black"/>
<path d="M53.6558 76.8946C52.4445 76.8946 51.4575 75.9076 51.4575 74.6963V63.032C51.4575 61.8207 52.4445 60.8338 53.6558 60.8338C54.8671 60.8338 55.8541 61.8207 55.8541 63.032V74.6963C55.8541 75.9076 54.8671 76.8946 53.6558 76.8946Z" fill="black"/>
<path d="M63.0769 83.3548C61.8656 83.3548 60.8787 82.3678 60.8787 81.1565V56.5718C60.8787 55.3605 61.8656 54.3735 63.0769 54.3735C64.2882 54.3735 65.2752 55.3605 65.2752 56.5718V81.1565C65.2752 82.3678 64.2882 83.3548 63.0769 83.3548Z" fill="black"/>
<path d="M72.4981 91.6993C71.2868 91.6993 70.2998 90.7123 70.2998 89.501V48.2722C70.2998 47.0609 71.2868 46.0739 72.4981 46.0739C73.7542 46.0739 74.6963 47.0609 74.6963 48.2722V89.5459C74.7412 90.7123 73.7542 91.6993 72.4981 91.6993Z" fill="black"/>
<path d="M81.9641 83.7137C80.7528 83.7137 79.7659 82.7268 79.7659 81.5155V56.2129C79.7659 55.0016 80.7528 54.0146 81.9641 54.0146C83.1754 54.0146 84.1624 55.0016 84.1624 56.2129V81.5603C84.1624 82.7716 83.1754 83.7137 81.9641 83.7137Z" fill="black"/>
<path d="M91.3853 79.2723C90.174 79.2723 89.187 78.2853 89.187 77.074V60.6094C89.187 59.3981 90.174 58.4112 91.3853 58.4112C92.5966 58.4112 93.5836 59.3981 93.5836 60.6094V77.074C93.5836 78.3302 92.5966 79.2723 91.3853 79.2723Z" fill="black"/>
<path d="M100.806 76.8946C99.5951 76.8946 98.6082 75.9076 98.6082 74.6963V63.032C98.6082 61.8207 99.5951 60.8338 100.806 60.8338C102.018 60.8338 103.005 61.8207 103.005 63.032V74.6963C103.05 75.9076 102.018 76.8946 100.806 76.8946Z" fill="black"/>
<path d="M110.272 84.6558C109.061 84.6558 108.074 83.6688 108.074 82.4576V55.2708C108.074 54.0595 109.061 53.0725 110.272 53.0725C111.484 53.0725 112.471 54.0595 112.471 55.2708V82.5024C112.426 83.6688 111.484 84.6558 110.272 84.6558Z" fill="black"/>
<path d="M119.694 81.336C118.482 81.336 117.495 80.349 117.495 79.1377V58.5906C117.495 57.3793 118.482 56.3924 119.694 56.3924C120.95 56.3924 121.892 57.3793 121.892 58.5906V79.1377C121.892 80.349 120.905 81.336 119.694 81.336Z" fill="black"/>
<path d="M129.115 87.6168C127.903 87.6168 126.917 86.6298 126.917 85.4185V52.3098C126.917 51.0986 127.903 50.1116 129.115 50.1116C130.371 50.1116 131.313 51.0986 131.313 52.3098V85.4185C131.358 86.6298 130.326 87.6168 129.115 87.6168Z" fill="black"/>
<path d="M138.536 82.0538C137.325 82.0538 136.338 81.0668 136.338 79.8555V57.8728C136.338 56.6615 137.325 55.6746 138.536 55.6746C139.747 55.6746 140.734 56.6615 140.734 57.8728V79.9004C140.779 81.1117 139.792 82.0538 138.536 82.0538Z" fill="black"/>
<path d="M148.002 88.5589C146.791 88.5589 145.804 87.5719 145.804 86.3606V51.3677C145.804 50.1564 146.791 49.1695 148.002 49.1695C149.258 49.1695 150.2 50.1564 150.2 51.3677V86.3606C150.2 87.5719 149.213 88.5589 148.002 88.5589Z" fill="black"/>
<path d="M157.423 76.8946C156.212 76.8946 155.225 75.9076 155.225 74.6963V63.032C155.225 61.8207 156.212 60.8338 157.423 60.8338C158.679 60.8338 159.621 61.8207 159.621 63.032V74.6963C159.621 75.9076 158.634 76.8946 157.423 76.8946Z" fill="black"/>
<path d="M166.844 76.8946C165.633 76.8946 164.646 75.9076 164.646 74.6963V63.032C164.646 61.8207 165.633 60.8338 166.844 60.8338C168.056 60.8338 169.043 61.8207 169.043 63.032V74.6963C169.087 75.9076 168.1 76.8946 166.844 76.8946Z" fill="black"/>
<path d="M110.272 217.943C95.7369 217.943 81.6501 215.116 68.3707 209.464C55.54 204.035 44.0552 196.274 34.1405 186.404C24.2707 176.535 16.5095 165.005 11.0811 152.174C5.47326 138.895 2.60205 124.808 2.60205 110.272C2.60205 95.7369 5.4284 81.65 11.0811 68.3707C16.4646 55.4951 24.2259 44.0103 34.0956 34.0956C43.9654 24.2258 55.4951 16.4646 68.3259 11.0362C81.6052 5.42837 95.6921 2.55716 110.228 2.55716C124.763 2.55716 138.85 5.38351 152.129 11.0362C164.96 16.4646 176.49 24.2258 186.404 34.0956C196.274 43.9654 204.035 55.4951 209.464 68.3258C215.072 81.6052 217.943 95.6921 217.943 110.228C217.943 124.763 215.117 138.85 209.464 152.129C204.035 164.96 196.274 176.445 186.404 186.359C176.535 196.229 165.005 203.991 152.174 209.419C138.895 215.072 124.763 217.943 110.272 217.943ZM110.272 7.08829C53.3866 7.08829 7.08832 53.3866 7.08832 110.272C7.08832 167.158 53.3866 213.457 110.272 213.457C167.158 213.457 213.457 167.158 213.457 110.272C213.457 53.3866 167.158 7.08829 110.272 7.08829Z" fill="black"/>
</svg>
